<?xml version="1.0" encoding="UTF-8" standalone="no"?>
<!-- Created with Inkscape (http://www.inkscape.org/) -->

<svg
   xmlns:dc="http://purl.org/dc/elements/1.1/"
   xmlns:cc="http://creativecommons.org/ns#"
   xmlns:rdf="http://www.w3.org/1999/02/22-rdf-syntax-ns#"
   xmlns:svg="http://www.w3.org/2000/svg"
   xmlns="http://www.w3.org/2000/svg"
   xmlns:sodipodi="http://sodipodi.sourceforge.net/DTD/sodipodi-0.dtd"
   xmlns:inkscape="http://www.inkscape.org/namespaces/inkscape"
   width="297mm"
   height="210mm"
   id="svg3031"
   version="1.1"
   inkscape:version="0.48.1 r9760"
   style="display:inline"
   sodipodi:docname="speect_logo_full.svg"
   inkscape:export-filename="/home/aby/Development/speect/docs/logo/speect_logo_full.png"
   inkscape:export-xdpi="72"
   inkscape:export-ydpi="72">
  <title
     id="title3011">Speect logo</title>
  <defs
     id="defs3033">
    <filter
       id="filter4068"
       inkscape:label="Combined lighting"
       inkscape:menu="Bevels"
       inkscape:menu-tooltip="Basic specular bevel to use for building textures"
       color-interpolation-filters="sRGB">
      <feGaussianBlur
         id="feGaussianBlur4070"
         stdDeviation="6"
         in="SourceGraphic"
         result="result0" />
      <feDiffuseLighting
         id="feDiffuseLighting4072"
         lighting-color="#ffffff"
         diffuseConstant="1"
         surfaceScale="4"
         result="result5">
        <feDistantLight
           id="feDistantLight4074"
           elevation="45"
           azimuth="235" />
      </feDiffuseLighting>
      <feComposite
         id="feComposite4076"
         in2="SourceGraphic"
         k1="1.4"
         in="result5"
         result="fbSourceGraphic"
         operator="arithmetic"
         k2="0"
         k3="0"
         k4="0" />
      <feGaussianBlur
         id="feGaussianBlur4078"
         result="result0"
         in="fbSourceGraphic"
         stdDeviation="6" />
      <feSpecularLighting
         id="feSpecularLighting4080"
         specularExponent="25"
         specularConstant="1"
         surfaceScale="4"
         lighting-color="#ffffff"
         result="result1"
         in="result0">
        <feDistantLight
           id="feDistantLight4082"
           azimuth="235"
           elevation="45" />
      </feSpecularLighting>
      <feComposite
         id="feComposite4084"
         in2="result1"
         k3="1"
         k2="1"
         operator="arithmetic"
         result="result4"
         in="fbSourceGraphic"
         k1="0"
         k4="0" />
      <feComposite
         id="feComposite4086"
         in2="SourceGraphic"
         operator="in"
         result="result2"
         in="result4" />
    </filter>
    <filter
       id="filter4544"
       inkscape:label="Combined lighting"
       inkscape:menu="Bevels"
       inkscape:menu-tooltip="Basic specular bevel to use for building textures"
       color-interpolation-filters="sRGB">
      <feGaussianBlur
         id="feGaussianBlur4546"
         stdDeviation="6"
         in="SourceGraphic"
         result="result0" />
      <feDiffuseLighting
         id="feDiffuseLighting4548"
         lighting-color="#ffffff"
         diffuseConstant="1"
         surfaceScale="4"
         result="result5">
        <feDistantLight
           id="feDistantLight4550"
           elevation="45"
           azimuth="235" />
      </feDiffuseLighting>
      <feComposite
         id="feComposite4552"
         in2="SourceGraphic"
         k1="1.4"
         in="result5"
         result="fbSourceGraphic"
         operator="arithmetic"
         k2="0"
         k3="0"
         k4="0" />
      <feGaussianBlur
         id="feGaussianBlur4554"
         result="result0"
         in="fbSourceGraphic"
         stdDeviation="6" />
      <feSpecularLighting
         id="feSpecularLighting4556"
         specularExponent="25"
         specularConstant="1"
         surfaceScale="4"
         lighting-color="#ffffff"
         result="result1"
         in="result0">
        <feDistantLight
           id="feDistantLight4558"
           azimuth="235"
           elevation="45" />
      </feSpecularLighting>
      <feComposite
         id="feComposite4560"
         in2="result1"
         k3="1"
         k2="1"
         operator="arithmetic"
         result="result4"
         in="fbSourceGraphic"
         k1="0"
         k4="0" />
      <feComposite
         id="feComposite4562"
         in2="SourceGraphic"
         operator="in"
         result="result2"
         in="result4" />
    </filter>
    <filter
       id="filter3952"
       inkscape:label="Combined lighting"
       inkscape:menu="Bevels"
       inkscape:menu-tooltip="Basic specular bevel to use for building textures"
       color-interpolation-filters="sRGB">
      <feGaussianBlur
         id="feGaussianBlur3954"
         stdDeviation="6"
         in="SourceGraphic"
         result="result0" />
      <feDiffuseLighting
         id="feDiffuseLighting3956"
         lighting-color="#ffffff"
         diffuseConstant="1"
         surfaceScale="4"
         result="result5">
        <feDistantLight
           id="feDistantLight3958"
           elevation="45"
           azimuth="235" />
      </feDiffuseLighting>
      <feComposite
         id="feComposite3960"
         in2="SourceGraphic"
         k1="1.4"
         in="result5"
         result="fbSourceGraphic"
         operator="arithmetic"
         k2="0"
         k3="0"
         k4="0" />
      <feGaussianBlur
         id="feGaussianBlur3962"
         result="result0"
         in="fbSourceGraphic"
         stdDeviation="6" />
      <feSpecularLighting
         id="feSpecularLighting3964"
         specularExponent="25"
         specularConstant="1"
         surfaceScale="4"
         lighting-color="#ffffff"
         result="result1"
         in="result0">
        <feDistantLight
           id="feDistantLight3966"
           azimuth="235"
           elevation="45" />
      </feSpecularLighting>
      <feComposite
         id="feComposite3968"
         in2="result1"
         k3="1"
         k2="1"
         operator="arithmetic"
         result="result4"
         in="fbSourceGraphic"
         k1="0"
         k4="0" />
      <feComposite
         id="feComposite3970"
         in2="SourceGraphic"
         operator="in"
         result="result2"
         in="result4" />
    </filter>
    <filter
       id="filter4022"
       inkscape:label="Button"
       x="0"
       y="0"
       width="1"
       height="1"
       inkscape:menu="Bevels"
       inkscape:menu-tooltip="Soft bevel, slightly depressed middle"
       color-interpolation-filters="sRGB">
      <feGaussianBlur
         id="feGaussianBlur4024"
         stdDeviation="2.3"
         in="SourceAlpha"
         result="result0" />
      <feMorphology
         id="feMorphology4026"
         in="SourceAlpha"
         radius="6.6"
         result="result1" />
      <feGaussianBlur
         id="feGaussianBlur4028"
         stdDeviation="8.9"
         in="result1" />
      <feColorMatrix
         id="feColorMatrix4030"
         values="1 0 0 0 0 0 1 0 0 0 0 0 1 0 0 0 0 0 0.3 0"
         result="result91" />
      <feComposite
         id="feComposite4032"
         in2="result91"
         in="result0"
         operator="out"
         result="result2" />
      <feGaussianBlur
         id="feGaussianBlur4034"
         stdDeviation="1.7"
         result="result4" />
      <feDiffuseLighting
         id="feDiffuseLighting4036"
         surfaceScale="10"
         result="result92">
        <feDistantLight
           id="feDistantLight4038"
           azimuth="225"
           elevation="45" />
      </feDiffuseLighting>
      <feBlend
         id="feBlend4040"
         in2="SourceGraphic"
         mode="multiply"
         result="result93" />
      <feComposite
         id="feComposite4042"
         in2="SourceAlpha"
         operator="in"
         result="result3" />
      <feSpecularLighting
         id="feSpecularLighting4044"
         in="result4"
         surfaceScale="5"
         specularExponent="17.89999962"
         result="result94">
        <feDistantLight
           id="feDistantLight4046"
           azimuth="225"
           elevation="45" />
      </feSpecularLighting>
      <feComposite
         id="feComposite4048"
         in2="result3"
         operator="atop" />
    </filter>
    <filter
       id="filter4271"
       inkscape:label="Drop shadow"
       inkscape:menu="Bevels"
       inkscape:menu-tooltip="Basic specular bevel to use for building textures"
       color-interpolation-filters="sRGB"
       width="1.5"
       height="1.5"
       x="-.25"
       y="-.25">
      <feGaussianBlur
         id="feGaussianBlur4273"
         stdDeviation="6"
         in="SourceGraphic"
         result="result0" />
      <feDiffuseLighting
         id="feDiffuseLighting4275"
         lighting-color="rgb(255,255,255)"
         diffuseConstant="1"
         surfaceScale="4"
         result="result5">
        <feDistantLight
           id="feDistantLight4277"
           elevation="45"
           azimuth="235" />
      </feDiffuseLighting>
      <feComposite
         id="feComposite4279"
         in2="SourceGraphic"
         k1="1.4"
         in="result5"
         result="fbSourceGraphic"
         operator="arithmetic" />
      <feGaussianBlur
         id="feGaussianBlur4281"
         result="result0"
         in="fbSourceGraphic"
         stdDeviation="6" />
      <feSpecularLighting
         id="feSpecularLighting4283"
         specularExponent="25"
         specularConstant="1"
         surfaceScale="4"
         lighting-color="rgb(255,255,255)"
         result="result1"
         in="result0">
        <feDistantLight
           id="feDistantLight4285"
           azimuth="235"
           elevation="45" />
      </feSpecularLighting>
      <feComposite
         id="feComposite4287"
         in2="result91"
         k3="1"
         k2="1"
         operator="arithmetic"
         result="result4"
         in="fbSourceGraphic" />
      <feComposite
         id="feComposite4289"
         in2="SourceGraphic"
         operator="in"
         result="fbSourceGraphic"
         in="result4" />
      <feColorMatrix
         result="fbSourceGraphicAlpha"
         in="fbSourceGraphic"
         values="0 0 0 -1 0 0 0 0 -1 0 0 0 0 -1 0 0 0 0 1 0"
         id="feColorMatrix4437" />
      <feGaussianBlur
         id="feGaussianBlur4439"
         in="fbSourceGraphicAlpha"
         stdDeviation="2"
         result="blur" />
      <feColorMatrix
         id="feColorMatrix4441"
         result="bluralpha"
         type="matrix"
         values="1 0 0 0 0 0 1 0 0 0 0 0 1 0 0 0 0 0 0.25 0 " />
      <feOffset
         id="feOffset4443"
         in="bluralpha"
         dx="5"
         dy="7"
         result="offsetBlur" />
      <feMerge
         id="feMerge4445">
        <feMergeNode
           id="feMergeNode4447"
           in="offsetBlur" />
        <feMergeNode
           id="feMergeNode4449"
           in="fbSourceGraphic" />
      </feMerge>
    </filter>
    <filter
       id="filter4313"
       inkscape:label="Matte bevel"
       inkscape:menu="Bevels"
       inkscape:menu-tooltip="Soft, pastel-colored, blurry bevel"
       x="-0.25"
       y="-0.25"
       width="1.5"
       height="1.5"
       color-interpolation-filters="sRGB">
      <feGaussianBlur
         id="feGaussianBlur4315"
         stdDeviation="1"
         result="result6" />
      <feComposite
         id="feComposite4317"
         in2="result6"
         operator="in"
         in="result6"
         result="result7" />
      <feGaussianBlur
         id="feGaussianBlur4319"
         stdDeviation="8"
         result="result3"
         in="result7" />
      <feComposite
         id="feComposite4321"
         in2="result7"
         operator="over"
         result="result91" />
      <feComposite
         id="feComposite4323"
         in2="result91"
         operator="in"
         in="result3"
         result="result5" />
      <feColorMatrix
         id="feColorMatrix4325"
         values="0 0 0 -1 0 0 0 0 -1 0 0 0 0 -1 0 0 0 0 1 0 "
         result="result4" />
      <feSpecularLighting
         id="feSpecularLighting4327"
         surfaceScale="3"
         specularConstant="2"
         specularExponent="45"
         in="result4"
         result="result11">
        <fePointLight
           id="fePointLight4329"
           x="-5000"
           y="-10000"
           z="20000" />
      </feSpecularLighting>
      <feComposite
         id="feComposite4331"
         in2="result4"
         operator="arithmetic"
         k1="1"
         result="result10" />
      <feComposite
         id="feComposite4333"
         in2="result10"
         operator="arithmetic"
         k2="0.5"
         k3="1"
         in="result5"
         result="result8" />
      <feComposite
         id="feComposite4335"
         in2="result8"
         result="result9" />
      <feBlend
         id="feBlend4337"
         in2="result9"
         mode="normal" />
    </filter>
  </defs>
  <sodipodi:namedview
     inkscape:document-units="mm"
     pagecolor="#ffffff"
     bordercolor="#666666"
     borderopacity="1.0"
     inkscape:pageopacity="0.0"
     inkscape:pageshadow="2"
     inkscape:zoom="0.86831672"
     inkscape:cx="507.88625"
     inkscape:cy="326.94947"
     inkscape:current-layer="g4455"
     id="namedview3035"
     showgrid="false"
     inkscape:window-width="1680"
     inkscape:window-height="973"
     inkscape:window-x="0"
     inkscape:window-y="24"
     inkscape:window-maximized="1"
     units="mm" />
  <metadata
     id="metadata3037">
    <rdf:RDF>
      <cc:Work
         rdf:about="">
        <dc:format>image/svg+xml</dc:format>
        <dc:type
           rdf:resource="http://purl.org/dc/dcmitype/StillImage" />
        <dc:title>Speect logo</dc:title>
        <dc:date>2011-05-08</dc:date>
        <dc:creator>
          <cc:Agent>
            <dc:title>Aby Louw</dc:title>
          </cc:Agent>
        </dc:creator>
        <dc:description>Speect logo version 0.1 </dc:description>
      </cc:Work>
    </rdf:RDF>
  </metadata>
  <g
     inkscape:groupmode="layer"
     id="layer1"
     inkscape:label="original speect"
     style="display:none"
     sodipodi:insensitive="true">
    <text
       xml:space="preserve"
       style="font-size:221.97991943px;font-style:normal;font-variant:normal;font-weight:bold;font-stretch:condensed;line-height:125%;letter-spacing:1.47986615px;word-spacing:0px;fill:none;stroke:#000000;stroke-opacity:1;font-family:Transformers Solid;-inkscape-font-specification:Transformers Solid Bold Condensed"
       x="11.516536"
       y="413.32056"
       id="text3104"
       sodipodi:linespacing="125%"><tspan
         sodipodi:role="line"
         id="tspan3106"
         x="11.516536"
         y="413.32056">speect</tspan></text>
  </g>
  <g
     inkscape:label="original waveform"
     inkscape:groupmode="layer"
     id="g4032"
     style="display:none"
     sodipodi:insensitive="true">
    <path
       style="fill:#000000;fill-opacity:1;stroke:#000000;stroke-width:0.66266757;stroke-opacity:1;display:inline"
       d="m 467.66899,394.18274 c -5.43958,2.10395 -2.54153,5.94646 -4.00285,8.80635 -2.18552,20.26828 -2.70193,40.56802 -4.95138,60.83516 -1.27939,-3.12093 -0.59338,-7.21809 -6.38317,-9.38449 -2.52018,-0.65346 -5.64065,0.22032 -6.38319,1.44267 -1.10644,-2.59845 -0.75273,-6.08839 -5.73305,-7.77376 -4.79323,-1.16822 -10.15107,1.23026 -9.36757,3.58028 -0.65809,0.58183 -0.88259,-4.00165 -1.48413,-5.50746 -1.20399,-2.62517 -0.54006,-5.82477 -3.68775,-8.03159 -4.91165,-1.49252 -8.53664,1.62289 -8.03837,3.65023 -1.11721,3.37089 -1.87261,6.75063 -2.48207,10.16042 -1.06387,-2.80811 -0.35925,-6.10548 -3.78263,-8.54411 -3.93704,-1.73409 -10.07277,0.25182 -9.6339,2.59124 -1.10243,2.85307 -1.87095,5.69489 -2.33451,8.58613 -0.84202,-5.73146 -0.82121,-11.63517 -4.19635,-17.15825 -3.22726,-2.03279 -9.44408,0.14577 -8.37086,2.30712 -1.44613,4.96409 -2.18514,10.01097 -2.71112,15.03322 -0.96637,-9.74292 -1.2874,-19.60207 -3.98942,-29.24609 -1.58191,-2.15489 -8.85809,-1.64644 -8.83074,0.70406 -2.09237,4.66752 -2.77118,9.43788 -3.2264,14.19913 -0.80476,-11.22167 -0.95681,-22.52904 -3.0439,-33.68622 -2.05298,-2.31217 -9.95263,-1.28879 -9.63272,1.19674 -4.09745,12.58949 -2.4778,25.41723 -4.40325,38.10327 -0.33317,2.0957 -0.28835,4.57424 -0.82851,6.47405 -2.78892,-1.05831 -9.29561,-1.93494 -10.43181,0.42018 -1.33441,3.72421 -2.07809,7.48259 -2.63007,11.26143 -1.02027,-8.03418 -1.14027,-16.18376 -3.72352,-24.11962 -2.59363,-2.39504 -9.52816,-0.21161 -8.92463,1.90493 -1.64177,5.00441 -2.35612,10.08361 -2.86657,15.15529 -0.8073,-7.3046 -1.18852,-14.77033 -4.93509,-21.85053 -1.56274,-1.80895 -7.88405,-1.96506 -8.57002,0.21006 -0.92743,3.56395 -1.00363,1.88253 -1.12722,-0.92394 -0.84062,-8.34295 -0.76013,-16.80737 -3.57155,-25.04456 -2.15678,-2.01072 -8.93684,-0.76779 -8.12671,1.38667 -2.21633,15.75858 -2.1491,31.5604 -2.95518,47.34279 -1.10935,-7.66017 -1.37933,-15.48013 -4.72828,-22.97108 -2.77634,-2.15278 -10.05951,-0.47668 -8.9843,1.90137 -1.70738,5.93126 -2.5317,11.95178 -3.19104,17.94621 -0.8194,-8.83369 -0.90631,-17.80519 -3.78262,-26.51478 -2.91462,-2.27554 -9.78236,-0.0269 -8.42229,2.18505 -2.14731,6.68451 -1.03663,13.68191 -3.60532,20.25375 -1.82626,1.05984 -1.61179,2.69644 -4.25545,3.34762 -0.56731,1.30387 -3.41428,1.66961 -5.11242,0.61628 -2.68179,-1.04889 -6.4173,2.12926 -7.59485,-0.18214 -1.63749,-1.88113 -7.59156,-1.95177 -8.92462,0.0703 -1.06483,0.61066 -2.71179,1.30919 -3.45755,1.8909 -1.13371,-2.26506 -5.83732,-5.42407 -11.31834,-4.132 -2.15232,0.94582 -3.41043,3.45317 -5.34883,3.54373 -0.11926,-2.03938 -3.0805,-4.69759 -8.18588,-3.79584 -3.26621,0.15448 -5.82344,2.11831 -7.71298,2.38116 -2.82204,-2.22033 -10.76922,-3.01586 -13.5052,-0.32217 -1.46833,0.73523 -2.39337,3.04777 -3.69392,2.84336 -2.05881,-2.31029 -10.0374,-3.42886 -12.50046,-0.71433 -0.99463,1.46659 -1.88101,1.3275 -3.3689,0.0702 -2.61539,-1.97075 -9.35216,-2.32593 -11.64339,-0.0279 -1.54398,1.13477 -3.29222,-1.71809 -5.34883,-2.04499 -4.03001,-1.79364 -9.52134,0.27862 -12.26402,1.30264 -3.01713,-2.1637 -10.89595,-3.32102 -13.97797,-0.56027 -1.38471,1.50511 -3.78262,-0.83135 -6.35366,-0.57427 -3.65223,-0.54081 -7.61716,0.61043 -10.63865,1.00847 -4.756253,-1.55468 -10.677869,-0.35938 -14.214332,1.28863 -2.553278,-0.6277 -5.695396,-1.04186 -8.865525,-0.74237 -6.288521,0.65604 -12.054192,-1.10456 -18.381199,-0.37817 -5.393002,-0.0915 -11.082827,-0.0128 -16.5786,-0.18215 -9.624414,-0.0695 -19.676562,-0.47358 -29.167562,0.0702 -4.050233,0.55651 -4.282407,3.62595 0.472828,3.76781 13.94561,-0.28914 27.946238,-0.029 41.874828,0.22417 4.328651,0.4222 8.973134,-0.73148 12.914169,0.53226 4.905029,0.52116 10.231629,-0.8394 14.657692,0.56026 4.57461,0.76718 9.048392,-0.9423 12.529942,-1.62478 3.661739,1.89878 8.943429,0.71519 12.411719,-0.58829 2.19507,-0.19213 3.4453,1.36865 5.82166,1.42868 3.75758,0.88717 8.56198,-0.50583 10.13631,-1.63878 2.37434,2.1673 8.84226,2.95864 12.58904,1.03652 2.98042,-2.13861 4.72621,0.9116 7.77206,1.62474 3.22914,1.45902 8.40473,0.36322 10.34315,-0.85437 2.27667,2.17434 9.21635,3.81903 13.03237,1.54074 1.42009,-0.70637 2.09102,-1.73357 3.16198,-0.28015 2.00839,1.96669 8.83245,3.53045 11.28877,0.89643 1.86098,-1.38973 2.92257,-3.04588 4.43278,-4.46814 1.79939,2.1131 7.95362,3.4458 11.70251,1.51272 1.45612,-0.34071 2.76084,-2.58082 3.2507,-0.99447 1.5765,1.85346 3.72058,5.3584 9.04283,4.58018 2.91527,-0.87098 4.39012,-2.51244 6.50139,-3.72579 1.12551,-1.27699 0.87492,1.60437 2.89607,1.93295 2.95962,0.82548 6.92384,2.26941 10.1658,0.75637 2.46158,-0.21854 4.14001,-2.02293 5.58535,-0.11197 2.16547,1.488 6.75012,0.75874 8.39271,-0.47624 2.87223,-0.12938 4.08616,1.94151 7.32884,1.07852 2.56574,-0.84456 4.63228,-1.26639 6.6491,-2.25509 2.66429,-0.46475 3.03905,-1.88076 4.16684,-2.77334 1.05773,11.60141 1.48533,23.23613 4.37368,34.77873 3.61959,2.43211 11.47779,0.10812 10.31352,-2.4932 1.3515,-8.1913 2.03817,-16.40225 2.77784,-24.60982 1.31267,9.2572 1.843,18.63812 4.7283,27.78937 2.05509,2.11928 9.30033,1.1406 8.57361,-1.22889 2.7616,-7.88358 3.99094,-15.897 3.98574,-23.9123 0.47264,-2.371 -1.01262,-2.6831 2.12793,-0.93936 5.40736,1.23533 8.7265,-2.27007 8.36308,-4.3421 0.55436,-2.06479 0.93386,-5.54705 1.04657,-1.44314 0.95485,8.07378 1.04913,16.32841 4.47967,24.21811 2.26742,2.13269 9.36163,0.97966 9.15925,-1.30597 1.33326,-2.97624 2.15857,-5.98689 2.69095,-9.01702 0.92742,4.53769 0.705,9.29206 3.48713,13.64257 2.00043,2.05487 9.11671,1.62668 9.10195,-0.84039 3.37134,-6.85624 3.06722,-13.9628 4.63967,-20.94008 1.21282,1.9941 0.92599,5.82209 6.91512,5.81278 5.94797,-0.68457 4.18017,-4.26716 4.69867,-6.33104 0.70198,-4.62856 1.28458,-9.26086 1.80272,-13.89467 0.92305,11.83115 1.07463,23.75899 3.78261,35.50708 2.44054,2.44794 10.08033,0.4897 9.42696,-1.77886 1.62929,-8.0175 2.03025,-16.07396 2.60056,-24.11961 0.8912,10.24691 2.03382,20.49379 4.13725,30.70279 7.84338,-1.80567 10.89389,-5.95559 10.71628,-9.88331 0.75218,-4.18288 1.24469,-8.37577 1.63636,-12.56951 1.04732,3.53822 0.9243,7.37672 3.98956,10.65911 2.25471,1.73137 9.01076,1.41714 8.92464,-0.89643 1.51085,-5.72337 2.08186,-11.48869 2.83693,-17.24226 1.11354,3.45018 0.69008,7.33265 3.63482,10.449 4.98987,1.671 9.43313,-1.48998 9.16684,-3.64979 1.14699,-3.00867 1.9282,-6.69999 2.53569,-9.32042 1.1292,3.3039 0.99842,7.14364 4.01903,10.02882 10.26634,1.42929 10.11323,-6.2639 11.05235,-9.25847 0.75692,2.88441 1.81644,5.75932 3.84175,8.50212 3.17324,0.2134 6.55255,-0.41026 8.12679,-1.77887 1.90689,8.88179 1.82642,17.9818 5.37842,26.71087 2.57511,2.02776 8.73777,0.16267 8.06759,-1.83492 3.08352,-14.36453 4.76089,-28.78631 5.96943,-43.21081 0.96714,17.42523 1.4431,34.92285 3.98956,52.28717 0.52937,1.98646 6.72108,2.87912 8.48131,0.84042 3.67357,-8.37291 2.74243,-17.04115 4.11994,-25.54647 0.27255,-3.16577 0.51556,-6.33205 0.75615,-9.49842 0.92664,8.78366 1.32666,17.72601 4.66918,26.34669 1.93641,2.04336 9.57316,1.09292 8.45181,-1.21858 1.68441,-6.08617 2.02351,-13.20836 3.45748,-18.67099 3.0507,1.96174 8.82471,0.0602 8.39275,-2.01697 1.17409,-6.24499 1.63692,-12.62213 2.0686,-18.93709 0.79964,7.30468 0.70821,14.74585 3.2507,21.94854 0.84504,2.00129 7.0508,3.20334 9.36794,1.10655 4.00308,-4.98617 2.66799,-10.49239 3.87124,-15.72958 0.87189,14.41078 1.32903,28.8945 3.84174,43.2388 0.63425,2.22577 8.54136,3.43606 9.72259,0.72835 1.7624,-3.83181 0.45543,-7.89612 1.59259,-11.80296 0.60332,-5.9124 1.19747,-11.82497 1.8058,-17.73726 0.98113,5.50819 1.11646,11.17989 3.81223,16.52798 2.96106,2.30927 10.36837,0.42675 9.47105,-2.00029 1.48495,-6.68951 2.26379,-13.4099 2.79292,-20.13037 0.52613,1.76929 0.63742,5.50382 6.35366,4.84634 5.83411,-1.26636 3.65693,-5.07412 5.12753,-7.4435 0.8315,-3.49716 1.39776,-7.67871 1.93529,-10.76527 1.02225,5.15264 1.45802,10.56173 5.61484,15.3794 2.7512,1.82529 8.95405,0.56221 8.62914,-1.61077 0.77239,-1.76489 1.31179,-3.52331 1.71397,-5.29456 0.99398,4.98439 0.79001,10.20205 3.93045,14.95921 3.14959,1.93714 9.33626,-0.1504 8.74731,-2.22708 1.32721,-3.86866 2.05376,-7.77286 2.71875,-11.6816 1.1539,3.85982 1.27239,8.06928 4.19635,11.65358 4.51563,1.64139 10.74892,-1.06503 11.22969,-3.12349 0.73817,-2.08262 1.23305,-4.16122 1.56619,-6.27503 1.16353,2.18521 1.07049,5.30238 5.79215,6.47112 5.00112,0.50172 6.60163,-2.52442 6.12142,-4.30922 1.0091,-5.89395 1.54643,-11.8031 2.12357,-17.70938 0.94954,4.27282 0.79039,8.78747 3.66444,12.83018 4.10519,2.15752 11.00205,-0.5527 9.969,-3.0073 0.65194,-2.07461 1.06645,-4.2031 1.52658,-6.30717 1.24496,6.95561 1.28033,14.13605 3.81221,20.94006 3.67484,2.17214 9.92166,-0.32757 9.51569,-2.53523 0.83247,-2.1673 1.49092,-4.33208 1.97991,-6.51311 1.10735,5.4357 1.08827,11.09725 4.63968,16.28984 2.21399,1.94785 9.71389,1.63107 9.48607,-0.84044 1.32979,-4.44595 2.09879,-8.94858 3.04388,-13.43243 2.43051,1.95547 0.0454,4.9801 4.58049,6.275 4.48316,1.08142 7.71382,-1.47878 6.94469,-3.38961 1.52887,-4.95115 2.18911,-9.96374 2.89609,-14.95922 1.07529,1.5612 -0.19719,4.4236 3.45753,4.93038 7.11208,0.28318 9.35177,-3.94701 10.60911,-6.49913 1.11096,3.3993 1.42379,7.84689 8.00848,9.95878 2.21614,0.48651 5.05149,0.0671 6.26497,-0.93844 1.45064,4.51775 2.25664,9.33533 6.91511,13.34843 3.8634,1.65361 8.7765,-0.82548 7.89036,-2.81535 1.40549,-5.23496 2.71497,-10.92248 4.3441,-15.86966 1.83798,2.15089 3.39689,5.35587 8.65867,5.9949 5.60218,-0.23622 4.46247,-3.66853 5.85126,-5.53265 1.2983,2.81652 1.5549,6.36799 6.44233,8.362 3.62159,0.94887 7.50808,-0.73719 7.2697,-2.50719 1.21374,-1.59452 1.93954,-4.53107 2.83698,-5.33655 0.85449,2.17073 3.26033,5.93181 9.36787,5.01439 6.72366,-1.41188 4.56041,-5.61553 6.06623,-8.33165 0.15665,-2.64999 0.72761,-1.09762 1.9128,0.43185 1.39873,2.03418 7.12643,4.32165 11.08191,2.29711 1.60883,-0.79695 1.79655,-1.92727 2.24596,-2.94141 1.54168,3.38115 2.58357,7.76045 9.19053,9.66463 3.27001,0.50056 5.46076,-1.48243 6.38323,-2.143 1.98186,2.50237 11.36623,2.75936 12.79592,-0.14015 0.87955,-1.07483 1.33148,-2.22907 2.33455,-3.27757 -0.10042,2.67877 5.59422,7.02267 11.61389,4.44016 3.50494,-2.22407 3.34046,-5.49734 4.99425,-7.82979 0.90274,2.36983 5.80663,4.02494 10.60907,4.18805 3.94945,-0.66848 2.64885,-3.18358 5.43754,-4.41215 1.28893,1.7394 4.74229,5.01204 9.3679,3.5857 1.60574,-0.4815 3.02494,-1.82396 3.69396,-0.26611 1.64302,1.88987 6.29366,2.72308 10.10668,1.79288 3.27377,-0.18573 5.24419,-2.01876 8.30405,-2.14305 3.25862,1.56118 9.23236,1.75641 11.70256,-0.33613 1.62579,-0.90865 2.28924,-2.29003 4.93513,-1.2326 4.06493,0.84104 8.53309,0.0792 12.29354,-0.44823 3.24325,2.56437 11.27995,2.92384 15.78066,1.09254 5.16364,2.19709 11.96526,0.49658 17.61277,-0.0154 6.41672,0.75574 13.25171,0.61361 19.77028,0.57428 3.59008,-0.66176 7.29707,-0.81358 10.72721,0 6.7604,0.29633 13.4986,-1.32802 20.1251,-0.15397 5.378,-0.0542 10.7245,-0.60232 16.0465,-0.14014 4.9664,0.26438 9.083,-3.00272 3.2211,-4.07598 -7.2816,0.0525 -14.7054,0.22904 -21.8683,0.0129 -6.9855,-0.83226 -14.3191,1.45197 -21.01142,-0.15399 -5.41926,-0.0264 -10.60104,1.06555 -15.92842,0.61631 -7.13172,-0.30385 -14.83793,-1.06339 -21.60234,0.49022 -3.71307,-0.88434 -8.48418,-2.17109 -12.26416,-0.60227 -2.28029,1.43114 -3.38145,-0.81334 -5.79211,-0.98048 -4.38181,-1.28624 -9.37166,-0.26828 -13.80066,0.0561 -3.7505,-2.49405 -11.42139,-1.24493 -14.12573,1.10652 -1.10784,1.13845 -3.94221,-0.61891 -6.17632,-0.14014 -3.71005,0.28693 -6.90989,1.30152 -9.89985,2.33915 -1.03497,-2.41907 -7.14,-4.85757 -11.99803,-2.92738 -2.04018,0.4151 -1.86776,-2.00238 -3.04377,-2.71733 -1.732,-2.44083 -8.48605,-1.72937 -11.7321,-0.50425 -1.39562,0.73001 -1.15281,2.5048 -2.51193,2.74533 -2.11579,-2.32371 -2.6449,-5.98427 -8.5404,-6.8773 -5.21618,-0.32514 -6.42377,2.59422 -6.85601,4.42609 -0.94377,0.93236 -0.94567,4.44916 -2.15729,3.78186 -1.20338,-2.36246 -8.82869,-3.84253 -11.82068,-1.48472 -1.86441,1.59714 -2.96004,3.36296 -4.19636,5.08442 -1.35612,-1.73054 -3.70835,-5.13513 -8.77692,-3.55768 -1.53636,0.51509 -2.19632,1.53452 -2.77785,2.21304 -2.57293,-3.18656 -0.92195,-7.81042 -7.68353,-9.87473 -4.85642,-0.85194 -8.43074,1.60683 -9.16096,3.54369 -1.01114,-2.83008 -2.39839,-6.98631 -9.33843,-7.66167 -6.84893,0.55731 -6.03024,4.77766 -7.28369,7.22306 -0.50672,3.57727 -1.16042,0.7155 -1.93641,-1.36825 0.83883,-2.76762 -7.10992,-3.15198 -9.16107,-1.00848 -2.88844,2.22193 -3.02849,4.92874 -4.40318,7.39555 -1.48459,-4.00023 -1.39277,-8.41385 -4.55103,-12.17187 -3.66038,-1.82266 -9.13151,0.52764 -9.13146,2.53524 -1.0494,2.36504 -1.6536,4.77858 -2.30504,7.15745 -1.46248,-2.61466 -1.12101,-6.02626 -5.37844,-7.94185 -5.93794,-1.08849 -8.58114,2.68089 -8.54454,4.78654 -1.04063,3.88618 -2.24761,7.76196 -3.36485,11.64337 -1.25676,-3.15508 -0.83933,-6.92692 -4.90558,-9.5806 -4.59306,-1.37274 -8.2915,1.4036 -8.68821,3.27759 -1.61555,-4.16199 -1.34863,-9.09041 -7.38796,-12.438 -5.0811,-1.3297 -7.98493,1.96908 -8.15627,3.87985 -0.96684,2.7824 -1.23307,-2.30136 -2.01068,-3.29997 -1.55371,-2.0656 0,-5.42337 -4.93395,-6.37869 -6.12624,-0.39093 -7.64914,3.40141 -8.18588,5.56068 -1.45726,4.33711 -1.5869,8.75381 -2.03904,13.13832 -0.5864,-1.93372 -1.92516,-5.57124 -7.62434,-4.44012 -5.13009,1.79689 -3.3584,5.44571 -4.96677,8.02221 -0.74313,3.33795 -1.14141,4.28152 -1.44602,0.2978 -0.75642,-4.6926 -1.6865,-9.37806 -3.48711,-14.00674 -5.46731,-1.75787 -10.85311,1.20781 -10.81594,3.72579 -0.30261,3.15193 -0.73932,1.31573 -0.85071,-0.82395 -1.08081,-6.91111 -1.54294,-13.95134 -4.79362,-20.69042 -1.76101,-1.82756 -8.5323,-2.01395 -8.92466,0.36418 -1.04323,4.05599 -1.55996,8.13655 -2.06862,12.21388 -1.03973,-5.42896 -0.94152,-11.10976 -4.40324,-16.2758 -3.40099,-1.97786 -9.34358,0.38848 -8.83596,2.45115 -2.68132,7.88621 -3.19082,15.92451 -3.95991,23.90951 -0.28259,-1.9408 -2.94676,-4.65757 -7.71307,-3.38964 -5.12084,2.11228 -3.32249,5.87875 -4.78741,8.72622 -0.43725,2.12113 -0.76191,6.20873 -1.32977,1.80686 -1.16118,-3.1578 -1.19718,-6.77982 -4.04865,-9.60862 -4.86653,-1.59739 -8.91308,1.399 -9.42694,3.41763 -0.64034,0.99603 -1.61311,4.98295 -1.65624,2.39608 -1.08864,-5.87202 -0.97631,-12.0062 -4.46104,-17.62142 -3.84022,-2.0163 -9.52854,0.61919 -8.94015,2.76885 -1.06055,3.2847 -1.64782,6.60626 -2.11222,9.93528 -0.82953,-4.34525 -0.83,-8.93428 -3.60532,-13.05429 -2.48489,-2.07214 -9.48862,-1.08604 -9.60426,1.26062 -1.64166,2.47183 -2.45749,5.05288 -3.103,7.61966 -1.0944,-2.7696 -0.50328,-6.07288 -3.78261,-8.43205 -4.06566,-1.4994 -8.63614,1.07282 -7.78514,3.03688 -1.43731,6.05797 -2.08603,12.15053 -2.61708,18.23936 -0.91616,-5.75818 -0.60373,-11.66596 -2.77786,-17.32633 -2.13579,-2.13992 -10.21585,-1.64662 -9.98854,0.92441 -1.15105,5.44172 -1.92827,10.89987 -2.57093,16.3599 -1.07475,-15.98151 -1.46151,-32.03796 -4.49188,-47.94506 -2.14152,-2.40374 -9.57712,-0.67725 -9.16105,1.49871 -2.46884,9.88057 -2.89788,19.84108 -3.39847,29.77834 -0.86048,-9.42893 -1.00195,-18.96305 -3.90086,-28.29361 -0.63028,-1.87488 -6.06602,-3.06226 -8.48132,-1.19059 -5.05729,5.71474 -2.92113,12.13764 -4.30422,18.17956 -0.85584,9.02876 -0.77509,18.79532 -1.96076,27.37035 -2.87157,-1.61088 -7.90623,-0.56236 -8.27448,1.40068 -0.48503,-0.94448 -0.40607,-4.83375 -0.67975,-6.87732 -0.86706,-8.46117 -1.24194,-17.04586 -3.98944,-25.3942 -1.42605,-1.87345 -7.89189,-1.88509 -8.42231,0.26612 -2.92555,7.83692 -3.06949,15.84844 -3.66441,23.79745 -1.11276,-18.26426 -1.46575,-36.64699 -4.7874,-54.80838 -0.15469,-1.51768 -2.95384,-3.19092 -6.35358,-2.47919 z"
       id="path4034"
       inkscape:connector-curvature="0" />
  </g>
  <g
     style="display:none"
     id="g4291"
     inkscape:groupmode="layer"
     inkscape:label="modiefied waveform"
     sodipodi:insensitive="true">
    <path
       inkscape:connector-curvature="0"
       id="path4293"
       d="m 467.66899,394.18274 c -5.43958,2.10395 -2.54153,5.94646 -4.00285,8.80635 -2.18552,20.26828 -2.70193,40.56802 -4.95138,60.83516 -1.27939,-3.12093 -0.59338,-7.21809 -6.38317,-9.38449 -2.52018,-0.65346 -5.64065,0.22032 -6.38319,1.44267 -1.10644,-2.59845 -0.75273,-6.08839 -5.73305,-7.77376 -4.79323,-1.16822 -10.15107,1.23026 -9.36757,3.58028 -0.65809,0.58183 -0.88259,-4.00165 -1.48413,-5.50746 -1.20399,-2.62517 -0.54006,-5.82477 -3.68775,-8.03159 -4.91165,-1.49252 -8.53664,1.62289 -8.03837,3.65023 -1.11721,3.37089 -1.87261,6.75063 -2.48207,10.16042 -1.06387,-2.80811 -0.35925,-6.10548 -3.78263,-8.54411 -3.93704,-1.73409 -10.07277,0.25182 -9.6339,2.59124 -1.10243,2.85307 -1.87095,5.69489 -2.33451,8.58613 -0.84202,-5.73146 -0.82121,-11.63517 -4.19635,-17.15825 -3.22726,-2.03279 -9.44408,0.14577 -8.37086,2.30712 -1.44613,4.96409 -2.18514,10.01097 -2.71112,15.03322 -0.96637,-9.74292 -1.2874,-19.60207 -3.98942,-29.24609 -1.58191,-2.15489 -8.85809,-1.64644 -8.83074,0.70406 -2.09237,4.66752 -2.77118,9.43788 -3.2264,14.19913 -0.80476,-11.22167 -0.95681,-22.52904 -3.0439,-33.68622 -2.05298,-2.31217 -9.95263,-1.28879 -9.63272,1.19674 -4.09745,12.58949 -2.4778,25.41723 -4.40325,38.10327 -0.33317,2.0957 -0.28835,4.57424 -0.82851,6.47405 -2.78892,-1.05831 -9.29561,-1.93494 -10.43181,0.42018 -1.33441,3.72421 -2.07809,7.48259 -2.63007,11.26143 -1.02027,-8.03418 -1.14027,-16.18376 -3.72352,-24.11962 -2.59363,-2.39504 -9.52816,-0.21161 -8.92463,1.90493 -1.64177,5.00441 -2.35612,10.08361 -2.86657,15.15529 -0.8073,-7.3046 -1.18852,-14.77033 -4.93509,-21.85053 -1.56274,-1.80895 -7.88405,-1.96506 -8.57002,0.21006 -0.92743,3.56395 -1.00363,1.88253 -1.12722,-0.92394 -0.84062,-8.34295 -0.76013,-16.80737 -3.57155,-25.04456 -2.15678,-2.01072 -8.93684,-0.76779 -8.12671,1.38667 -2.21633,15.75858 -2.1491,31.5604 -2.95518,47.34279 -1.10935,-7.66017 -1.37933,-15.48013 -4.72828,-22.97108 -2.77634,-2.15278 -10.05951,-0.47668 -8.9843,1.90137 -1.70738,5.93126 -2.5317,11.95178 -3.19104,17.94621 -0.8194,-8.83369 -0.90631,-17.80519 -3.78262,-26.51478 -2.91462,-2.27554 -9.78236,-0.0269 -8.42229,2.18505 -2.14731,6.68451 -1.03663,13.68191 -3.60532,20.25375 -1.82626,1.05984 -1.61179,2.69644 -4.25545,3.34762 -0.56731,1.30387 -3.41428,1.66961 -5.11242,0.61628 -2.68179,-1.04889 -6.4173,2.12926 -7.59485,-0.18214 -1.63749,-1.88113 -7.59156,-1.95177 -8.92462,0.0703 -1.06483,0.61066 -2.71179,1.30919 -3.45755,1.8909 -1.13371,-2.26506 -5.83732,-5.42407 -11.31834,-4.132 -2.15232,0.94582 -3.41043,3.45317 -5.34883,3.54373 -0.11926,-2.03938 -3.0805,-4.69759 -8.18588,-3.79584 -3.26621,0.15448 -5.82344,2.11831 -7.71298,2.38116 -2.82204,-2.22033 -10.76922,-3.01586 -13.5052,-0.32217 -1.46833,0.73523 -2.39337,3.04777 -3.69392,2.84336 -2.05881,-2.31029 -10.0374,-3.42886 -12.50046,-0.71433 -0.99463,1.46659 -1.88101,1.3275 -3.3689,0.0702 -2.61539,-1.97075 -9.35216,-2.32593 -11.64339,-0.0279 -1.54398,1.13477 -3.29222,-1.71809 -5.34883,-2.04499 -4.03001,-1.79364 -9.52134,0.27862 -12.26402,1.30264 -3.01713,-2.1637 -10.89595,-3.32102 -13.97797,-0.56027 -1.38471,1.50511 -3.78262,-0.83135 -6.35366,-0.57427 -3.65223,-0.54081 -7.61716,0.61043 -10.63865,1.00847 -4.756253,-1.55468 -10.677869,-0.35938 -14.214332,1.28863 -2.553278,-0.6277 -5.695396,-1.04186 -8.865525,-0.74237 -6.288521,0.65604 -12.054192,-1.10456 -18.381199,-0.37817 -5.393002,-0.0915 -11.082827,-0.0128 -16.5786,-0.18215 -9.624414,-0.0695 -19.676562,-0.47358 -29.167562,0.0702 -4.050233,0.55651 -4.282407,3.62595 0.472828,3.76781 13.94561,-0.28914 27.946238,-0.029 41.874828,0.22417 4.328651,0.4222 8.973134,-0.73148 12.914169,0.53226 4.905029,0.52116 10.231629,-0.8394 14.657692,0.56026 4.57461,0.76718 9.048392,-0.9423 12.529942,-1.62478 3.661739,1.89878 8.943429,0.71519 12.411719,-0.58829 2.19507,-0.19213 3.4453,1.36865 5.82166,1.42868 3.75758,0.88717 8.56198,-0.50583 10.13631,-1.63878 2.37434,2.1673 8.84226,2.95864 12.58904,1.03652 2.98042,-2.13861 4.72621,0.9116 7.77206,1.62474 3.22914,1.45902 8.40473,0.36322 10.34315,-0.85437 2.27667,2.17434 9.21635,3.81903 13.03237,1.54074 1.42009,-0.70637 2.09102,-1.73357 3.16198,-0.28015 2.00839,1.96669 8.83245,3.53045 11.28877,0.89643 1.86098,-1.38973 2.92257,-3.04588 4.43278,-4.46814 1.79939,2.1131 7.95362,3.4458 11.70251,1.51272 1.45612,-0.34071 2.76084,-2.58082 3.2507,-0.99447 1.5765,1.85346 3.72058,5.3584 9.04283,4.58018 2.91527,-0.87098 4.39012,-2.51244 6.50139,-3.72579 1.12551,-1.27699 0.87492,1.60437 2.89607,1.93295 2.95962,0.82548 6.92384,2.26941 10.1658,0.75637 2.46158,-0.21854 4.14001,-2.02293 5.58535,-0.11197 2.16547,1.488 6.75012,0.75874 8.39271,-0.47624 2.87223,-0.12938 4.08616,1.94151 7.32884,1.07852 2.56574,-0.84456 4.63228,-1.26639 6.6491,-2.25509 2.66429,-0.46475 3.03905,-1.88076 4.16684,-2.77334 1.05773,11.60141 1.48533,23.23613 4.37368,34.77873 3.61959,2.43211 11.47779,0.10812 10.31352,-2.4932 1.3515,-8.1913 2.03817,-16.40225 2.77784,-24.60982 1.31267,9.2572 1.843,18.63812 4.7283,27.78937 2.05509,2.11928 9.30033,1.1406 8.57361,-1.22889 2.7616,-7.88358 3.99094,-15.897 3.98574,-23.9123 0.47264,-2.371 -1.01262,-2.6831 2.12793,-0.93936 5.40736,1.23533 8.7265,-2.27007 8.36308,-4.3421 0.55436,-2.06479 0.93386,-5.54705 1.04657,-1.44314 0.95485,8.07378 1.04913,16.32841 4.47967,24.21811 2.26742,2.13269 9.36163,0.97966 9.15925,-1.30597 1.33326,-2.97624 2.15857,-5.98689 2.69095,-9.01702 0.92742,4.53769 0.705,9.29206 3.48713,13.64257 2.00043,2.05487 9.11671,1.62668 9.10195,-0.84039 3.37134,-6.85624 3.06722,-13.9628 4.63967,-20.94008 1.21282,1.9941 0.92599,5.82209 6.91512,5.81278 5.94797,-0.68457 4.18017,-4.26716 4.69867,-6.33104 0.70198,-4.62856 1.28458,-9.26086 1.80272,-13.89467 0.92305,11.83115 1.07463,23.75899 3.78261,35.50708 2.44054,2.44794 10.08033,0.4897 9.42696,-1.77886 1.62929,-8.0175 2.03025,-16.07396 2.60056,-24.11961 0.8912,10.24691 2.03382,20.49379 4.13725,30.70279 7.84338,-1.80567 10.89389,-5.95559 10.71628,-9.88331 0.75218,-4.18288 1.24469,-8.37577 1.63636,-12.56951 1.04732,3.53822 0.9243,7.37672 3.98956,10.65911 2.25471,1.73137 9.01076,1.41714 8.92464,-0.89643 1.51085,-5.72337 2.08186,-11.48869 2.83693,-17.24226 1.11354,3.45018 0.69008,7.33265 3.63482,10.449 4.98987,1.671 9.43313,-1.48998 9.16684,-3.64979 1.14699,-3.00867 1.9282,-6.69999 2.53569,-9.32042 1.1292,3.3039 0.99842,7.14364 4.01903,10.02882 10.26634,1.42929 10.11323,-6.2639 11.05235,-9.25847 0.75692,2.88441 1.81644,5.75932 3.84175,8.50212 3.17324,0.2134 6.55255,-0.41026 8.12679,-1.77887 1.90689,8.88179 1.82642,17.9818 5.37842,26.71087 2.57511,2.02776 8.73777,0.16267 8.06759,-1.83492 3.08352,-14.36453 4.76089,-28.78631 5.96943,-43.21081 0.96714,17.42523 1.4431,34.92285 3.98956,52.28717 0.52937,1.98646 6.72108,2.87912 8.48131,0.84042 3.67357,-8.37291 2.74243,-17.04115 4.11994,-25.54647 0.27255,-3.16577 0.51556,-6.33205 0.75615,-9.49842 0.92664,8.78366 1.32666,17.72601 4.66918,26.34669 1.93641,2.04336 9.57316,1.09292 8.45181,-1.21858 1.68441,-6.08617 2.02351,-13.20836 3.45748,-18.67099 3.0507,1.96174 8.82471,0.0602 8.39275,-2.01697 1.17409,-6.24499 1.63692,-12.62213 2.0686,-18.93709 0.79964,7.30468 0.70821,14.74585 3.2507,21.94854 0.84504,2.00129 7.0508,3.20334 9.36794,1.10655 4.00308,-4.98617 2.66799,-10.49239 3.87124,-15.72958 0.87189,14.41078 1.32903,28.8945 3.84174,43.2388 0.63425,2.22577 8.54136,3.43606 9.72259,0.72835 1.7624,-3.83181 0.45543,-7.89612 1.59259,-11.80296 0.60332,-5.9124 1.19747,-11.82497 1.8058,-17.73726 0.98113,5.50819 1.11646,11.17989 3.81223,16.52798 2.96106,2.30927 10.36837,0.42675 9.47105,-2.00029 1.48495,-6.68951 2.26379,-13.4099 2.79292,-20.13037 0.52613,1.76929 0.63742,5.50382 6.35366,4.84634 5.83411,-1.26636 3.65693,-5.07412 5.12753,-7.4435 0.8315,-3.49716 1.39776,-7.67871 1.93529,-10.76527 1.02225,5.15264 1.45802,10.56173 5.61484,15.3794 2.7512,1.82529 8.95405,0.56221 8.62914,-1.61077 0.77239,-1.76489 1.31179,-3.52331 1.71397,-5.29456 0.99398,4.98439 0.79001,10.20205 3.93045,14.95921 3.14959,1.93714 9.33626,-0.1504 8.74731,-2.22708 1.32721,-3.86866 2.05376,-7.77286 2.71875,-11.6816 1.1539,3.85982 1.27239,8.06928 4.19635,11.65358 4.51563,1.64139 10.74892,-1.06503 11.22969,-3.12349 0.73817,-2.08262 1.23305,-4.16122 1.56619,-6.27503 1.16353,2.18521 1.07049,5.30238 5.79215,6.47112 5.00112,0.50172 6.60163,-2.52442 6.12142,-4.30922 1.0091,-5.89395 1.54643,-11.8031 2.12357,-17.70938 0.94954,4.27282 0.79039,8.78747 3.66444,12.83018 4.10519,2.15752 11.00205,-0.5527 9.969,-3.0073 0.65194,-2.07461 1.06645,-4.2031 1.52658,-6.30717 1.24496,6.95561 1.28033,14.13605 3.81221,20.94006 3.67484,2.17214 9.92166,-0.32757 9.51569,-2.53523 0.83247,-2.1673 1.49092,-4.33208 1.97991,-6.51311 1.10735,5.4357 1.08827,11.09725 4.63968,16.28984 2.21399,1.94785 9.71389,1.63107 9.48607,-0.84044 1.32979,-4.44595 2.09879,-8.94858 3.04388,-13.43243 2.43051,1.95547 0.0454,4.9801 4.58049,6.275 4.48316,1.08142 7.71382,-1.47878 6.94469,-3.38961 1.52887,-4.95115 2.18911,-9.96374 2.89609,-14.95922 1.07529,1.5612 -0.19719,4.4236 3.45753,4.93038 7.11208,0.28318 9.35177,-3.94701 10.60911,-6.49913 1.11096,3.3993 1.42379,7.84689 8.00848,9.95878 2.21614,0.48651 5.05149,0.0671 6.26497,-0.93844 1.45064,4.51775 2.25664,9.33533 6.91511,13.34843 3.8634,1.65361 8.7765,-0.82548 7.89036,-2.81535 1.40549,-5.23496 2.71497,-10.92248 4.3441,-15.86966 1.83798,2.15089 3.39689,5.35587 8.65867,5.9949 5.60218,-0.23622 4.46247,-3.66853 5.85126,-5.53265 1.2983,2.81652 1.5549,6.36799 6.44233,8.362 3.62159,0.94887 7.50808,-0.73719 7.2697,-2.50719 1.21374,-1.59452 1.93954,-4.53107 2.83698,-5.33655 0.85449,2.17073 3.26033,5.93181 9.36787,5.01439 6.72366,-1.41188 4.56041,-5.61553 6.06623,-8.33165 0.15665,-2.64999 0.72761,-1.09762 1.9128,0.43185 1.39873,2.03418 7.12643,4.32165 11.08191,2.29711 1.60883,-0.79695 1.79655,-1.92727 2.24596,-2.94141 1.54168,3.38115 2.58357,7.76045 9.19053,9.66463 3.27001,0.50056 5.46076,-1.48243 6.38323,-2.143 1.98186,2.50237 11.36623,2.75936 12.79592,-0.14015 0.87955,-1.07483 1.33148,-2.22907 2.33455,-3.27757 -0.10042,2.67877 5.59422,7.02267 11.61389,4.44016 3.50494,-2.22407 3.34046,-5.49734 4.99425,-7.82979 0.90274,2.36983 5.80663,4.02494 10.60907,4.18805 3.94945,-0.66848 2.64885,-3.18358 5.43754,-4.41215 1.28893,1.7394 4.74229,5.01204 9.3679,3.5857 1.60574,-0.4815 3.02494,-1.82396 3.69396,-0.26611 1.64302,1.88987 6.29366,2.72308 10.10668,1.79288 3.27377,-0.18573 5.24419,-2.01876 8.30405,-2.14305 3.25862,1.56118 9.23236,1.75641 11.70256,-0.33613 1.62579,-0.90865 2.28924,-2.29003 4.93513,-1.2326 4.06493,0.84104 8.53309,0.0792 12.29354,-0.44823 3.24325,2.56437 11.27995,2.92384 15.78066,1.09254 5.16364,2.19709 11.96526,0.49658 17.61277,-0.0154 6.41672,0.75574 13.25171,0.61361 19.77028,0.57428 3.59008,-0.66176 7.29707,-0.81358 10.72721,0 6.7604,0.29633 13.4986,-1.32802 20.1251,-0.15397 5.378,-0.0542 10.7245,-0.60232 16.0465,-0.14014 4.9664,0.26438 9.083,-3.00272 3.2211,-4.07598 -7.2816,0.0525 -14.7054,0.22904 -21.8683,0.0129 -6.9855,-0.83226 -14.3191,1.45197 -21.01142,-0.15399 -5.41926,-0.0264 -10.60104,1.06555 -15.92842,0.61631 -7.13172,-0.30385 -14.83793,-1.06339 -21.60234,0.49022 -3.71307,-0.88434 -8.48418,-2.17109 -12.26416,-0.60227 -2.28029,1.43114 -3.38145,-0.81334 -5.79211,-0.98048 -4.38181,-1.28624 -9.37166,-0.26828 -13.80066,0.0561 -3.7505,-2.49405 -11.42139,-1.24493 -14.12573,1.10652 -1.10784,1.13845 -3.94221,-0.61891 -6.17632,-0.14014 -3.71005,0.28693 -6.90989,1.30152 -9.89985,2.33915 -1.03497,-2.41907 -7.14,-4.85757 -11.99803,-2.92738 -2.04018,0.4151 -1.86776,-2.00238 -3.04377,-2.71733 -1.732,-2.44083 -8.48605,-1.72937 -11.7321,-0.50425 -1.39562,0.73001 -1.15281,2.5048 -2.51193,2.74533 -2.11579,-2.32371 -2.6449,-5.98427 -8.5404,-6.8773 -5.21618,-0.32514 -6.42377,2.59422 -6.85601,4.42609 -0.94377,0.93236 -0.94567,4.44916 -2.15729,3.78186 -1.20338,-2.36246 -8.82869,-3.84253 -11.82068,-1.48472 -1.86441,1.59714 -2.96004,3.36296 -4.19636,5.08442 -1.35612,-1.73054 -3.70835,-5.13513 -8.77692,-3.55768 -1.53636,0.51509 -2.19632,1.53452 -2.77785,2.21304 -2.57293,-3.18656 -0.92195,-7.81042 -7.68353,-9.87473 -4.85642,-0.85194 -8.43074,1.60683 -9.16096,3.54369 -1.01114,-2.83008 -2.39839,-6.98631 -9.33843,-7.66167 -6.84893,0.55731 -6.03024,4.77766 -7.28369,7.22306 -0.50672,3.57727 -1.16042,0.7155 -1.93641,-1.36825 0.83883,-2.76762 -7.10992,-3.15198 -9.16107,-1.00848 -2.88844,2.22193 -3.02849,4.92874 -4.40318,7.39555 -1.48459,-4.00023 -1.39277,-8.41385 -4.55103,-12.17187 -3.66038,-1.82266 -9.13151,0.52764 -9.13146,2.53524 -1.0494,2.36504 -1.6536,4.77858 -2.30504,7.15745 -1.46248,-2.61466 -1.12101,-6.02626 -5.37844,-7.94185 -5.93794,-1.08849 -8.58114,2.68089 -8.54454,4.78654 -1.04063,3.88618 -2.24761,7.76196 -3.36485,11.64337 -1.25676,-3.15508 -0.83933,-6.92692 -4.90558,-9.5806 -4.59306,-1.37274 -8.2915,1.4036 -8.68821,3.27759 -1.61555,-4.16199 -1.34863,-9.09041 -7.38796,-12.438 -5.0811,-1.3297 -7.98493,1.96908 -8.15627,3.87985 -0.96684,2.7824 -1.23307,-2.30136 -2.01068,-3.29997 -1.55371,-2.0656 0,-5.42337 -4.93395,-6.37869 -6.12624,-0.39093 -7.64914,3.40141 -8.18588,5.56068 -1.45726,4.33711 -1.5869,8.75381 -2.03904,13.13832 -0.5864,-1.93372 -1.92516,-5.57124 -7.62434,-4.44012 -5.13009,1.79689 -3.3584,5.44571 -4.96677,8.02221 -0.74313,3.33795 -1.14141,4.28152 -1.44602,0.2978 -0.75642,-4.6926 -1.6865,-9.37806 -3.48711,-14.00674 -5.46731,-1.75787 -10.85311,1.20781 -10.81594,3.72579 -0.30261,3.15193 -0.73932,1.31573 -0.85071,-0.82395 -1.08081,-6.91111 -1.54294,-13.95134 -4.79362,-20.69042 -1.76101,-1.82756 -8.5323,-2.01395 -8.92466,0.36418 -1.04323,4.05599 -1.55996,8.13655 -2.06862,12.21388 -1.03973,-5.42896 -0.94152,-11.10976 -4.40324,-16.2758 -3.40099,-1.97786 -9.34358,0.38848 -8.83596,2.45115 -2.68132,7.88621 -3.19082,15.92451 -3.95991,23.90951 -0.28259,-1.9408 -2.94676,-4.65757 -7.71307,-3.38964 -5.12084,2.11228 -3.32249,5.87875 -4.78741,8.72622 -0.43725,2.12113 -0.76191,6.20873 -1.32977,1.80686 -1.16118,-3.1578 -1.19718,-6.77982 -4.04865,-9.60862 -4.86653,-1.59739 -8.91308,1.399 -9.42694,3.41763 -0.64034,0.99603 -1.61311,4.98295 -1.65624,2.39608 -1.08864,-5.87202 -0.97631,-12.0062 -4.46104,-17.62142 -3.84022,-2.0163 -9.52854,0.61919 -8.94015,2.76885 -1.06055,3.2847 -1.64782,6.60626 -2.11222,9.93528 -0.82953,-4.34525 -0.83,-8.93428 -3.60532,-13.05429 -2.48489,-2.07214 -9.48862,-1.08604 -9.60426,1.26062 -1.64166,2.47183 -2.45749,5.05288 -3.103,7.61966 -1.0944,-2.7696 -0.50328,-6.07288 -3.78261,-8.43205 -4.06566,-1.4994 -8.63614,1.07282 -7.78514,3.03688 -1.43731,6.05797 -2.08603,12.15053 -2.61708,18.23936 -0.91616,-5.75818 -0.60373,-11.66596 -2.77786,-17.32633 -2.13579,-2.13992 -10.21585,-1.64662 -9.98854,0.92441 -1.15105,5.44172 -1.92827,10.89987 -2.57093,16.3599 -1.07475,-15.98151 -1.46151,-32.03796 -4.49188,-47.94506 -2.14152,-2.40374 -9.57712,-0.67725 -9.16105,1.49871 -2.46884,9.88057 -2.89788,19.84108 -3.39847,29.77834 -0.86048,-9.42893 -1.00195,-18.96305 -3.90086,-28.29361 -0.63028,-1.87488 -6.06602,-3.06226 -8.48132,-1.19059 -5.05729,5.71474 -2.92113,12.13764 -4.30422,18.17956 -0.85584,9.02876 -0.77509,18.79532 -1.96076,27.37035 -2.87157,-1.61088 -7.90623,-0.56236 -8.27448,1.40068 -0.48503,-0.94448 -0.40607,-4.83375 -0.67975,-6.87732 -0.86706,-8.46117 -1.24194,-17.04586 -3.98944,-25.3942 -1.42605,-1.87345 -7.89189,-1.88509 -8.42231,0.26612 -2.92555,7.83692 -3.06949,15.84844 -3.66441,23.79745 -1.11276,-18.26426 -1.46575,-36.64699 -4.7874,-54.80838 -0.15469,-1.51768 -2.95384,-3.19092 -6.35358,-2.47919 z"
       style="fill:#000000;fill-opacity:1;stroke:#000000;stroke-width:0.66266757;stroke-opacity:1;display:inline;filter:url(#filter4313)" />
  </g>
  <g
     style="display:none"
     id="g4203"
     inkscape:groupmode="layer"
     inkscape:label="modiefied speect"
     sodipodi:insensitive="true">
    <path
       style="fill:#ff0000;fill-opacity:1;stroke:none;display:inline;filter:url(#filter4271)"
       d="m 940.96875,246.84375 0,33.28125 -33.28125,0 0,44.4375 33.28125,0 0,88.75 55.5,0 0,-88.75 44.43745,0 0,-44.4375 -44.43745,0 0,-33.28125 -55.5,0 z M 72.53125,280.125 c -4.841415,0.36143 -9.393015,1.61361 -13.65625,3.78125 -4.19107,2.1679 -7.586213,5.34035 -10.1875,9.53125 -2.601362,4.11888 -3.906283,8.91467 -3.90625,14.40625 l 0,22.21875 c -3.3e-5,7.15372 2.439856,13.52987 7.28125,19.09375 4.841314,5.564 11.653089,8.43953 20.46875,8.65625 l -61,0 0,55.5 116.5,0 c 6.21415,0 11.3811,-1.23069 15.5,-3.6875 4.19089,-2.52906 7.26762,-5.87146 9.21875,-10.0625 2.02312,-4.26327 3.0311,-8.94184 3.03125,-14 l 0,-33.25 c -0.36144,-4.48 -1.83631,-8.76592 -4.4375,-12.8125 -2.5292,-4.04643 -6.2955,-7.46307 -11.28125,-10.28125 -4.986,-2.81802 -10.84253,-4.36713 -17.5625,-4.65625 l 55.5,0 0,-44.4375 -105.46875,0 z m 118.21875,0 0,168.625 c 2.27363,-0.0443 4.55079,0.34384 6.65625,1.375 2.97294,-0.67243 6.4383,-1.75561 9.78125,-1.84375 2.60008,-0.0686 5.1278,0.46743 7.28125,2.25 4.86591,-3.23639 12.01867,-2.69331 16.53125,1.125 3.99954,-2.93027 9.60079,-3.24441 13.6875,-0.3125 0.50387,-0.0793 1.02772,-0.13862 1.5625,-0.21875 l 0,-37.8125 44.71875,0 c 0.0167,-0.0908 0.0139,-0.19118 0.0312,-0.28125 -1.0243,-5.49716 4.23681,-8.74294 9.1875,-8.625 1.65023,0.0393 3.25221,0.45368 4.59375,1.28125 2.04223,2.16991 3.21853,4.79616 3.9375,7.625 l 20.78125,0 c 8.30965,0 15.0257,-2.5786 20.15625,-7.78125 5.05797,-4.98587 7.59359,-11.65894 7.59375,-19.96875 l 0,-77.71875 c -1.6e-4,-5.6361 -1.20937,-10.50611 -3.59375,-14.625 -2.16793,-4.11864 -5.34038,-7.29109 -9.53125,-9.53125 -4.11892,-2.38442 -8.98893,-3.56237 -14.625,-3.5625 l -138.75,0 z m 207,0 c -4.84138,0.36143 -9.39298,1.61361 -13.65625,3.78125 -4.19103,2.1679 -7.58618,5.34035 -10.1875,9.53125 C 371.30492,297.55638 370,302.35217 370,307.84375 l 0,77.71875 c 0,7.22593 2.38715,13.67631 7.15625,19.3125 4.76909,5.63622 11.63361,8.4375 20.59375,8.4375 l 60.84375,0 c 0.30334,-3.41276 0.67579,-6.80141 1.1875,-10.09375 -0.63779,-5.73732 2.18731,-13.40884 9.03125,-13.1875 2.76648,-0.14666 5.6297,0.75975 7.5625,2.8125 2.69092,6.34872 3.46929,13.41187 4,20.46875 l 24.09375,0 c 2.95489,-6.07377 12.74543,-7.81173 17.0625,-2.03125 1.43786,-3.06033 5.31604,-5.34101 9.25,-5.59375 1.98141,-0.1273 3.98442,0.28993 5.6875,1.34375 l 0,-49.21875 -55.5,0 55.5,-22.21875 0,-27.75 c -0.36146,-3.97414 -1.91057,-8.10184 -4.65625,-12.4375 -2.746,-4.33542 -6.21538,-7.95326 -10.40625,-10.84375 -4.11891,-2.96249 -8.3521,-4.43737 -12.6875,-4.4375 l -110.96875,0 z m 179.21875,0 c -4.84139,0.36143 -9.39298,1.61361 -13.65625,3.78125 -4.19104,2.1679 -7.58618,5.34035 -10.1875,9.53125 -2.60133,4.11888 -3.90625,8.91467 -3.90625,14.40625 l 0,77.71875 c 0,7.22593 2.38714,13.67631 7.15625,19.3125 4.76908,5.63622 11.6336,8.4375 20.59375,8.4375 l 138.75,0 0,-55.5 -55.5,0 55.5,-22.21875 0,-27.75 c -0.36147,-3.97414 -1.91057,-8.10184 -4.65625,-12.4375 -2.746,-4.33542 -6.21538,-7.95326 -10.40625,-10.84375 -4.11892,-2.96249 -8.3521,-4.43737 -12.6875,-4.4375 l -111,0 z m 179.25,0 c -8.45433,1.3e-4 -15.17038,2.57873 -20.15625,7.78125 -5.05814,5.05826 -7.59375,11.92277 -7.59375,20.59375 l 0,77.0625 c 0,8.09303 2.5571,14.7661 7.6875,19.96875 5.20264,5.20265 12.19413,7.78125 20.9375,7.78125 l 137.84375,0 0,-55.5 -110.96875,0 0,-22.21875 110.96875,0 0,-55.46875 -138.71875,0 z M 246.25,335.59375 l 55.5,0 0,33.28125 -55.5,0 0,-33.28125 z m 179.25,0 55.46875,0 -55.46875,22.21875 0,-22.21875 z m 179.21875,0 55.5,0 -55.5,22.21875 0,-22.21875 z m -412.9375,127.75 c -0.32457,0.33953 -0.66757,0.66187 -1.03125,0.96875 l 0,37.78125 55.5,0 0,-35.71875 c -2.75931,0.38413 -5.50724,0.79224 -8.0625,-0.6875 -5.17064,0.77071 -11.57843,1.99907 -16.5625,-1.21875 -4.85217,3.11283 -12.82308,4.04813 -17.21875,-0.96875 -3.65866,0.57417 -8.6645,1.83378 -12.625,-0.15625 z"
       id="path4205"
       inkscape:connector-curvature="0" />
  </g>
  <g
     inkscape:label="combined"
     inkscape:groupmode="layer"
     id="g4455"
     style="display:inline"
     sodipodi:insensitive="true">
    <g
       id="g4460">
      <path
         style="fill:#ff0000;fill-opacity:1;stroke:none;display:inline;filter:url(#filter4271)"
         d="m 940.96875,246.84375 0,33.28125 -33.28125,0 0,44.4375 33.28125,0 0,88.75 55.5,0 0,-88.75 44.43745,0 0,-44.4375 -44.43745,0 0,-33.28125 -55.5,0 z M 72.53125,280.125 c -4.841415,0.36143 -9.393015,1.61361 -13.65625,3.78125 -4.19107,2.1679 -7.586213,5.34035 -10.1875,9.53125 -2.601362,4.11888 -3.906283,8.91467 -3.90625,14.40625 l 0,22.21875 c -3.3e-5,7.15372 2.439856,13.52987 7.28125,19.09375 4.841314,5.564 11.653089,8.43953 20.46875,8.65625 l -61,0 0,55.5 116.5,0 c 6.21415,0 11.3811,-1.23069 15.5,-3.6875 4.19089,-2.52906 7.26762,-5.87146 9.21875,-10.0625 2.02312,-4.26327 3.0311,-8.94184 3.03125,-14 l 0,-33.25 c -0.36144,-4.48 -1.83631,-8.76592 -4.4375,-12.8125 -2.5292,-4.04643 -6.2955,-7.46307 -11.28125,-10.28125 -4.986,-2.81802 -10.84253,-4.36713 -17.5625,-4.65625 l 55.5,0 0,-44.4375 -105.46875,0 z m 118.21875,0 0,168.625 c 2.27363,-0.0443 4.55079,0.34384 6.65625,1.375 2.97294,-0.67243 6.4383,-1.75561 9.78125,-1.84375 2.60008,-0.0686 5.1278,0.46743 7.28125,2.25 4.86591,-3.23639 12.01867,-2.69331 16.53125,1.125 3.99954,-2.93027 9.60079,-3.24441 13.6875,-0.3125 0.50387,-0.0793 1.02772,-0.13862 1.5625,-0.21875 l 0,-37.8125 44.71875,0 c 0.0167,-0.0908 0.0139,-0.19118 0.0312,-0.28125 -1.0243,-5.49716 4.23681,-8.74294 9.1875,-8.625 1.65023,0.0393 3.25221,0.45368 4.59375,1.28125 2.04223,2.16991 3.21853,4.79616 3.9375,7.625 l 20.78125,0 c 8.30965,0 15.0257,-2.5786 20.15625,-7.78125 5.05797,-4.98587 7.59359,-11.65894 7.59375,-19.96875 l 0,-77.71875 c -1.6e-4,-5.6361 -1.20937,-10.50611 -3.59375,-14.625 -2.16793,-4.11864 -5.34038,-7.29109 -9.53125,-9.53125 -4.11892,-2.38442 -8.98893,-3.56237 -14.625,-3.5625 l -138.75,0 z m 207,0 c -4.84138,0.36143 -9.39298,1.61361 -13.65625,3.78125 -4.19103,2.1679 -7.58618,5.34035 -10.1875,9.53125 C 371.30492,297.55638 370,302.35217 370,307.84375 l 0,77.71875 c 0,7.22593 2.38715,13.67631 7.15625,19.3125 4.76909,5.63622 11.63361,8.4375 20.59375,8.4375 l 60.84375,0 c 0.30334,-3.41276 0.67579,-6.80141 1.1875,-10.09375 -0.63779,-5.73732 2.18731,-13.40884 9.03125,-13.1875 2.76648,-0.14666 5.6297,0.75975 7.5625,2.8125 2.69092,6.34872 3.46929,13.41187 4,20.46875 l 24.09375,0 c 2.95489,-6.07377 12.74543,-7.81173 17.0625,-2.03125 1.43786,-3.06033 5.31604,-5.34101 9.25,-5.59375 1.98141,-0.1273 3.98442,0.28993 5.6875,1.34375 l 0,-49.21875 -55.5,0 55.5,-22.21875 0,-27.75 c -0.36146,-3.97414 -1.91057,-8.10184 -4.65625,-12.4375 -2.746,-4.33542 -6.21538,-7.95326 -10.40625,-10.84375 -4.11891,-2.96249 -8.3521,-4.43737 -12.6875,-4.4375 l -110.96875,0 z m 179.21875,0 c -4.84139,0.36143 -9.39298,1.61361 -13.65625,3.78125 -4.19104,2.1679 -7.58618,5.34035 -10.1875,9.53125 -2.60133,4.11888 -3.90625,8.91467 -3.90625,14.40625 l 0,77.71875 c 0,7.22593 2.38714,13.67631 7.15625,19.3125 4.76908,5.63622 11.6336,8.4375 20.59375,8.4375 l 138.75,0 0,-55.5 -55.5,0 55.5,-22.21875 0,-27.75 c -0.36147,-3.97414 -1.91057,-8.10184 -4.65625,-12.4375 -2.746,-4.33542 -6.21538,-7.95326 -10.40625,-10.84375 -4.11892,-2.96249 -8.3521,-4.43737 -12.6875,-4.4375 l -111,0 z m 179.25,0 c -8.45433,1.3e-4 -15.17038,2.57873 -20.15625,7.78125 -5.05814,5.05826 -7.59375,11.92277 -7.59375,20.59375 l 0,77.0625 c 0,8.09303 2.5571,14.7661 7.6875,19.96875 5.20264,5.20265 12.19413,7.78125 20.9375,7.78125 l 137.84375,0 0,-55.5 -110.96875,0 0,-22.21875 110.96875,0 0,-55.46875 -138.71875,0 z M 246.25,335.59375 l 55.5,0 0,33.28125 -55.5,0 0,-33.28125 z m 179.25,0 55.46875,0 -55.46875,22.21875 0,-22.21875 z m 179.21875,0 55.5,0 -55.5,22.21875 0,-22.21875 z m -412.9375,127.75 c -0.32457,0.33953 -0.66757,0.66187 -1.03125,0.96875 l 0,37.78125 55.5,0 0,-35.71875 c -2.75931,0.38413 -5.50724,0.79224 -8.0625,-0.6875 -5.17064,0.77071 -11.57843,1.99907 -16.5625,-1.21875 -4.85217,3.11283 -12.82308,4.04813 -17.21875,-0.96875 -3.65866,0.57417 -8.6645,1.83378 -12.625,-0.15625 z"
         id="path4457"
         inkscape:connector-curvature="0" />
      <path
         inkscape:connector-curvature="0"
         id="path4453"
         d="m 467.66899,394.18274 c -5.43958,2.10395 -2.54153,5.94646 -4.00285,8.80635 -2.18552,20.26828 -2.70193,40.56802 -4.95138,60.83516 -1.27939,-3.12093 -0.59338,-7.21809 -6.38317,-9.38449 -2.52018,-0.65346 -5.64065,0.22032 -6.38319,1.44267 -1.10644,-2.59845 -0.75273,-6.08839 -5.73305,-7.77376 -4.79323,-1.16822 -10.15107,1.23026 -9.36757,3.58028 -0.65809,0.58183 -0.88259,-4.00165 -1.48413,-5.50746 -1.20399,-2.62517 -0.54006,-5.82477 -3.68775,-8.03159 -4.91165,-1.49252 -8.53664,1.62289 -8.03837,3.65023 -1.11721,3.37089 -1.87261,6.75063 -2.48207,10.16042 -1.06387,-2.80811 -0.35925,-6.10548 -3.78263,-8.54411 -3.93704,-1.73409 -10.07277,0.25182 -9.6339,2.59124 -1.10243,2.85307 -1.87095,5.69489 -2.33451,8.58613 -0.84202,-5.73146 -0.82121,-11.63517 -4.19635,-17.15825 -3.22726,-2.03279 -9.44408,0.14577 -8.37086,2.30712 -1.44613,4.96409 -2.18514,10.01097 -2.71112,15.03322 -0.96637,-9.74292 -1.2874,-19.60207 -3.98942,-29.24609 -1.58191,-2.15489 -8.85809,-1.64644 -8.83074,0.70406 -2.09237,4.66752 -2.77118,9.43788 -3.2264,14.19913 -0.80476,-11.22167 -0.95681,-22.52904 -3.0439,-33.68622 -2.05298,-2.31217 -9.95263,-1.28879 -9.63272,1.19674 -4.09745,12.58949 -2.4778,25.41723 -4.40325,38.10327 -0.33317,2.0957 -0.28835,4.57424 -0.82851,6.47405 -2.78892,-1.05831 -9.29561,-1.93494 -10.43181,0.42018 -1.33441,3.72421 -2.07809,7.48259 -2.63007,11.26143 -1.02027,-8.03418 -1.14027,-16.18376 -3.72352,-24.11962 -2.59363,-2.39504 -9.52816,-0.21161 -8.92463,1.90493 -1.64177,5.00441 -2.35612,10.08361 -2.86657,15.15529 -0.8073,-7.3046 -1.18852,-14.77033 -4.93509,-21.85053 -1.56274,-1.80895 -7.88405,-1.96506 -8.57002,0.21006 -0.92743,3.56395 -1.00363,1.88253 -1.12722,-0.92394 -0.84062,-8.34295 -0.76013,-16.80737 -3.57155,-25.04456 -2.15678,-2.01072 -8.93684,-0.76779 -8.12671,1.38667 -2.21633,15.75858 -2.1491,31.5604 -2.95518,47.34279 -1.10935,-7.66017 -1.37933,-15.48013 -4.72828,-22.97108 -2.77634,-2.15278 -10.05951,-0.47668 -8.9843,1.90137 -1.70738,5.93126 -2.5317,11.95178 -3.19104,17.94621 -0.8194,-8.83369 -0.90631,-17.80519 -3.78262,-26.51478 -2.91462,-2.27554 -9.78236,-0.0269 -8.42229,2.18505 -2.14731,6.68451 -1.03663,13.68191 -3.60532,20.25375 -1.82626,1.05984 -1.61179,2.69644 -4.25545,3.34762 -0.56731,1.30387 -3.41428,1.66961 -5.11242,0.61628 -2.68179,-1.04889 -6.4173,2.12926 -7.59485,-0.18214 -1.63749,-1.88113 -7.59156,-1.95177 -8.92462,0.0703 -1.06483,0.61066 -2.71179,1.30919 -3.45755,1.8909 -1.13371,-2.26506 -5.83732,-5.42407 -11.31834,-4.132 -2.15232,0.94582 -3.41043,3.45317 -5.34883,3.54373 -0.11926,-2.03938 -3.0805,-4.69759 -8.18588,-3.79584 -3.26621,0.15448 -5.82344,2.11831 -7.71298,2.38116 -2.82204,-2.22033 -10.76922,-3.01586 -13.5052,-0.32217 -1.46833,0.73523 -2.39337,3.04777 -3.69392,2.84336 -2.05881,-2.31029 -10.0374,-3.42886 -12.50046,-0.71433 -0.99463,1.46659 -1.88101,1.3275 -3.3689,0.0702 -2.61539,-1.97075 -9.35216,-2.32593 -11.64339,-0.0279 -1.54398,1.13477 -3.29222,-1.71809 -5.34883,-2.04499 -4.03001,-1.79364 -9.52134,0.27862 -12.26402,1.30264 -3.01713,-2.1637 -10.89595,-3.32102 -13.97797,-0.56027 -1.38471,1.50511 -3.78262,-0.83135 -6.35366,-0.57427 -3.65223,-0.54081 -7.61716,0.61043 -10.63865,1.00847 -4.756253,-1.55468 -10.677869,-0.35938 -14.214332,1.28863 -2.553278,-0.6277 -5.695396,-1.04186 -8.865525,-0.74237 -6.288521,0.65604 -12.054192,-1.10456 -18.381199,-0.37817 -5.393002,-0.0915 -11.082827,-0.0128 -16.5786,-0.18215 -9.624414,-0.0695 -19.676562,-0.47358 -29.167562,0.0702 -4.050233,0.55651 -4.282407,3.62595 0.472828,3.76781 13.94561,-0.28914 27.946238,-0.029 41.874828,0.22417 4.328651,0.4222 8.973134,-0.73148 12.914169,0.53226 4.905029,0.52116 10.231629,-0.8394 14.657692,0.56026 4.57461,0.76718 9.048392,-0.9423 12.529942,-1.62478 3.661739,1.89878 8.943429,0.71519 12.411719,-0.58829 2.19507,-0.19213 3.4453,1.36865 5.82166,1.42868 3.75758,0.88717 8.56198,-0.50583 10.13631,-1.63878 2.37434,2.1673 8.84226,2.95864 12.58904,1.03652 2.98042,-2.13861 4.72621,0.9116 7.77206,1.62474 3.22914,1.45902 8.40473,0.36322 10.34315,-0.85437 2.27667,2.17434 9.21635,3.81903 13.03237,1.54074 1.42009,-0.70637 2.09102,-1.73357 3.16198,-0.28015 2.00839,1.96669 8.83245,3.53045 11.28877,0.89643 1.86098,-1.38973 2.92257,-3.04588 4.43278,-4.46814 1.79939,2.1131 7.95362,3.4458 11.70251,1.51272 1.45612,-0.34071 2.76084,-2.58082 3.2507,-0.99447 1.5765,1.85346 3.72058,5.3584 9.04283,4.58018 2.91527,-0.87098 4.39012,-2.51244 6.50139,-3.72579 1.12551,-1.27699 0.87492,1.60437 2.89607,1.93295 2.95962,0.82548 6.92384,2.26941 10.1658,0.75637 2.46158,-0.21854 4.14001,-2.02293 5.58535,-0.11197 2.16547,1.488 6.75012,0.75874 8.39271,-0.47624 2.87223,-0.12938 4.08616,1.94151 7.32884,1.07852 2.56574,-0.84456 4.63228,-1.26639 6.6491,-2.25509 2.66429,-0.46475 3.03905,-1.88076 4.16684,-2.77334 1.05773,11.60141 1.48533,23.23613 4.37368,34.77873 3.61959,2.43211 11.47779,0.10812 10.31352,-2.4932 1.3515,-8.1913 2.03817,-16.40225 2.77784,-24.60982 1.31267,9.2572 1.843,18.63812 4.7283,27.78937 2.05509,2.11928 9.30033,1.1406 8.57361,-1.22889 2.7616,-7.88358 3.99094,-15.897 3.98574,-23.9123 0.47264,-2.371 -1.01262,-2.6831 2.12793,-0.93936 5.40736,1.23533 8.7265,-2.27007 8.36308,-4.3421 0.55436,-2.06479 0.93386,-5.54705 1.04657,-1.44314 0.95485,8.07378 1.04913,16.32841 4.47967,24.21811 2.26742,2.13269 9.36163,0.97966 9.15925,-1.30597 1.33326,-2.97624 2.15857,-5.98689 2.69095,-9.01702 0.92742,4.53769 0.705,9.29206 3.48713,13.64257 2.00043,2.05487 9.11671,1.62668 9.10195,-0.84039 3.37134,-6.85624 3.06722,-13.9628 4.63967,-20.94008 1.21282,1.9941 0.92599,5.82209 6.91512,5.81278 5.94797,-0.68457 4.18017,-4.26716 4.69867,-6.33104 0.70198,-4.62856 1.28458,-9.26086 1.80272,-13.89467 0.92305,11.83115 1.07463,23.75899 3.78261,35.50708 2.44054,2.44794 10.08033,0.4897 9.42696,-1.77886 1.62929,-8.0175 2.03025,-16.07396 2.60056,-24.11961 0.8912,10.24691 2.03382,20.49379 4.13725,30.70279 7.84338,-1.80567 10.89389,-5.95559 10.71628,-9.88331 0.75218,-4.18288 1.24469,-8.37577 1.63636,-12.56951 1.04732,3.53822 0.9243,7.37672 3.98956,10.65911 2.25471,1.73137 9.01076,1.41714 8.92464,-0.89643 1.51085,-5.72337 2.08186,-11.48869 2.83693,-17.24226 1.11354,3.45018 0.69008,7.33265 3.63482,10.449 4.98987,1.671 9.43313,-1.48998 9.16684,-3.64979 1.14699,-3.00867 1.9282,-6.69999 2.53569,-9.32042 1.1292,3.3039 0.99842,7.14364 4.01903,10.02882 10.26634,1.42929 10.11323,-6.2639 11.05235,-9.25847 0.75692,2.88441 1.81644,5.75932 3.84175,8.50212 3.17324,0.2134 6.55255,-0.41026 8.12679,-1.77887 1.90689,8.88179 1.82642,17.9818 5.37842,26.71087 2.57511,2.02776 8.73777,0.16267 8.06759,-1.83492 3.08352,-14.36453 4.76089,-28.78631 5.96943,-43.21081 0.96714,17.42523 1.4431,34.92285 3.98956,52.28717 0.52937,1.98646 6.72108,2.87912 8.48131,0.84042 3.67357,-8.37291 2.74243,-17.04115 4.11994,-25.54647 0.27255,-3.16577 0.51556,-6.33205 0.75615,-9.49842 0.92664,8.78366 1.32666,17.72601 4.66918,26.34669 1.93641,2.04336 9.57316,1.09292 8.45181,-1.21858 1.68441,-6.08617 2.02351,-13.20836 3.45748,-18.67099 3.0507,1.96174 8.82471,0.0602 8.39275,-2.01697 1.17409,-6.24499 1.63692,-12.62213 2.0686,-18.93709 0.79964,7.30468 0.70821,14.74585 3.2507,21.94854 0.84504,2.00129 7.0508,3.20334 9.36794,1.10655 4.00308,-4.98617 2.66799,-10.49239 3.87124,-15.72958 0.87189,14.41078 1.32903,28.8945 3.84174,43.2388 0.63425,2.22577 8.54136,3.43606 9.72259,0.72835 1.7624,-3.83181 0.45543,-7.89612 1.59259,-11.80296 0.60332,-5.9124 1.19747,-11.82497 1.8058,-17.73726 0.98113,5.50819 1.11646,11.17989 3.81223,16.52798 2.96106,2.30927 10.36837,0.42675 9.47105,-2.00029 1.48495,-6.68951 2.26379,-13.4099 2.79292,-20.13037 0.52613,1.76929 0.63742,5.50382 6.35366,4.84634 5.83411,-1.26636 3.65693,-5.07412 5.12753,-7.4435 0.8315,-3.49716 1.39776,-7.67871 1.93529,-10.76527 1.02225,5.15264 1.45802,10.56173 5.61484,15.3794 2.7512,1.82529 8.95405,0.56221 8.62914,-1.61077 0.77239,-1.76489 1.31179,-3.52331 1.71397,-5.29456 0.99398,4.98439 0.79001,10.20205 3.93045,14.95921 3.14959,1.93714 9.33626,-0.1504 8.74731,-2.22708 1.32721,-3.86866 2.05376,-7.77286 2.71875,-11.6816 1.1539,3.85982 1.27239,8.06928 4.19635,11.65358 4.51563,1.64139 10.74892,-1.06503 11.22969,-3.12349 0.73817,-2.08262 1.23305,-4.16122 1.56619,-6.27503 1.16353,2.18521 1.07049,5.30238 5.79215,6.47112 5.00112,0.50172 6.60163,-2.52442 6.12142,-4.30922 1.0091,-5.89395 1.54643,-11.8031 2.12357,-17.70938 0.94954,4.27282 0.79039,8.78747 3.66444,12.83018 4.10519,2.15752 11.00205,-0.5527 9.969,-3.0073 0.65194,-2.07461 1.06645,-4.2031 1.52658,-6.30717 1.24496,6.95561 1.28033,14.13605 3.81221,20.94006 3.67484,2.17214 9.92166,-0.32757 9.51569,-2.53523 0.83247,-2.1673 1.49092,-4.33208 1.97991,-6.51311 1.10735,5.4357 1.08827,11.09725 4.63968,16.28984 2.21399,1.94785 9.71389,1.63107 9.48607,-0.84044 1.32979,-4.44595 2.09879,-8.94858 3.04388,-13.43243 2.43051,1.95547 0.0454,4.9801 4.58049,6.275 4.48316,1.08142 7.71382,-1.47878 6.94469,-3.38961 1.52887,-4.95115 2.18911,-9.96374 2.89609,-14.95922 1.07529,1.5612 -0.19719,4.4236 3.45753,4.93038 7.11208,0.28318 9.35177,-3.94701 10.60911,-6.49913 1.11096,3.3993 1.42379,7.84689 8.00848,9.95878 2.21614,0.48651 5.05149,0.0671 6.26497,-0.93844 1.45064,4.51775 2.25664,9.33533 6.91511,13.34843 3.8634,1.65361 8.7765,-0.82548 7.89036,-2.81535 1.40549,-5.23496 2.71497,-10.92248 4.3441,-15.86966 1.83798,2.15089 3.39689,5.35587 8.65867,5.9949 5.60218,-0.23622 4.46247,-3.66853 5.85126,-5.53265 1.2983,2.81652 1.5549,6.36799 6.44233,8.362 3.62159,0.94887 7.50808,-0.73719 7.2697,-2.50719 1.21374,-1.59452 1.93954,-4.53107 2.83698,-5.33655 0.85449,2.17073 3.26033,5.93181 9.36787,5.01439 6.72366,-1.41188 4.56041,-5.61553 6.06623,-8.33165 0.15665,-2.64999 0.72761,-1.09762 1.9128,0.43185 1.39873,2.03418 7.12643,4.32165 11.08191,2.29711 1.60883,-0.79695 1.79655,-1.92727 2.24596,-2.94141 1.54168,3.38115 2.58357,7.76045 9.19053,9.66463 3.27001,0.50056 5.46076,-1.48243 6.38323,-2.143 1.98186,2.50237 11.36623,2.75936 12.79592,-0.14015 0.87955,-1.07483 1.33148,-2.22907 2.33455,-3.27757 -0.10042,2.67877 5.59422,7.02267 11.61389,4.44016 3.50494,-2.22407 3.34046,-5.49734 4.99425,-7.82979 0.90274,2.36983 5.80663,4.02494 10.60907,4.18805 3.94945,-0.66848 2.64885,-3.18358 5.43754,-4.41215 1.28893,1.7394 4.74229,5.01204 9.3679,3.5857 1.60574,-0.4815 3.02494,-1.82396 3.69396,-0.26611 1.64302,1.88987 6.29366,2.72308 10.10668,1.79288 3.27377,-0.18573 5.24419,-2.01876 8.30405,-2.14305 3.25862,1.56118 9.23236,1.75641 11.70256,-0.33613 1.62579,-0.90865 2.28924,-2.29003 4.93513,-1.2326 4.06493,0.84104 8.53309,0.0792 12.29354,-0.44823 3.24325,2.56437 11.27995,2.92384 15.78066,1.09254 5.16364,2.19709 11.96526,0.49658 17.61277,-0.0154 6.41672,0.75574 13.25171,0.61361 19.77028,0.57428 3.59008,-0.66176 7.29707,-0.81358 10.72721,0 6.7604,0.29633 13.4986,-1.32802 20.1251,-0.15397 5.378,-0.0542 10.7245,-0.60232 16.0465,-0.14014 4.9664,0.26438 9.083,-3.00272 3.2211,-4.07598 -7.2816,0.0525 -14.7054,0.22904 -21.8683,0.0129 -6.9855,-0.83226 -14.3191,1.45197 -21.01142,-0.15399 -5.41926,-0.0264 -10.60104,1.06555 -15.92842,0.61631 -7.13172,-0.30385 -14.83793,-1.06339 -21.60234,0.49022 -3.71307,-0.88434 -8.48418,-2.17109 -12.26416,-0.60227 -2.28029,1.43114 -3.38145,-0.81334 -5.79211,-0.98048 -4.38181,-1.28624 -9.37166,-0.26828 -13.80066,0.0561 -3.7505,-2.49405 -11.42139,-1.24493 -14.12573,1.10652 -1.10784,1.13845 -3.94221,-0.61891 -6.17632,-0.14014 -3.71005,0.28693 -6.90989,1.30152 -9.89985,2.33915 -1.03497,-2.41907 -7.14,-4.85757 -11.99803,-2.92738 -2.04018,0.4151 -1.86776,-2.00238 -3.04377,-2.71733 -1.732,-2.44083 -8.48605,-1.72937 -11.7321,-0.50425 -1.39562,0.73001 -1.15281,2.5048 -2.51193,2.74533 -2.11579,-2.32371 -2.6449,-5.98427 -8.5404,-6.8773 -5.21618,-0.32514 -6.42377,2.59422 -6.85601,4.42609 -0.94377,0.93236 -0.94567,4.44916 -2.15729,3.78186 -1.20338,-2.36246 -8.82869,-3.84253 -11.82068,-1.48472 -1.86441,1.59714 -2.96004,3.36296 -4.19636,5.08442 -1.35612,-1.73054 -3.70835,-5.13513 -8.77692,-3.55768 -1.53636,0.51509 -2.19632,1.53452 -2.77785,2.21304 -2.57293,-3.18656 -0.92195,-7.81042 -7.68353,-9.87473 -4.85642,-0.85194 -8.43074,1.60683 -9.16096,3.54369 -1.01114,-2.83008 -2.39839,-6.98631 -9.33843,-7.66167 -6.84893,0.55731 -6.03024,4.77766 -7.28369,7.22306 -0.50672,3.57727 -1.16042,0.7155 -1.93641,-1.36825 0.83883,-2.76762 -7.10992,-3.15198 -9.16107,-1.00848 -2.88844,2.22193 -3.02849,4.92874 -4.40318,7.39555 -1.48459,-4.00023 -1.39277,-8.41385 -4.55103,-12.17187 -3.66038,-1.82266 -9.13151,0.52764 -9.13146,2.53524 -1.0494,2.36504 -1.6536,4.77858 -2.30504,7.15745 -1.46248,-2.61466 -1.12101,-6.02626 -5.37844,-7.94185 -5.93794,-1.08849 -8.58114,2.68089 -8.54454,4.78654 -1.04063,3.88618 -2.24761,7.76196 -3.36485,11.64337 -1.25676,-3.15508 -0.83933,-6.92692 -4.90558,-9.5806 -4.59306,-1.37274 -8.2915,1.4036 -8.68821,3.27759 -1.61555,-4.16199 -1.34863,-9.09041 -7.38796,-12.438 -5.0811,-1.3297 -7.98493,1.96908 -8.15627,3.87985 -0.96684,2.7824 -1.23307,-2.30136 -2.01068,-3.29997 -1.55371,-2.0656 0,-5.42337 -4.93395,-6.37869 -6.12624,-0.39093 -7.64914,3.40141 -8.18588,5.56068 -1.45726,4.33711 -1.5869,8.75381 -2.03904,13.13832 -0.5864,-1.93372 -1.92516,-5.57124 -7.62434,-4.44012 -5.13009,1.79689 -3.3584,5.44571 -4.96677,8.02221 -0.74313,3.33795 -1.14141,4.28152 -1.44602,0.2978 -0.75642,-4.6926 -1.6865,-9.37806 -3.48711,-14.00674 -5.46731,-1.75787 -10.85311,1.20781 -10.81594,3.72579 -0.30261,3.15193 -0.73932,1.31573 -0.85071,-0.82395 -1.08081,-6.91111 -1.54294,-13.95134 -4.79362,-20.69042 -1.76101,-1.82756 -8.5323,-2.01395 -8.92466,0.36418 -1.04323,4.05599 -1.55996,8.13655 -2.06862,12.21388 -1.03973,-5.42896 -0.94152,-11.10976 -4.40324,-16.2758 -3.40099,-1.97786 -9.34358,0.38848 -8.83596,2.45115 -2.68132,7.88621 -3.19082,15.92451 -3.95991,23.90951 -0.28259,-1.9408 -2.94676,-4.65757 -7.71307,-3.38964 -5.12084,2.11228 -3.32249,5.87875 -4.78741,8.72622 -0.43725,2.12113 -0.76191,6.20873 -1.32977,1.80686 -1.16118,-3.1578 -1.19718,-6.77982 -4.04865,-9.60862 -4.86653,-1.59739 -8.91308,1.399 -9.42694,3.41763 -0.64034,0.99603 -1.61311,4.98295 -1.65624,2.39608 -1.08864,-5.87202 -0.97631,-12.0062 -4.46104,-17.62142 -3.84022,-2.0163 -9.52854,0.61919 -8.94015,2.76885 -1.06055,3.2847 -1.64782,6.60626 -2.11222,9.93528 -0.82953,-4.34525 -0.83,-8.93428 -3.60532,-13.05429 -2.48489,-2.07214 -9.48862,-1.08604 -9.60426,1.26062 -1.64166,2.47183 -2.45749,5.05288 -3.103,7.61966 -1.0944,-2.7696 -0.50328,-6.07288 -3.78261,-8.43205 -4.06566,-1.4994 -8.63614,1.07282 -7.78514,3.03688 -1.43731,6.05797 -2.08603,12.15053 -2.61708,18.23936 -0.91616,-5.75818 -0.60373,-11.66596 -2.77786,-17.32633 -2.13579,-2.13992 -10.21585,-1.64662 -9.98854,0.92441 -1.15105,5.44172 -1.92827,10.89987 -2.57093,16.3599 -1.07475,-15.98151 -1.46151,-32.03796 -4.49188,-47.94506 -2.14152,-2.40374 -9.57712,-0.67725 -9.16105,1.49871 -2.46884,9.88057 -2.89788,19.84108 -3.39847,29.77834 -0.86048,-9.42893 -1.00195,-18.96305 -3.90086,-28.29361 -0.63028,-1.87488 -6.06602,-3.06226 -8.48132,-1.19059 -5.05729,5.71474 -2.92113,12.13764 -4.30422,18.17956 -0.85584,9.02876 -0.77509,18.79532 -1.96076,27.37035 -2.87157,-1.61088 -7.90623,-0.56236 -8.27448,1.40068 -0.48503,-0.94448 -0.40607,-4.83375 -0.67975,-6.87732 -0.86706,-8.46117 -1.24194,-17.04586 -3.98944,-25.3942 -1.42605,-1.87345 -7.89189,-1.88509 -8.42231,0.26612 -2.92555,7.83692 -3.06949,15.84844 -3.66441,23.79745 -1.11276,-18.26426 -1.46575,-36.64699 -4.7874,-54.80838 -0.15469,-1.51768 -2.95384,-3.19092 -6.35358,-2.47919 z"
         style="fill:#000000;fill-opacity:1;stroke:#000000;stroke-width:0.66266757;stroke-opacity:1;display:inline;filter:url(#filter4313)" />
    </g>
  </g>
</svg>
