<?xml version="1.0" encoding="UTF-8" standalone="no"?>
<!-- Created with Inkscape (http://www.inkscape.org/) -->

<svg
   xmlns:dc="http://purl.org/dc/elements/1.1/"
   xmlns:cc="http://creativecommons.org/ns#"
   xmlns:rdf="http://www.w3.org/1999/02/22-rdf-syntax-ns#"
   xmlns:svg="http://www.w3.org/2000/svg"
   xmlns="http://www.w3.org/2000/svg"
   xmlns:sodipodi="http://sodipodi.sourceforge.net/DTD/sodipodi-0.dtd"
   xmlns:inkscape="http://www.inkscape.org/namespaces/inkscape"
   width="297mm"
   height="210mm"
   id="svg3031"
   version="1.1"
   inkscape:version="0.48.1 r9760"
   style="display:inline"
   sodipodi:docname="speect_logo.svg">
  <title
     id="title3011">Speect logo</title>
  <defs
     id="defs3033">
    <filter
       id="filter4068"
       inkscape:label="Combined lighting"
       inkscape:menu="Bevels"
       inkscape:menu-tooltip="Basic specular bevel to use for building textures"
       color-interpolation-filters="sRGB">
      <feGaussianBlur
         id="feGaussianBlur4070"
         stdDeviation="6"
         in="SourceGraphic"
         result="result0" />
      <feDiffuseLighting
         id="feDiffuseLighting4072"
         lighting-color="rgb(255,255,255)"
         diffuseConstant="1"
         surfaceScale="4"
         result="result5">
        <feDistantLight
           id="feDistantLight4074"
           elevation="45"
           azimuth="235" />
      </feDiffuseLighting>
      <feComposite
         id="feComposite4076"
         in2="SourceGraphic"
         k1="1.4"
         in="result5"
         result="fbSourceGraphic"
         operator="arithmetic" />
      <feGaussianBlur
         id="feGaussianBlur4078"
         result="result0"
         in="fbSourceGraphic"
         stdDeviation="6" />
      <feSpecularLighting
         id="feSpecularLighting4080"
         specularExponent="25"
         specularConstant="1"
         surfaceScale="4"
         lighting-color="rgb(255,255,255)"
         result="result1"
         in="result0">
        <feDistantLight
           id="feDistantLight4082"
           azimuth="235"
           elevation="45" />
      </feSpecularLighting>
      <feComposite
         id="feComposite4084"
         in2="result1"
         k3="1"
         k2="1"
         operator="arithmetic"
         result="result4"
         in="fbSourceGraphic" />
      <feComposite
         id="feComposite4086"
         in2="SourceGraphic"
         operator="in"
         result="result2"
         in="result4" />
    </filter>
    <filter
       id="filter4544"
       inkscape:label="Combined lighting"
       inkscape:menu="Bevels"
       inkscape:menu-tooltip="Basic specular bevel to use for building textures"
       color-interpolation-filters="sRGB">
      <feGaussianBlur
         id="feGaussianBlur4546"
         stdDeviation="6"
         in="SourceGraphic"
         result="result0" />
      <feDiffuseLighting
         id="feDiffuseLighting4548"
         lighting-color="rgb(255,255,255)"
         diffuseConstant="1"
         surfaceScale="4"
         result="result5">
        <feDistantLight
           id="feDistantLight4550"
           elevation="45"
           azimuth="235" />
      </feDiffuseLighting>
      <feComposite
         id="feComposite4552"
         in2="SourceGraphic"
         k1="1.4"
         in="result5"
         result="fbSourceGraphic"
         operator="arithmetic" />
      <feGaussianBlur
         id="feGaussianBlur4554"
         result="result0"
         in="fbSourceGraphic"
         stdDeviation="6" />
      <feSpecularLighting
         id="feSpecularLighting4556"
         specularExponent="25"
         specularConstant="1"
         surfaceScale="4"
         lighting-color="rgb(255,255,255)"
         result="result1"
         in="result0">
        <feDistantLight
           id="feDistantLight4558"
           azimuth="235"
           elevation="45" />
      </feSpecularLighting>
      <feComposite
         id="feComposite4560"
         in2="result1"
         k3="1"
         k2="1"
         operator="arithmetic"
         result="result4"
         in="fbSourceGraphic" />
      <feComposite
         id="feComposite4562"
         in2="SourceGraphic"
         operator="in"
         result="result2"
         in="result4" />
    </filter>
  </defs>
  <sodipodi:namedview
     inkscape:document-units="mm"
     pagecolor="#ffffff"
     bordercolor="#666666"
     borderopacity="1.0"
     inkscape:pageopacity="0.0"
     inkscape:pageshadow="2"
     inkscape:zoom="0.43415836"
     inkscape:cx="-137.54502"
     inkscape:cy="382.22884"
     inkscape:current-layer="g3020"
     id="namedview3035"
     showgrid="false"
     inkscape:window-width="1680"
     inkscape:window-height="973"
     inkscape:window-x="0"
     inkscape:window-y="24"
     inkscape:window-maximized="1" />
  <metadata
     id="metadata3037">
    <rdf:RDF>
      <cc:Work
         rdf:about="">
        <dc:format>image/svg+xml</dc:format>
        <dc:type
           rdf:resource="http://purl.org/dc/dcmitype/StillImage" />
        <dc:title>Speect logo</dc:title>
        <dc:date>2011-05-08</dc:date>
        <dc:creator>
          <cc:Agent>
            <dc:title>Aby Louw</dc:title>
          </cc:Agent>
        </dc:creator>
        <dc:description>Speect logo version 0.1 </dc:description>
      </cc:Work>
    </rdf:RDF>
  </metadata>
  <g
     style="display:none"
     id="g3973"
     inkscape:groupmode="layer"
     inkscape:label="original S"
     sodipodi:insensitive="true">
    <g
       transform="matrix(1.0886763,0,0,1.0886763,610.0107,-63.47025)"
       id="g3977"
       style="font-size:958.72375488px;font-style:normal;font-variant:normal;font-weight:bold;font-stretch:condensed;line-height:125%;letter-spacing:6.39149189px;word-spacing:0px;fill:none;stroke:#000000;stroke-opacity:1;display:inline;font-family:Transformers Solid;-inkscape-font-specification:Transformers Solid Bold Condensed">
      <path
         inkscape:connector-curvature="0"
         id="path3979"
         style="fill:none;stroke:#000000;stroke-opacity:1"
         d="m -273.84577,444.98569 c -38.07454,-0.93602 -67.5665,-13.41939 -88.47597,-37.45015 -20.90982,-24.03021 -31.36464,-51.49362 -31.3645,-82.39032 l 0,-95.966 c -1.4e-4,-23.71795 5.61737,-44.47155 16.85257,-62.26087 11.23487,-18.10037 25.90283,-31.83208 44.00392,-41.19516 18.41276,-9.36197 38.07407,-14.82345 58.98398,-16.38444 l 455.48745,0 0,191.932 -239.680979,0 c 29.02335,1.24872 54.3021796,7.95853 75.83658,20.12945 21.5332,12.17165 37.7616,26.99565 48.6852,44.47205 11.2344,17.47704 17.6321,35.89001 19.1932,55.23897 l 0,143.71494 c -7e-4,21.84601 -4.3698,41.97545 -13.1076,60.38836 -8.4269,18.10094 -21.6905,32.61286 -39.7908,43.53579 -17.7893,10.61088 -40.1033704,15.91631 -66.94211,15.91631 l -503.236351,0 0,-239.68093 263.55541,0" />
    </g>
  </g>
  <g
     inkscape:label="original waveform"
     inkscape:groupmode="layer"
     id="g4032"
     style="display:none"
     sodipodi:insensitive="true">
    <path
       style="fill:#000000;fill-opacity:1;display:inline"
       d="m 503.34863,369.13112 c -5.09996,5.11026 -2.38285,14.44327 -3.75293,21.38963 -2.04906,49.22946 -2.53323,98.53533 -4.64223,147.762 -1.1995,-7.5804 -0.55633,-17.532 -5.98463,-22.79396 -2.36282,-1.58714 -5.28846,0.53516 -5.98463,3.50413 -1.03735,-6.31133 -0.70574,-14.78806 -5.3751,-18.88154 -4.49397,-2.83753 -9.51726,2.98809 -8.78269,8.69603 -0.617,1.41321 -0.82748,-9.71958 -1.39147,-13.37705 -1.12881,-6.37625 -0.50633,-14.14772 -3.4575,-19.50779 -4.60498,-3.62521 -8.00364,3.94178 -7.53648,8.86598 -1.04745,8.18752 -1.75568,16.3965 -2.32709,24.67855 -0.99745,-6.82059 -0.33682,-14.82952 -3.54646,-20.7527 -3.69122,-4.21191 -9.44385,0.6114 -9.03238,6.29383 -1.0336,6.92987 -1.75415,13.8323 -2.18876,20.85475 -0.78945,-13.92105 -0.76994,-28.26056 -3.93434,-41.67549 -3.02576,-4.9374 -8.85443,0.3541 -7.84821,5.60376 -1.35583,12.05722 -2.0487,24.31554 -2.54184,36.51404 -0.90603,-23.66447 -1.20703,-47.61135 -3.74035,-71.03553 -1.48312,-5.23402 -8.305,-3.99904 -8.27937,1.71004 -1.96173,11.33694 -2.59814,22.92359 -3.02495,34.48815 -0.75451,-27.25619 -0.89707,-54.72055 -2.85384,-81.82011 -1.92482,-5.61607 -9.33123,-3.13033 -9.03129,2.9067 -3.84161,30.57852 -2.3231,61.73573 -4.12834,92.54866 -0.31236,5.0902 -0.27033,11.11033 -0.77675,15.72474 -2.61481,-2.5705 -8.71524,-4.69969 -9.78049,1.02063 -1.2511,9.04568 -1.94835,18.17435 -2.46586,27.35276 -0.95656,-19.51409 -1.06908,-39.30862 -3.49104,-58.5839 -2.4317,-5.81728 -8.93325,-0.51398 -8.3674,4.62684 -1.53925,12.15516 -2.20899,24.49201 -2.68759,36.81052 -0.7569,-17.74199 -1.11431,-35.87549 -4.62697,-53.07249 -1.46514,-4.39374 -7.39178,-4.77295 -8.03492,0.51033 -0.86952,8.65646 -0.94097,4.57247 -1.05685,-2.24419 -0.78812,-20.26413 -0.71265,-40.82327 -3.34855,-60.83049 -2.02211,-4.88378 -8.37886,-1.86483 -7.61929,3.36808 -2.07796,38.27588 -2.01493,76.65677 -2.77068,114.99045 -1.04008,-18.6057 -1.29321,-37.59952 -4.43305,-55.79418 -2.60301,-5.22887 -9.43144,-1.15783 -8.42336,4.61822 -1.60077,14.40635 -2.37363,29.02953 -2.9918,43.5893 -0.76824,-21.45604 -0.84972,-43.24683 -3.54644,-64.40146 -2.73263,-5.52707 -9.17157,-0.065 -7.89644,5.30727 -2.01324,16.2359 -0.9719,33.23182 -3.38021,49.19413 -1.71223,2.57426 -1.51115,6.5494 -3.98976,8.13101 -0.53188,3.16695 -3.2011,4.0553 -4.7932,1.4969 -2.51436,-2.54768 -6.01664,5.17171 -7.12066,-0.44231 -1.53525,-4.56903 -7.11756,-4.74061 -8.36741,0.17026 -0.99832,1.48324 -2.54245,3.1799 -3.24165,4.59282 -1.06295,-5.50157 -5.47286,-13.17449 -10.61167,-10.03615 -2.01792,2.29726 -3.19748,8.38731 -5.01486,8.60728 -0.11182,-4.95339 -2.88815,-11.40987 -7.67479,-9.21966 -3.06227,0.37506 -5.45984,5.14514 -7.23139,5.78355 -2.64584,-5.3929 -10.09683,-7.3252 -12.66198,-0.78247 -1.37665,1.78578 -2.24394,7.4027 -3.46329,6.90621 -1.93025,-5.61144 -9.41069,-8.32837 -11.71997,-1.73504 -0.93253,3.56218 -1.76356,3.22436 -3.15855,0.17025 -2.4521,-4.78674 -8.76825,-5.64938 -10.91641,-0.0679 -1.44758,2.75617 -3.08667,-4.17306 -5.01488,-4.96706 -3.77838,-4.35654 -8.92685,0.67669 -11.49829,3.16395 -2.82875,-5.25537 -10.21565,-8.06637 -13.10521,-1.36084 -1.29827,3.65578 -3.54645,-2.01922 -5.95698,-1.39486 -3.42418,-1.31356 -7.14156,1.4827 -9.9744,2.44949 -4.4593,-3.77617 -10.01118,-0.8729 -13.32684,3.12994 -2.39385,-1.52459 -5.33979,-2.53054 -8.31199,-1.80311 -5.89589,1.59341 -11.30157,-2.68288 -17.23353,-0.91857 -5.05628,-0.22212 -10.39086,-0.0287 -15.54349,-0.44227 -9.023496,-0.16881 -18.448021,-1.15027 -27.346429,0.17025 -3.79736,1.35168 -4.015026,8.80701 0.443307,9.15159 13.074893,-0.70232 26.201362,-0.0705 39.260292,0.54434 4.05838,1.02549 8.41288,-1.77671 12.10785,1.29282 4.59877,1.26585 9.59279,-2.03881 13.74251,1.36081 4.28898,1.86334 8.48344,-2.28879 11.74761,-3.94643 3.43313,4.61192 8.38506,1.73714 11.63679,-1.42888 2.058,-0.4664 3.23019,3.3243 5.45816,3.47013 3.52298,2.15483 8.02741,-1.22862 9.50345,-3.98042 2.22608,5.26413 8.29017,7.18621 11.80301,2.51757 2.79433,-5.19443 4.43112,2.21424 7.28681,3.94639 3.02751,3.54372 7.87995,0.88216 9.69734,-2.07526 2.13452,5.28131 8.64092,9.27605 12.21867,3.74227 1.33143,-1.71565 1.96047,-4.21061 2.96456,-0.68041 1.88299,4.77685 8.28098,8.57506 10.58394,2.17734 1.74478,-3.37551 2.74008,-7.39816 4.156,-10.85265 1.68706,5.13252 7.45703,8.36948 10.97183,3.67424 1.36521,-0.82758 2.58848,-6.26852 3.04775,-2.41547 1.47807,4.5019 3.48828,13.01493 8.47822,11.12481 2.73326,-2.11554 4.11601,-6.10246 6.09547,-9.04952 1.05524,-3.10174 0.8203,3.89679 2.71525,4.69487 2.77482,2.00505 6.49153,5.51215 9.53108,1.83712 2.30787,-0.53079 3.88152,-4.91348 5.23661,-0.27218 2.03027,3.61421 6.32866,1.84294 7.8687,-1.15673 2.6929,-0.31404 3.83104,4.71572 6.87125,2.61961 2.40554,-2.05134 4.34306,-3.0759 6.23395,-5.47738 2.49794,-1.12883 2.8493,-4.56808 3.90667,-6.73613 0.99168,28.17857 1.39261,56.43804 4.1006,84.47379 3.3936,5.9073 10.76117,0.26252 9.66958,-6.05572 1.26713,-19.8958 1.91091,-39.83928 2.6044,-59.77462 1.23071,22.48471 1.72794,45.26994 4.43308,67.49734 1.92677,5.14757 8.71966,2.77041 8.0383,-2.98479 2.58917,-19.14837 3.74177,-38.61208 3.73689,-58.08039 0.44313,-5.75891 -0.9494,-6.51697 1.99505,-2.28161 5.06975,3.00046 8.18166,-5.51372 7.84094,-10.54647 0.51974,-5.01521 0.87554,-13.47316 0.98122,-3.50521 0.89522,19.61026 0.98361,39.6599 4.19997,58.8231 2.12584,5.18009 8.77712,2.3795 8.58737,-3.17206 1.25003,-7.22895 2.0238,-14.5415 2.52295,-21.90131 0.86951,11.02154 0.66098,22.56936 3.26939,33.13631 1.87554,4.99102 8.54749,3.95101 8.53366,-2.04125 3.16085,-16.65302 2.87572,-33.91408 4.34998,-50.86117 1.13709,4.84347 0.86817,14.14121 6.48336,14.11865 5.57661,-1.6628 3.91917,-10.36451 4.40531,-15.37741 0.65813,-11.24231 1.20437,-22.49366 1.69015,-33.74868 0.86542,28.73659 1.00754,57.70801 3.54644,86.24284 2.28817,5.94576 9.45095,1.18938 8.83837,-4.32065 1.52756,-19.47364 1.90349,-39.04187 2.4382,-58.58391 0.83555,24.88861 1.90683,49.77714 3.87893,74.57368 7.35366,-4.38569 10.21371,-14.46547 10.04719,-24.00547 0.70521,-10.1597 1.16697,-20.34375 1.53418,-30.52991 0.98194,8.59387 0.86659,17.91728 3.74046,25.88984 2.11394,4.20528 8.44817,3.44204 8.3674,-2.17734 1.41655,-13.90144 1.95189,-27.90483 2.65983,-41.87966 1.04401,8.3802 0.64698,17.81028 3.40788,25.37955 4.67831,4.05867 8.84415,-3.61901 8.59448,-8.86499 1.07537,-7.30771 1.8078,-16.27352 2.37736,-22.63829 1.05871,8.02484 0.93609,17.35116 3.76811,24.35892 9.62533,3.47162 9.48179,-15.21427 10.36227,-22.48779 0.70967,7.00594 1.70303,13.98874 3.60188,20.65067 2.97511,0.51851 6.14342,-0.99641 7.61938,-4.32067 1.78783,21.57297 1.71239,43.67593 5.0426,64.87778 2.41434,4.9252 8.19222,0.39519 7.56388,-4.45676 2.89098,-34.88988 4.46365,-69.91887 5.59673,-104.95429 0.90676,42.32395 1.35298,84.82371 3.74045,126.99981 0.49633,4.82488 6.30143,6.99306 7.95177,2.04125 3.44421,-20.33688 2.57118,-41.39104 3.8627,-62.04962 0.25553,-7.68927 0.48338,-15.37987 0.70893,-23.07054 0.86879,21.33451 1.24383,43.05447 4.37767,63.99321 1.8155,4.96306 8.97543,2.65458 7.92409,-2.95982 1.57924,-14.7827 1.89718,-32.08165 3.24162,-45.34978 2.86022,4.76483 8.27371,0.14629 7.86871,-4.89899 1.10081,-15.16842 1.53473,-30.65786 1.93946,-45.99616 0.74972,17.74232 0.66399,35.81607 3.04774,53.31064 0.79227,4.86089 6.61057,7.78058 8.78303,2.68766 3.75313,-12.11088 2.50141,-25.48485 3.62953,-38.20541 0.81746,35.00215 1.24606,70.18162 3.60188,105.02232 0.59465,5.40616 8.00806,8.34579 9.11553,1.76909 1.65238,-9.30704 0.427,-19.17887 1.49315,-28.66815 0.56565,-14.36054 1.12271,-28.72157 1.69307,-43.0818 0.91986,13.37873 1.04674,27.15469 3.5742,40.14459 2.77617,5.60899 9.721,1.03658 8.87969,-4.85847 1.39226,-16.24813 2.12247,-32.57123 2.61854,-48.89447 0.49329,4.29742 0.59765,13.36817 5.95696,11.77123 5.46986,-3.07581 3.42861,-12.32444 4.80739,-18.07946 0.77959,-8.49418 1.3105,-18.65076 1.81446,-26.14765 0.95843,12.51517 1.36698,25.65324 5.26427,37.35491 2.57942,4.43337 8.39498,1.36553 8.09035,-3.91241 0.72417,-4.28673 1.2299,-8.55775 1.60697,-12.8599 0.93192,12.10652 0.74067,24.7797 3.68504,36.33429 2.95293,4.70506 8.75333,-0.36522 8.20116,-5.40932 1.24435,-9.39653 1.92553,-18.8794 2.549,-28.37339 1.08185,9.37511 1.19295,19.59943 3.93434,28.30532 4.23368,3.98679 10.07779,-2.58684 10.52855,-7.58662 0.69208,-5.05844 1.15605,-10.10716 1.4684,-15.24135 1.09089,5.30763 1.00364,12.87887 5.4305,15.71763 4.68886,1.21863 6.18945,-6.13154 5.73923,-10.46664 0.9461,-14.31577 1.44987,-28.66841 1.99097,-43.01411 0.89024,10.37817 0.74104,21.34378 3.43564,31.16311 3.84887,5.24034 10.31512,-1.3425 9.34658,-7.30446 0.61122,-5.03898 0.99984,-10.20887 1.43126,-15.31943 1.16722,16.89445 1.20038,34.33495 3.5742,50.86117 3.44537,5.27589 9.30217,-0.79568 8.92154,-6.15778 0.78048,-5.26418 1.39783,-10.5222 1.8563,-15.81967 1.03821,13.20268 1.02032,26.95402 4.34998,39.56623 2.07575,4.73113 9.10738,3.96169 8.89379,-2.0413 1.24677,-10.79874 1.96776,-21.73513 2.85383,-32.62595 2.27877,4.74962 0.0425,12.09611 4.29449,15.24132 4.20326,2.62666 7.2322,-3.59177 6.5111,-8.23305 1.4334,-12.02572 2.05242,-24.20076 2.71526,-36.33424 1.00816,3.79192 -0.18486,10.74442 3.24165,11.97535 6.66802,0.68781 8.76788,-9.58685 9.94672,-15.78569 1.04159,8.25655 1.33489,19.0592 7.50846,24.18881 2.07777,1.18169 4.7361,0.16311 5.8738,-2.27939 1.36007,10.97312 2.11574,22.6745 6.48336,32.42186 3.62217,4.01648 8.22851,-2.00497 7.39771,-6.83818 1.31773,-12.71513 2.54545,-26.52948 4.07286,-38.54563 1.72323,5.22429 3.18479,13.00877 8.11805,14.56093 5.25239,-0.57399 4.18385,-8.91044 5.48592,-13.43823 1.21724,6.84109 1.45782,15.46715 6.0401,20.31045 3.39546,2.30464 7.0393,-1.79062 6.8158,-6.08972 1.13796,-3.87294 1.81844,-11.00553 2.65984,-12.96194 0.80115,5.27252 3.05677,14.4078 8.78297,12.17944 6.30386,-3.42933 4.27569,-13.63952 5.68747,-20.23669 0.14687,-6.43652 0.68219,-2.66598 1.79337,1.04892 1.3114,4.9408 6.68148,10.49687 10.38999,5.57943 1.50839,-1.93567 1.68439,-4.6811 2.10574,-7.14436 1.44542,8.21241 2.42227,18.84931 8.61671,23.47436 3.06583,1.2158 5.11981,-3.60067 5.98467,-5.20516 1.85812,6.07803 10.65657,6.7022 11.99699,-0.34015 0.82462,-2.61073 1.24834,-5.41417 2.18879,-7.96089 -0.0942,6.50644 5.24492,17.0573 10.88875,10.78463 3.28611,-5.40202 3.13189,-13.35241 4.68243,-19.01768 0.84638,5.75605 5.44408,9.77616 9.94667,10.17226 3.70284,-1.62357 2.48345,-7.73253 5.09804,-10.71657 1.20845,4.22478 4.44619,12.17369 8.78298,8.70932 1.50548,-1.16959 2.8361,-4.43024 3.46333,-0.64638 1.54044,4.59031 5.9007,6.61404 9.47564,4.35468 3.06938,-0.45113 4.91677,-4.90335 7.78558,-5.2052 3.05516,3.79192 8.65592,4.26606 10.97186,-0.8165 1.52433,-2.20699 2.14639,-5.56214 4.62703,-2.99386 3.81115,2.04288 8.0003,0.19206 11.52593,-1.08862 3.04075,6.22857 10.5757,7.10165 14.79538,2.65362 4.84128,5.33645 11.2182,1.20618 16.51316,-0.0358 6.01607,1.83568 12.42427,1.4905 18.53574,1.39489 3.36597,-1.60735 6.84153,-1.97604 10.05751,0 6.3382,0.71975 12.6557,-3.22561 18.8683,-0.37423 5.0424,-0.13163 10.0552,-1.46295 15.0447,-0.34015 4.6564,0.64221 8.516,-7.29326 3.0201,-9.90006 -6.827,0.12768 -13.7873,0.55608 -20.5029,0.0322 -6.5494,-2.02143 -13.425,3.5267 -19.69952,-0.37424 -5.08089,-0.064 -9.93904,2.5881 -14.93386,1.49694 -6.68648,-0.73799 -13.91148,-2.58287 -20.25361,1.19071 -3.48122,-2.14799 -7.9544,-5.27338 -11.49833,-1.4629 -2.13798,3.47613 -3.17035,-1.9755 -5.43051,-2.38146 -4.10827,-3.12411 -8.78656,-0.65158 -12.93895,0.13591 -3.51639,-6.05774 -10.70832,-3.02377 -13.24381,2.68764 -1.03868,2.76517 -3.69607,-1.50323 -5.79069,-0.34016 -3.47841,0.69687 -6.47845,3.16123 -9.28173,5.68152 -0.97035,-5.87566 -6.69421,-11.79849 -11.24892,-7.11034 -1.91279,1.00823 -1.75113,-4.86352 -2.85373,-6.60007 -1.62386,-5.92847 -7.95619,-4.20048 -10.99957,-1.22474 -1.30848,1.7731 -1.08083,6.08393 -2.35509,6.66808 -1.98368,-5.64406 -2.47978,-14.53515 -8.00718,-16.70426 -4.89049,-0.78969 -6.02269,6.30114 -6.42792,10.7506 -0.88484,2.26454 -0.88664,10.80648 -2.02262,9.18565 -1.12823,-5.7381 -8.27743,-9.33308 -11.08262,-3.60622 -1.74801,3.87926 -2.77521,8.16827 -3.93436,12.34955 -1.27144,-4.20334 -3.47681,-12.47269 -8.22891,-8.64129 -1.44044,1.25117 -2.05919,3.72721 -2.60441,5.3753 -2.41228,-7.73981 -0.86438,-18.97067 -7.20378,-23.98469 -4.55321,-2.06921 -7.90436,3.90288 -8.58899,8.60728 -0.94801,-6.87399 -2.24865,-16.96902 -8.75537,-18.60941 -6.42131,1.35365 -5.65372,11.60444 -6.82891,17.54408 -0.47509,8.68876 -1.08798,1.73787 -1.81551,-3.32337 0.78645,-6.72226 -6.66601,-7.65579 -8.58909,-2.44949 -2.70809,5.39687 -2.83939,11.97139 -4.12825,17.96301 -1.39189,-9.71611 -1.30583,-20.43633 -4.26687,-29.56413 -3.43186,-4.42704 -8.56138,1.28159 -8.56134,6.15779 -0.98388,5.74446 -1.55034,11.60669 -2.16112,17.38464 -1.37117,-6.35065 -1.05101,-14.63709 -5.04262,-19.28983 -5.5672,-2.64386 -8.04537,6.51156 -8.01105,11.62598 -0.97565,9.43909 -2.10728,18.85293 -3.15474,28.28047 -1.17831,-7.66338 -0.78694,-16.82475 -4.5993,-23.27025 -4.30628,-3.33423 -7.77382,3.40917 -8.14576,7.9609 -1.51468,-10.10901 -1.26441,-22.07953 -6.92667,-30.21054 -4.76386,-3.22969 -7.48638,4.7827 -7.64702,9.42377 -0.90648,6.75811 -1.15607,-5.58976 -1.88513,-8.01533 -1.4567,-5.01708 0,-13.1727 -4.62591,-15.49307 -5.74373,-0.94953 -7.17155,8.26162 -7.67477,13.50627 -1.36627,10.53433 -1.48783,21.26207 -1.91172,31.91157 -0.54979,-4.69687 -1.80497,-13.53199 -7.14831,-10.78462 -4.80979,4.36444 -3.14871,13.22707 -4.65667,19.4851 -0.69671,8.10752 -1.07014,10.39934 -1.35572,0.7233 -0.7092,-11.39782 -1.5812,-22.7783 -3.26939,-34.02088 -5.12595,-4.2696 -10.17548,2.9337 -10.14063,9.04958 -0.28371,7.65569 -0.69316,3.19578 -0.7976,-2.0013 -1.01332,-16.78635 -1.44659,-33.88621 -4.49431,-50.25473 -1.65106,-4.43899 -7.99957,-4.8917 -8.36743,0.88452 -0.9781,9.85157 -1.46255,19.76278 -1.93946,29.6662 -0.97482,-13.18637 -0.88273,-26.98443 -4.12832,-39.5322 -3.18863,-4.80396 -8.7602,0.94364 -8.28427,5.95363 -2.5139,19.15479 -2.9916,38.6789 -3.71268,58.07359 -0.26493,-4.714 -2.76277,-11.31273 -7.23147,-8.23304 -4.80111,5.13044 -3.11504,14.27882 -4.4885,21.19498 -0.40996,5.15201 -0.71434,15.08039 -1.24675,4.38866 -1.08867,-7.66993 -1.12244,-16.46742 -3.79586,-23.33828 -4.56268,-3.87986 -8.35658,3.39805 -8.83837,8.30108 -0.60034,2.41924 -1.51238,12.10305 -1.55281,5.81979 -1.02067,-14.26247 -0.91535,-29.16167 -4.18252,-42.80046 -3.60044,-4.89742 -8.9336,1.50392 -8.38194,6.7252 -0.99434,7.97821 -1.54493,16.04591 -1.98034,24.13174 -0.77774,-10.55417 -0.77819,-21.70044 -3.38021,-31.70744 -2.32976,-5.03301 -8.89619,-2.63789 -9.00461,3.06186 -1.53917,6.00382 -2.30405,12.2729 -2.90926,18.50734 -1.02607,-6.72706 -0.47186,-14.75036 -3.54643,-20.48055 -3.81182,-3.64188 -8.09693,2.60576 -7.29906,7.37624 -1.34756,14.71417 -1.95578,29.51232 -2.45369,44.30144 -0.85895,-13.98596 -0.56603,-28.33534 -2.60443,-42.0838 -2.00241,-5.1976 -9.57799,-3.99943 -9.36486,2.24538 -1.07919,13.21734 -1.80788,26.47454 -2.41042,39.73636 -1.00764,-38.81732 -1.37025,-77.8167 -4.21142,-116.45333 -2.00781,-5.83842 -8.97916,-1.64498 -8.58905,3.64023 -2.31469,23.99882 -2.71694,48.19178 -3.18631,72.3283 -0.80673,-22.90182 -0.93937,-46.05914 -3.65728,-68.72209 -0.59093,-4.55387 -5.68728,-7.43787 -7.95176,-2.89179 -4.74154,13.8805 -2.73875,29.48099 -4.03551,44.15618 -0.8024,21.92988 -0.72668,45.65172 -1.83832,66.47958 -2.69228,-3.91267 -7.41259,-1.36589 -7.75786,3.40209 -0.45474,-2.29401 -0.38071,-11.74065 -0.63729,-16.70423 -0.81293,-20.55131 -1.1644,-41.40257 -3.74035,-61.67978 -1.33701,-4.55043 -7.39915,-4.57862 -7.89644,0.64638 -2.74291,19.03499 -2.87786,38.49413 -3.43563,57.80141 -1.04328,-44.36191 -1.37424,-89.01154 -4.48847,-133.12354 -0.14504,-3.68631 -2.76943,-7.75044 -5.9569,-6.0217 z"
       id="path4034"
       inkscape:connector-curvature="0" />
  </g>
  <g
     style="display:none"
     id="g4088"
     inkscape:groupmode="layer"
     inkscape:label="waveform copy"
     sodipodi:insensitive="true">
    <path
       inkscape:connector-curvature="0"
       id="path4090"
       d="m 503.34863,369.13112 c -5.09996,5.11026 -2.38285,14.44327 -3.75293,21.38963 -2.04906,49.22946 -2.53323,98.53533 -4.64223,147.762 -1.1995,-7.5804 -0.55633,-17.532 -5.98463,-22.79396 -2.36282,-1.58714 -5.28846,0.53516 -5.98463,3.50413 -1.03735,-6.31133 -0.70574,-14.78806 -5.3751,-18.88154 -4.49397,-2.83753 -9.51726,2.98809 -8.78269,8.69603 -0.617,1.41321 -0.82748,-9.71958 -1.39147,-13.37705 -1.12881,-6.37625 -0.50633,-14.14772 -3.4575,-19.50779 -4.60498,-3.62521 -8.00364,3.94178 -7.53648,8.86598 -1.04745,8.18752 -1.75568,16.3965 -2.32709,24.67855 -0.99745,-6.82059 -0.33682,-14.82952 -3.54646,-20.7527 -3.69122,-4.21191 -9.44385,0.6114 -9.03238,6.29383 -1.0336,6.92987 -1.75415,13.8323 -2.18876,20.85475 -0.78945,-13.92105 -0.76994,-28.26056 -3.93434,-41.67549 -3.02576,-4.9374 -8.85443,0.3541 -7.84821,5.60376 -1.35583,12.05722 -2.0487,24.31554 -2.54184,36.51404 -0.90603,-23.66447 -1.20703,-47.61135 -3.74035,-71.03553 -1.48312,-5.23402 -8.305,-3.99904 -8.27937,1.71004 -1.96173,11.33694 -2.59814,22.92359 -3.02495,34.48815 -0.75451,-27.25619 -0.89707,-54.72055 -2.85384,-81.82011 -1.92482,-5.61607 -9.33123,-3.13033 -9.03129,2.9067 -3.84161,30.57852 -2.3231,61.73573 -4.12834,92.54866 -0.31236,5.0902 -0.27033,11.11033 -0.77675,15.72474 -2.61481,-2.5705 -8.71524,-4.69969 -9.78049,1.02063 -1.2511,9.04568 -1.94835,18.17435 -2.46586,27.35276 -0.95656,-19.51409 -1.06908,-39.30862 -3.49104,-58.5839 -2.4317,-5.81728 -8.93325,-0.51398 -8.3674,4.62684 -1.53925,12.15516 -2.20899,24.49201 -2.68759,36.81052 -0.7569,-17.74199 -1.11431,-35.87549 -4.62697,-53.07249 -1.46514,-4.39374 -7.39178,-4.77295 -8.03492,0.51033 -0.86952,8.65646 -0.94097,4.57247 -1.05685,-2.24419 -0.78812,-20.26413 -0.71265,-40.82327 -3.34855,-60.83049 -2.02211,-4.88378 -8.37886,-1.86483 -7.61929,3.36808 -2.07796,38.27588 -2.01493,76.65677 -2.77068,114.99045 -1.04008,-18.6057 -1.29321,-37.59952 -4.43305,-55.79418 -2.60301,-5.22887 -9.43144,-1.15783 -8.42336,4.61822 -1.60077,14.40635 -2.37363,29.02953 -2.9918,43.5893 -0.76824,-21.45604 -0.84972,-43.24683 -3.54644,-64.40146 -2.73263,-5.52707 -9.17157,-0.065 -7.89644,5.30727 -2.01324,16.2359 -0.9719,33.23182 -3.38021,49.19413 -1.71223,2.57426 -1.51115,6.5494 -3.98976,8.13101 -0.53188,3.16695 -3.2011,4.0553 -4.7932,1.4969 -2.51436,-2.54768 -6.01664,5.17171 -7.12066,-0.44231 -1.53525,-4.56903 -7.11756,-4.74061 -8.36741,0.17026 -0.99832,1.48324 -2.54245,3.1799 -3.24165,4.59282 -1.06295,-5.50157 -5.47286,-13.17449 -10.61167,-10.03615 -2.01792,2.29726 -3.19748,8.38731 -5.01486,8.60728 -0.11182,-4.95339 -2.88815,-11.40987 -7.67479,-9.21966 -3.06227,0.37506 -5.45984,5.14514 -7.23139,5.78355 -2.64584,-5.3929 -10.09683,-7.3252 -12.66198,-0.78247 -1.37665,1.78578 -2.24394,7.4027 -3.46329,6.90621 -1.93025,-5.61144 -9.41069,-8.32837 -11.71997,-1.73504 -0.93253,3.56218 -1.76356,3.22436 -3.15855,0.17025 -2.4521,-4.78674 -8.76825,-5.64938 -10.91641,-0.0679 -1.44758,2.75617 -3.08667,-4.17306 -5.01488,-4.96706 -3.77838,-4.35654 -8.92685,0.67669 -11.49829,3.16395 -2.82875,-5.25537 -10.21565,-8.06637 -13.10521,-1.36084 -1.29827,3.65578 -3.54645,-2.01922 -5.95698,-1.39486 -3.42418,-1.31356 -7.14156,1.4827 -9.9744,2.44949 -4.4593,-3.77617 -10.01118,-0.8729 -13.32684,3.12994 -2.39385,-1.52459 -5.33979,-2.53054 -8.31199,-1.80311 -5.89589,1.59341 -11.30157,-2.68288 -17.23353,-0.91857 -5.05628,-0.22212 -10.39086,-0.0287 -15.54349,-0.44227 -9.023496,-0.16881 -18.448021,-1.15027 -27.346429,0.17025 -3.79736,1.35168 -4.015026,8.80701 0.443307,9.15159 13.074893,-0.70232 26.201362,-0.0705 39.260292,0.54434 4.05838,1.02549 8.41288,-1.77671 12.10785,1.29282 4.59877,1.26585 9.59279,-2.03881 13.74251,1.36081 4.28898,1.86334 8.48344,-2.28879 11.74761,-3.94643 3.43313,4.61192 8.38506,1.73714 11.63679,-1.42888 2.058,-0.4664 3.23019,3.3243 5.45816,3.47013 3.52298,2.15483 8.02741,-1.22862 9.50345,-3.98042 2.22608,5.26413 8.29017,7.18621 11.80301,2.51757 2.79433,-5.19443 4.43112,2.21424 7.28681,3.94639 3.02751,3.54372 7.87995,0.88216 9.69734,-2.07526 2.13452,5.28131 8.64092,9.27605 12.21867,3.74227 1.33143,-1.71565 1.96047,-4.21061 2.96456,-0.68041 1.88299,4.77685 8.28098,8.57506 10.58394,2.17734 1.74478,-3.37551 2.74008,-7.39816 4.156,-10.85265 1.68706,5.13252 7.45703,8.36948 10.97183,3.67424 1.36521,-0.82758 2.58848,-6.26852 3.04775,-2.41547 1.47807,4.5019 3.48828,13.01493 8.47822,11.12481 2.73326,-2.11554 4.11601,-6.10246 6.09547,-9.04952 1.05524,-3.10174 0.8203,3.89679 2.71525,4.69487 2.77482,2.00505 6.49153,5.51215 9.53108,1.83712 2.30787,-0.53079 3.88152,-4.91348 5.23661,-0.27218 2.03027,3.61421 6.32866,1.84294 7.8687,-1.15673 2.6929,-0.31404 3.83104,4.71572 6.87125,2.61961 2.40554,-2.05134 4.34306,-3.0759 6.23395,-5.47738 2.49794,-1.12883 2.8493,-4.56808 3.90667,-6.73613 0.99168,28.17857 1.39261,56.43804 4.1006,84.47379 3.3936,5.9073 10.76117,0.26252 9.66958,-6.05572 1.26713,-19.8958 1.91091,-39.83928 2.6044,-59.77462 1.23071,22.48471 1.72794,45.26994 4.43308,67.49734 1.92677,5.14757 8.71966,2.77041 8.0383,-2.98479 2.58917,-19.14837 3.74177,-38.61208 3.73689,-58.08039 0.44313,-5.75891 -0.9494,-6.51697 1.99505,-2.28161 5.06975,3.00046 8.18166,-5.51372 7.84094,-10.54647 0.51974,-5.01521 0.87554,-13.47316 0.98122,-3.50521 0.89522,19.61026 0.98361,39.6599 4.19997,58.8231 2.12584,5.18009 8.77712,2.3795 8.58737,-3.17206 1.25003,-7.22895 2.0238,-14.5415 2.52295,-21.90131 0.86951,11.02154 0.66098,22.56936 3.26939,33.13631 1.87554,4.99102 8.54749,3.95101 8.53366,-2.04125 3.16085,-16.65302 2.87572,-33.91408 4.34998,-50.86117 1.13709,4.84347 0.86817,14.14121 6.48336,14.11865 5.57661,-1.6628 3.91917,-10.36451 4.40531,-15.37741 0.65813,-11.24231 1.20437,-22.49366 1.69015,-33.74868 0.86542,28.73659 1.00754,57.70801 3.54644,86.24284 2.28817,5.94576 9.45095,1.18938 8.83837,-4.32065 1.52756,-19.47364 1.90349,-39.04187 2.4382,-58.58391 0.83555,24.88861 1.90683,49.77714 3.87893,74.57368 7.35366,-4.38569 10.21371,-14.46547 10.04719,-24.00547 0.70521,-10.1597 1.16697,-20.34375 1.53418,-30.52991 0.98194,8.59387 0.86659,17.91728 3.74046,25.88984 2.11394,4.20528 8.44817,3.44204 8.3674,-2.17734 1.41655,-13.90144 1.95189,-27.90483 2.65983,-41.87966 1.04401,8.3802 0.64698,17.81028 3.40788,25.37955 4.67831,4.05867 8.84415,-3.61901 8.59448,-8.86499 1.07537,-7.30771 1.8078,-16.27352 2.37736,-22.63829 1.05871,8.02484 0.93609,17.35116 3.76811,24.35892 9.62533,3.47162 9.48179,-15.21427 10.36227,-22.48779 0.70967,7.00594 1.70303,13.98874 3.60188,20.65067 2.97511,0.51851 6.14342,-0.99641 7.61938,-4.32067 1.78783,21.57297 1.71239,43.67593 5.0426,64.87778 2.41434,4.9252 8.19222,0.39519 7.56388,-4.45676 2.89098,-34.88988 4.46365,-69.91887 5.59673,-104.95429 0.90676,42.32395 1.35298,84.82371 3.74045,126.99981 0.49633,4.82488 6.30143,6.99306 7.95177,2.04125 3.44421,-20.33688 2.57118,-41.39104 3.8627,-62.04962 0.25553,-7.68927 0.48338,-15.37987 0.70893,-23.07054 0.86879,21.33451 1.24383,43.05447 4.37767,63.99321 1.8155,4.96306 8.97543,2.65458 7.92409,-2.95982 1.57924,-14.7827 1.89718,-32.08165 3.24162,-45.34978 2.86022,4.76483 8.27371,0.14629 7.86871,-4.89899 1.10081,-15.16842 1.53473,-30.65786 1.93946,-45.99616 0.74972,17.74232 0.66399,35.81607 3.04774,53.31064 0.79227,4.86089 6.61057,7.78058 8.78303,2.68766 3.75313,-12.11088 2.50141,-25.48485 3.62953,-38.20541 0.81746,35.00215 1.24606,70.18162 3.60188,105.02232 0.59465,5.40616 8.00806,8.34579 9.11553,1.76909 1.65238,-9.30704 0.427,-19.17887 1.49315,-28.66815 0.56565,-14.36054 1.12271,-28.72157 1.69307,-43.0818 0.91986,13.37873 1.04674,27.15469 3.5742,40.14459 2.77617,5.60899 9.721,1.03658 8.87969,-4.85847 1.39226,-16.24813 2.12247,-32.57123 2.61854,-48.89447 0.49329,4.29742 0.59765,13.36817 5.95696,11.77123 5.46986,-3.07581 3.42861,-12.32444 4.80739,-18.07946 0.77959,-8.49418 1.3105,-18.65076 1.81446,-26.14765 0.95843,12.51517 1.36698,25.65324 5.26427,37.35491 2.57942,4.43337 8.39498,1.36553 8.09035,-3.91241 0.72417,-4.28673 1.2299,-8.55775 1.60697,-12.8599 0.93192,12.10652 0.74067,24.7797 3.68504,36.33429 2.95293,4.70506 8.75333,-0.36522 8.20116,-5.40932 1.24435,-9.39653 1.92553,-18.8794 2.549,-28.37339 1.08185,9.37511 1.19295,19.59943 3.93434,28.30532 4.23368,3.98679 10.07779,-2.58684 10.52855,-7.58662 0.69208,-5.05844 1.15605,-10.10716 1.4684,-15.24135 1.09089,5.30763 1.00364,12.87887 5.4305,15.71763 4.68886,1.21863 6.18945,-6.13154 5.73923,-10.46664 0.9461,-14.31577 1.44987,-28.66841 1.99097,-43.01411 0.89024,10.37817 0.74104,21.34378 3.43564,31.16311 3.84887,5.24034 10.31512,-1.3425 9.34658,-7.30446 0.61122,-5.03898 0.99984,-10.20887 1.43126,-15.31943 1.16722,16.89445 1.20038,34.33495 3.5742,50.86117 3.44537,5.27589 9.30217,-0.79568 8.92154,-6.15778 0.78048,-5.26418 1.39783,-10.5222 1.8563,-15.81967 1.03821,13.20268 1.02032,26.95402 4.34998,39.56623 2.07575,4.73113 9.10738,3.96169 8.89379,-2.0413 1.24677,-10.79874 1.96776,-21.73513 2.85383,-32.62595 2.27877,4.74962 0.0425,12.09611 4.29449,15.24132 4.20326,2.62666 7.2322,-3.59177 6.5111,-8.23305 1.4334,-12.02572 2.05242,-24.20076 2.71526,-36.33424 1.00816,3.79192 -0.18486,10.74442 3.24165,11.97535 6.66802,0.68781 8.76788,-9.58685 9.94672,-15.78569 1.04159,8.25655 1.33489,19.0592 7.50846,24.18881 2.07777,1.18169 4.7361,0.16311 5.8738,-2.27939 1.36007,10.97312 2.11574,22.6745 6.48336,32.42186 3.62217,4.01648 8.22851,-2.00497 7.39771,-6.83818 1.31773,-12.71513 2.54545,-26.52948 4.07286,-38.54563 1.72323,5.22429 3.18479,13.00877 8.11805,14.56093 5.25239,-0.57399 4.18385,-8.91044 5.48592,-13.43823 1.21724,6.84109 1.45782,15.46715 6.0401,20.31045 3.39546,2.30464 7.0393,-1.79062 6.8158,-6.08972 1.13796,-3.87294 1.81844,-11.00553 2.65984,-12.96194 0.80115,5.27252 3.05677,14.4078 8.78297,12.17944 6.30386,-3.42933 4.27569,-13.63952 5.68747,-20.23669 0.14687,-6.43652 0.68219,-2.66598 1.79337,1.04892 1.3114,4.9408 6.68148,10.49687 10.38999,5.57943 1.50839,-1.93567 1.68439,-4.6811 2.10574,-7.14436 1.44542,8.21241 2.42227,18.84931 8.61671,23.47436 3.06583,1.2158 5.11981,-3.60067 5.98467,-5.20516 1.85812,6.07803 10.65657,6.7022 11.99699,-0.34015 0.82462,-2.61073 1.24834,-5.41417 2.18879,-7.96089 -0.0942,6.50644 5.24492,17.0573 10.88875,10.78463 3.28611,-5.40202 3.13189,-13.35241 4.68243,-19.01768 0.84638,5.75605 5.44408,9.77616 9.94667,10.17226 3.70284,-1.62357 2.48345,-7.73253 5.09804,-10.71657 1.20845,4.22478 4.44619,12.17369 8.78298,8.70932 1.50548,-1.16959 2.8361,-4.43024 3.46333,-0.64638 1.54044,4.59031 5.9007,6.61404 9.47564,4.35468 3.06938,-0.45113 4.91677,-4.90335 7.78558,-5.2052 3.05516,3.79192 8.65592,4.26606 10.97186,-0.8165 1.52433,-2.20699 2.14639,-5.56214 4.62703,-2.99386 3.81115,2.04288 8.0003,0.19206 11.52593,-1.08862 3.04075,6.22857 10.5757,7.10165 14.79538,2.65362 4.84128,5.33645 11.2182,1.20618 16.51316,-0.0358 6.01607,1.83568 12.42427,1.4905 18.53574,1.39489 3.36597,-1.60735 6.84153,-1.97604 10.05751,0 6.3382,0.71975 12.6557,-3.22561 18.8683,-0.37423 5.0424,-0.13163 10.0552,-1.46295 15.0447,-0.34015 4.6564,0.64221 8.516,-7.29326 3.0201,-9.90006 -6.827,0.12768 -13.7873,0.55608 -20.5029,0.0322 -6.5494,-2.02143 -13.425,3.5267 -19.69952,-0.37424 -5.08089,-0.064 -9.93904,2.5881 -14.93386,1.49694 -6.68648,-0.73799 -13.91148,-2.58287 -20.25361,1.19071 -3.48122,-2.14799 -7.9544,-5.27338 -11.49833,-1.4629 -2.13798,3.47613 -3.17035,-1.9755 -5.43051,-2.38146 -4.10827,-3.12411 -8.78656,-0.65158 -12.93895,0.13591 -3.51639,-6.05774 -10.70832,-3.02377 -13.24381,2.68764 -1.03868,2.76517 -3.69607,-1.50323 -5.79069,-0.34016 -3.47841,0.69687 -6.47845,3.16123 -9.28173,5.68152 -0.97035,-5.87566 -6.69421,-11.79849 -11.24892,-7.11034 -1.91279,1.00823 -1.75113,-4.86352 -2.85373,-6.60007 -1.62386,-5.92847 -7.95619,-4.20048 -10.99957,-1.22474 -1.30848,1.7731 -1.08083,6.08393 -2.35509,6.66808 -1.98368,-5.64406 -2.47978,-14.53515 -8.00718,-16.70426 -4.89049,-0.78969 -6.02269,6.30114 -6.42792,10.7506 -0.88484,2.26454 -0.88664,10.80648 -2.02262,9.18565 -1.12823,-5.7381 -8.27743,-9.33308 -11.08262,-3.60622 -1.74801,3.87926 -2.77521,8.16827 -3.93436,12.34955 -1.27144,-4.20334 -3.47681,-12.47269 -8.22891,-8.64129 -1.44044,1.25117 -2.05919,3.72721 -2.60441,5.3753 -2.41228,-7.73981 -0.86438,-18.97067 -7.20378,-23.98469 -4.55321,-2.06921 -7.90436,3.90288 -8.58899,8.60728 -0.94801,-6.87399 -2.24865,-16.96902 -8.75537,-18.60941 -6.42131,1.35365 -5.65372,11.60444 -6.82891,17.54408 -0.47509,8.68876 -1.08798,1.73787 -1.81551,-3.32337 0.78645,-6.72226 -6.66601,-7.65579 -8.58909,-2.44949 -2.70809,5.39687 -2.83939,11.97139 -4.12825,17.96301 -1.39189,-9.71611 -1.30583,-20.43633 -4.26687,-29.56413 -3.43186,-4.42704 -8.56138,1.28159 -8.56134,6.15779 -0.98388,5.74446 -1.55034,11.60669 -2.16112,17.38464 -1.37117,-6.35065 -1.05101,-14.63709 -5.04262,-19.28983 -5.5672,-2.64386 -8.04537,6.51156 -8.01105,11.62598 -0.97565,9.43909 -2.10728,18.85293 -3.15474,28.28047 -1.17831,-7.66338 -0.78694,-16.82475 -4.5993,-23.27025 -4.30628,-3.33423 -7.77382,3.40917 -8.14576,7.9609 -1.51468,-10.10901 -1.26441,-22.07953 -6.92667,-30.21054 -4.76386,-3.22969 -7.48638,4.7827 -7.64702,9.42377 -0.90648,6.75811 -1.15607,-5.58976 -1.88513,-8.01533 -1.4567,-5.01708 0,-13.1727 -4.62591,-15.49307 -5.74373,-0.94953 -7.17155,8.26162 -7.67477,13.50627 -1.36627,10.53433 -1.48783,21.26207 -1.91172,31.91157 -0.54979,-4.69687 -1.80497,-13.53199 -7.14831,-10.78462 -4.80979,4.36444 -3.14871,13.22707 -4.65667,19.4851 -0.69671,8.10752 -1.07014,10.39934 -1.35572,0.7233 -0.7092,-11.39782 -1.5812,-22.7783 -3.26939,-34.02088 -5.12595,-4.2696 -10.17548,2.9337 -10.14063,9.04958 -0.28371,7.65569 -0.69316,3.19578 -0.7976,-2.0013 -1.01332,-16.78635 -1.44659,-33.88621 -4.49431,-50.25473 -1.65106,-4.43899 -7.99957,-4.8917 -8.36743,0.88452 -0.9781,9.85157 -1.46255,19.76278 -1.93946,29.6662 -0.97482,-13.18637 -0.88273,-26.98443 -4.12832,-39.5322 -3.18863,-4.80396 -8.7602,0.94364 -8.28427,5.95363 -2.5139,19.15479 -2.9916,38.6789 -3.71268,58.07359 -0.26493,-4.714 -2.76277,-11.31273 -7.23147,-8.23304 -4.80111,5.13044 -3.11504,14.27882 -4.4885,21.19498 -0.40996,5.15201 -0.71434,15.08039 -1.24675,4.38866 -1.08867,-7.66993 -1.12244,-16.46742 -3.79586,-23.33828 -4.56268,-3.87986 -8.35658,3.39805 -8.83837,8.30108 -0.60034,2.41924 -1.51238,12.10305 -1.55281,5.81979 -1.02067,-14.26247 -0.91535,-29.16167 -4.18252,-42.80046 -3.60044,-4.89742 -8.9336,1.50392 -8.38194,6.7252 -0.99434,7.97821 -1.54493,16.04591 -1.98034,24.13174 -0.77774,-10.55417 -0.77819,-21.70044 -3.38021,-31.70744 -2.32976,-5.03301 -8.89619,-2.63789 -9.00461,3.06186 -1.53917,6.00382 -2.30405,12.2729 -2.90926,18.50734 -1.02607,-6.72706 -0.47186,-14.75036 -3.54643,-20.48055 -3.81182,-3.64188 -8.09693,2.60576 -7.29906,7.37624 -1.34756,14.71417 -1.95578,29.51232 -2.45369,44.30144 -0.85895,-13.98596 -0.56603,-28.33534 -2.60443,-42.0838 -2.00241,-5.1976 -9.57799,-3.99943 -9.36486,2.24538 -1.07919,13.21734 -1.80788,26.47454 -2.41042,39.73636 -1.00764,-38.81732 -1.37025,-77.8167 -4.21142,-116.45333 -2.00781,-5.83842 -8.97916,-1.64498 -8.58905,3.64023 -2.31469,23.99882 -2.71694,48.19178 -3.18631,72.3283 -0.80673,-22.90182 -0.93937,-46.05914 -3.65728,-68.72209 -0.59093,-4.55387 -5.68728,-7.43787 -7.95176,-2.89179 -4.74154,13.8805 -2.73875,29.48099 -4.03551,44.15618 -0.8024,21.92988 -0.72668,45.65172 -1.83832,66.47958 -2.69228,-3.91267 -7.41259,-1.36589 -7.75786,3.40209 -0.45474,-2.29401 -0.38071,-11.74065 -0.63729,-16.70423 -0.81293,-20.55131 -1.1644,-41.40257 -3.74035,-61.67978 -1.33701,-4.55043 -7.39915,-4.57862 -7.89644,0.64638 -2.74291,19.03499 -2.87786,38.49413 -3.43563,57.80141 -1.04328,-44.36191 -1.37424,-89.01154 -4.48847,-133.12354 -0.14504,-3.68631 -2.76943,-7.75044 -5.9569,-6.0217 z"
       style="fill:#000000;fill-opacity:1;stroke:none;display:inline;filter:url(#filter4544)" />
  </g>
  <g
     inkscape:label="modified S"
     inkscape:groupmode="layer"
     id="g4061"
     style="display:none"
     sodipodi:insensitive="true">
    <g
       style="font-size:958.72375488px;font-style:normal;font-variant:normal;font-weight:bold;font-stretch:condensed;line-height:125%;letter-spacing:6.39149189px;word-spacing:0px;fill:#ff0000;fill-opacity:1;stroke:none;display:inline;filter:url(#filter4068);font-family:Transformers Solid;-inkscape-font-specification:Transformers Solid Bold Condensed"
       id="g4063"
       transform="matrix(1.0886763,0,0,1.0886763,610.0107,-63.47025)">
      <path
         style="fill:#ff0000;fill-opacity:1;stroke:none"
         d="M 311.875,55.5625 C 289.11088,57.261913 267.70179,63.214095 247.65625,73.40625 227.95002,83.599613 211.98114,98.544556 199.75,118.25 c -12.2315,19.36681 -18.3439,41.96008 -18.34375,67.78125 l 0,104.46875 c -1.5e-4,33.63651 11.39222,63.55763 34.15625,89.71875 22.76364,26.16172 54.86165,39.73098 96.3125,40.75 l -286.90625,0 0,260.9375 547.84375,0 c 29.2187,0 53.50821,-5.76069 72.875,-17.3125 19.70537,-11.89154 34.13833,-27.70019 43.3125,-47.40625 3.39963,-7.16394 6.19026,-14.57746 8.375,-22.21875 -6.49181,-2.91521 -8.04642,-12.14774 -8.40625,-18.6875 -2.82391,1.24522 -6.31521,1.19543 -8.9375,-0.53125 -6.26279,-5.98044 -5.13259,-16.0328 -5.8125,-24.03125 1.25418,-4.6372 -2.34928,-2.55121 -5.0625,-3.15625 -1.67613,2.38941 -0.33425,8.27255 -1.84375,11.9375 -1.11392,5.88809 -7.26648,10.9331 -13.25,8.03125 -2.41375,6.2086 -10.06166,11.1719 -16.5625,8 -2.25906,3.99109 -6.43951,7.65576 -11.34375,7.15625 -8.62719,-1.75222 -9.4373,-12.30756 -9.84375,-19.46875 -3.03361,0.73245 -6.30534,-0.40512 -8.59375,-2.4375 -1.59312,3.18683 -4.83137,7.26308 -9.125,7.5 -0.90948,9.61694 -1.23736,19.40458 -1.8125,29.09375 1.17155,7.96575 -5.96622,17.3594 -14.46875,14.90625 -1.02485,7.8946 -0.0907,17.60959 -1.96875,26.03125 -1.73863,9.05363 -15.641,9.0391 -19.1875,1.21875 -3.93415,-20.95612 -2.99493,-42.6693 -3.96875,-63.96875 -3.20266,0.87898 -6.65192,-0.3635 -9.125,-2.4375 -2.32185,-0.86395 -2.43581,-6.05677 -5.21875,-3.625 -2.45323,11.53718 -1.52863,24.59233 -3.0625,36.6875 1.84233,7.95838 -7.43225,15.53705 -14.875,11.96875 -1.3476,2.85422 -1.11405,8.89306 -2.125,12.96875 0.26584,8.24568 -11.34723,11.88842 -16.75,6.28125 -4.46267,-5.75427 -3.33139,-13.98827 -3.96875,-20.90625 -3.60351,4.0334 -10.85788,4.75854 -14.28125,0.15625 C 481.89638,599.5689 483.23895,579.8588 481.75,561 c 0.97522,-4.13409 -4.02364,-1.68515 -6.09375,-3.84375 -2.93996,2.06506 -7.68478,4.85053 -11.78125,2.875 -1.74739,4.00024 -5.50207,8.10677 -10.34375,8.34375 -4.41393,-1.3599 -1.76586,4.99344 -2.8125,7.46875 1.16594,7.50857 -6.34464,14.70136 -13.78125,12.375 -1.12712,11.04843 -5.93385,23.69706 -17.25,27.78125 -6.24878,0.91704 -5.28295,-8.04606 -5.21875,-11.9375 -3.87019,2.24056 -9.97653,2.16539 -12.875,-1.90625 -3.90124,-9.87084 -3.01151,-21.30061 -3.75,-31.875 0.0492,-2.95907 0.56536,-5.79572 -3,-4.59375 -1.85358,3.58208 -0.82923,9.97204 -1.53125,14.53125 -1.70821,8.30621 0.21251,18.09703 -5.9375,24.8125 -5.78473,6.31318 -15.91163,0.96765 -17.28125,-6.53125 -3.3559,0.97212 -8.5947,1.19015 -11.34375,-2.15625 -5.52387,-11.73556 -4.66936,-25.44854 -5.625,-38.1875 -0.66879,10.73654 -0.82042,21.50024 -1.78125,32.21875 -1.50707,7.06348 -0.61136,14.682 -2.96875,21.46875 -2.94488,7.32461 -14.29847,8.22402 -17.90625,0.96875 -4.36348,3.63742 -13.56087,4.59367 -16.71875,-1.78125 -4.15371,-23.42889 -3.48308,-47.74306 -4.625,-71.5625 -3.0922,2.01662 -7.32714,2.9782 -10.6875,0.9375 -3.21032,1.41432 -7.83077,2.37083 -10.96875,-0.3125 -4.27299,1.98367 -10.53337,1.85699 -14.46875,-1.6875 -2.71682,3.91766 -9.90454,6.30112 -14.21875,2.0625 -2.82711,-1.09777 -3.03391,-6.64595 -6.40625,-4.65625 -2.3745,1.40816 -6.49788,-2.11082 -7,0.8125 -1.76187,7.93809 -12.56107,9.83296 -18.03125,4.5 -4.44746,1.14125 -10.9727,1.80065 -14.59375,-2.53125 -4.91321,2.07161 -10.86866,0.2389 -14.40625,-3.625 -3.95609,1.61139 -9.74346,2.35564 -13.75,-0.625 -3.29946,1.4091 -7.70086,2.30369 -11.375,0.75 -3.71325,-3.24971 -7.68948,1.48111 -12,0.59375 -4.9578,-2.42202 -9.29143,3.53793 -14.46875,1.90625 -4.96358,-3.44608 -11.40651,-0.2218 -16.8125,-2.34375 -13.58703,-1.03118 -27.5376,-1.57174 -41.28125,-1.46875 -5.321126,0.84658 -12.176152,1.11103 -14.96875,-4.5625 -4.437492,-6.56117 0.488231,-16.0648 8.34375,-16.53125 14.725917,-1.26037 29.57935,0.85882 44.375,0.3125 5.75695,0.38276 11.38666,1.83033 17.28125,1 5.48749,1.55991 9.80291,-3.58489 15.34375,-3.03125 5.58632,1.92242 11.37906,-2.7872 16.96875,-0.15625 4.39495,-3.81196 11.64276,-3.96152 16.25,-0.28125 4.68757,-3.35231 11.7674,-2.72137 15.8125,1.28125 3.57535,-0.76402 8.59364,-1.42523 12.0625,1.28125 3.42837,-1.79315 8.21079,-3.17757 12.15625,-1.09375 3.23384,-6.21757 12.32268,-8.43481 18.15625,-4.40625 4.22892,-3.62033 11.31223,-4.83083 15.75,-0.8125 4.6575,-3.85243 11.98332,-2.21452 15.59375,2.25 3.4276,-2.25238 8.62098,-2.67643 12.21875,-0.15625 1.36586,2.90702 3.97824,1.41062 6.375,2.03125 5.53673,-16.3752 2.929,-34.19777 4.84375,-51.21875 -0.97708,-6.98878 3.89402,-15.134 11.5,-15.125 8.41283,0.29256 9.882,10.40307 9.8125,17 2.05954,-0.85262 4.7422,-1.37704 7.0625,-0.65625 1.18964,-16.33626 0.98588,-33.94023 2,-50.75 -1.82686,-8.9659 10.7943,-16.24146 17.1875,-9.40625 3.65524,5.9825 3.12585,13.69397 4.1875,20.5 0.53541,12.64742 1.57823,25.34107 1.15625,37.9375 6.47597,1.11742 10.6316,8.03809 10.84375,14.59375 2.9617,-1.87349 7.04797,-2.3162 10.09375,-0.34375 5.66162,4.90649 5.132,13.78059 5.8125,20.6875 0.99667,2.63156 -1.77955,9.44697 2.71875,8.09375 2.17402,-33.12936 0.62726,-66.84155 4.375,-100.03125 -1.11351,-9.71019 13.49913,-15.89236 19.1875,-7.78125 4.37787,13.3342 2.68941,28.03129 3.625,41.96875 2.94702,-0.81361 6.27507,-0.21769 8.71875,1.625 5.11836,5.69421 4.39324,14.53526 5.15625,21.75 0.90381,2.15719 -1.62564,8.69825 2.46875,6.59375 8.18536,-1.12781 11.8159,8.25744 11.75,15 1.16832,1.17849 5.1405,-1.00757 7.5,0.28125 0.49599,-6.94669 7.26501,-15.26553 14.8125,-11.75 8.04518,4.69943 7.21192,15.47387 7.84375,23.5625 6.1193,-1.04166 11.52041,3.91559 13.40625,9.4375 1.71503,2.01048 -0.22387,6.9204 3.4375,6.59375 1.70922,-41.34858 1.95878,-83.72915 4.09375,-125.4375 -0.5064,-7.96478 0.80956,-19.46309 10.28125,-21.3125 0.26068,-0.0211 0.52485,-0.0354 0.78125,-0.0312 3.84602,0.0623 7.16623,2.899 8.8125,6.28125 4.08828,23.6409 3.2985,48.02413 4.40625,72 3.72042,-1.0839 8.05638,0.0544 10.5625,3.03125 3.45076,7.32519 2.99226,16.05174 4.1875,24.03125 0.38798,-17.77871 0.009,-35.78416 3.3125,-53.28125 1.37654,-7.04245 10.59104,-11.88973 16.3125,-6.59375 2.53603,-6.96001 14.5891,-10.14954 18.5625,-2.53125 4.07315,22.81175 3.19879,46.47205 4.28125,69.65625 2.26868,-0.54237 4.75146,-0.34734 6.84375,0.71875 1.2569,-6.45613 9.51747,-10.69413 15.21875,-6.8125 3.93072,-4.97041 13.11832,-5.91342 17.09375,-0.28125 3.16811,-1.46418 8.09358,-3.54756 11.59375,-0.78125 6.75765,7.54337 5.79855,18.86112 6.71875,28.375 3.00479,-1.0153 6.48172,-0.32722 8.9375,1.65625 2.02982,-0.27382 4.31287,-4.1078 7.46875,-4.0625 1.74795,-6.74474 0.8697,-15.46992 1.71875,-22.9375 2.07871,-9.87946 -0.73854,-21.41444 5.71875,-30 4.37891,-6.88244 15.72136,-3.55257 17.21875,4 3.4769,-0.4767 8.22266,-0.54608 10.96875,2.53125 5.67188,11.19905 5.17475,24.61886 6.15625,36.96875 0.28093,2.95022 -0.91057,7.10383 3.28125,5.375 4.83951,-0.11876 7.5424,3.28797 8.875,7.40625 l 0,-102.46875 c -1.69953,-21.06475 -8.67562,-41.09816 -20.90625,-60.125 -11.89226,-19.02614 -29.55732,-35.15526 -53,-48.40625 -23.44399,-13.25019 -50.96547,-20.5468 -82.5625,-21.90625 l 260.9375,0 0,-208.96875 -495.875,0 z m 385.5,539.40625 c 0.95862,-3.35285 1.80653,-6.74274 2.53125,-10.1875 -0.72589,3.44444 -1.57261,6.83458 -2.53125,10.1875 z m 5.78125,-36.9375 c -0.057,1.49584 -0.1541,2.98819 -0.25,4.46875 0.0954,-1.48129 0.19342,-2.97221 0.25,-4.46875 z m -0.25,4.90625 c -0.22165,3.28787 -0.55523,6.5375 -0.96875,9.75 0.41209,-3.21396 0.7483,-6.46074 0.96875,-9.75 z m -1.03125,10.25 c -0.0867,0.6598 -0.18641,1.31213 -0.28125,1.96875 0.0951,-0.65599 0.19426,-1.30958 0.28125,-1.96875 z m -0.28125,1.96875 c -0.19531,1.34763 -0.39561,2.69701 -0.625,4.03125 0.22896,-1.33532 0.4302,-2.68251 0.625,-4.03125 z m -0.625,4.03125 c -0.28443,1.65438 -0.60074,3.30369 -0.9375,4.9375 0.33633,-1.63471 0.65366,-3.28216 0.9375,-4.9375 z"
         transform="matrix(0.91854668,0,0,0.91854668,-560.3233,58.300387)"
         id="path4065"
         inkscape:connector-curvature="0" />
    </g>
  </g>
  <g
     inkscape:label="combined"
     inkscape:groupmode="layer"
     id="g3020"
     style="display:inline"
     sodipodi:insensitive="true">
    <g
       id="g3032">
      <path
         inkscape:connector-curvature="0"
         id="path3022"
         d="m 503.34863,369.13112 c -5.09996,5.11026 -2.38285,14.44327 -3.75293,21.38963 -2.04906,49.22946 -2.53323,98.53533 -4.64223,147.762 -1.1995,-7.5804 -0.55633,-17.532 -5.98463,-22.79396 -2.36282,-1.58714 -5.28846,0.53516 -5.98463,3.50413 -1.03735,-6.31133 -0.70574,-14.78806 -5.3751,-18.88154 -4.49397,-2.83753 -9.51726,2.98809 -8.78269,8.69603 -0.617,1.41321 -0.82748,-9.71958 -1.39147,-13.37705 -1.12881,-6.37625 -0.50633,-14.14772 -3.4575,-19.50779 -4.60498,-3.62521 -8.00364,3.94178 -7.53648,8.86598 -1.04745,8.18752 -1.75568,16.3965 -2.32709,24.67855 -0.99745,-6.82059 -0.33682,-14.82952 -3.54646,-20.7527 -3.69122,-4.21191 -9.44385,0.6114 -9.03238,6.29383 -1.0336,6.92987 -1.75415,13.8323 -2.18876,20.85475 -0.78945,-13.92105 -0.76994,-28.26056 -3.93434,-41.67549 -3.02576,-4.9374 -8.85443,0.3541 -7.84821,5.60376 -1.35583,12.05722 -2.0487,24.31554 -2.54184,36.51404 -0.90603,-23.66447 -1.20703,-47.61135 -3.74035,-71.03553 -1.48312,-5.23402 -8.305,-3.99904 -8.27937,1.71004 -1.96173,11.33694 -2.59814,22.92359 -3.02495,34.48815 -0.75451,-27.25619 -0.89707,-54.72055 -2.85384,-81.82011 -1.92482,-5.61607 -9.33123,-3.13033 -9.03129,2.9067 -3.84161,30.57852 -2.3231,61.73573 -4.12834,92.54866 -0.31236,5.0902 -0.27033,11.11033 -0.77675,15.72474 -2.61481,-2.5705 -8.71524,-4.69969 -9.78049,1.02063 -1.2511,9.04568 -1.94835,18.17435 -2.46586,27.35276 -0.95656,-19.51409 -1.06908,-39.30862 -3.49104,-58.5839 -2.4317,-5.81728 -8.93325,-0.51398 -8.3674,4.62684 -1.53925,12.15516 -2.20899,24.49201 -2.68759,36.81052 -0.7569,-17.74199 -1.11431,-35.87549 -4.62697,-53.07249 -1.46514,-4.39374 -7.39178,-4.77295 -8.03492,0.51033 -0.86952,8.65646 -0.94097,4.57247 -1.05685,-2.24419 -0.78812,-20.26413 -0.71265,-40.82327 -3.34855,-60.83049 -2.02211,-4.88378 -8.37886,-1.86483 -7.61929,3.36808 -2.07796,38.27588 -2.01493,76.65677 -2.77068,114.99045 -1.04008,-18.6057 -1.29321,-37.59952 -4.43305,-55.79418 -2.60301,-5.22887 -9.43144,-1.15783 -8.42336,4.61822 -1.60077,14.40635 -2.37363,29.02953 -2.9918,43.5893 -0.76824,-21.45604 -0.84972,-43.24683 -3.54644,-64.40146 -2.73263,-5.52707 -9.17157,-0.065 -7.89644,5.30727 -2.01324,16.2359 -0.9719,33.23182 -3.38021,49.19413 -1.71223,2.57426 -1.51115,6.5494 -3.98976,8.13101 -0.53188,3.16695 -3.2011,4.0553 -4.7932,1.4969 -2.51436,-2.54768 -6.01664,5.17171 -7.12066,-0.44231 -1.53525,-4.56903 -7.11756,-4.74061 -8.36741,0.17026 -0.99832,1.48324 -2.54245,3.1799 -3.24165,4.59282 -1.06295,-5.50157 -5.47286,-13.17449 -10.61167,-10.03615 -2.01792,2.29726 -3.19748,8.38731 -5.01486,8.60728 -0.11182,-4.95339 -2.88815,-11.40987 -7.67479,-9.21966 -3.06227,0.37506 -5.45984,5.14514 -7.23139,5.78355 -2.64584,-5.3929 -10.09683,-7.3252 -12.66198,-0.78247 -1.37665,1.78578 -2.24394,7.4027 -3.46329,6.90621 -1.93025,-5.61144 -9.41069,-8.32837 -11.71997,-1.73504 -0.93253,3.56218 -1.76356,3.22436 -3.15855,0.17025 -2.4521,-4.78674 -8.76825,-5.64938 -10.91641,-0.0679 -1.44758,2.75617 -3.08667,-4.17306 -5.01488,-4.96706 -3.77838,-4.35654 -8.92685,0.67669 -11.49829,3.16395 -2.82875,-5.25537 -10.21565,-8.06637 -13.10521,-1.36084 -1.29827,3.65578 -3.54645,-2.01922 -5.95698,-1.39486 -3.42418,-1.31356 -7.14156,1.4827 -9.9744,2.44949 -4.4593,-3.77617 -10.01118,-0.8729 -13.32684,3.12994 -2.39385,-1.52459 -5.33979,-2.53054 -8.31199,-1.80311 -5.89589,1.59341 -11.30157,-2.68288 -17.23353,-0.91857 -5.05628,-0.22212 -10.39086,-0.0287 -15.54349,-0.44227 -9.023496,-0.16881 -18.448021,-1.15027 -27.346429,0.17025 -3.79736,1.35168 -4.015026,8.80701 0.443307,9.15159 13.074893,-0.70232 26.201362,-0.0705 39.260292,0.54434 4.05838,1.02549 8.41288,-1.77671 12.10785,1.29282 4.59877,1.26585 9.59279,-2.03881 13.74251,1.36081 4.28898,1.86334 8.48344,-2.28879 11.74761,-3.94643 3.43313,4.61192 8.38506,1.73714 11.63679,-1.42888 2.058,-0.4664 3.23019,3.3243 5.45816,3.47013 3.52298,2.15483 8.02741,-1.22862 9.50345,-3.98042 2.22608,5.26413 8.29017,7.18621 11.80301,2.51757 2.79433,-5.19443 4.43112,2.21424 7.28681,3.94639 3.02751,3.54372 7.87995,0.88216 9.69734,-2.07526 2.13452,5.28131 8.64092,9.27605 12.21867,3.74227 1.33143,-1.71565 1.96047,-4.21061 2.96456,-0.68041 1.88299,4.77685 8.28098,8.57506 10.58394,2.17734 1.74478,-3.37551 2.74008,-7.39816 4.156,-10.85265 1.68706,5.13252 7.45703,8.36948 10.97183,3.67424 1.36521,-0.82758 2.58848,-6.26852 3.04775,-2.41547 1.47807,4.5019 3.48828,13.01493 8.47822,11.12481 2.73326,-2.11554 4.11601,-6.10246 6.09547,-9.04952 1.05524,-3.10174 0.8203,3.89679 2.71525,4.69487 2.77482,2.00505 6.49153,5.51215 9.53108,1.83712 2.30787,-0.53079 3.88152,-4.91348 5.23661,-0.27218 2.03027,3.61421 6.32866,1.84294 7.8687,-1.15673 2.6929,-0.31404 3.83104,4.71572 6.87125,2.61961 2.40554,-2.05134 4.34306,-3.0759 6.23395,-5.47738 2.49794,-1.12883 2.8493,-4.56808 3.90667,-6.73613 0.99168,28.17857 1.39261,56.43804 4.1006,84.47379 3.3936,5.9073 10.76117,0.26252 9.66958,-6.05572 1.26713,-19.8958 1.91091,-39.83928 2.6044,-59.77462 1.23071,22.48471 1.72794,45.26994 4.43308,67.49734 1.92677,5.14757 8.71966,2.77041 8.0383,-2.98479 2.58917,-19.14837 3.74177,-38.61208 3.73689,-58.08039 0.44313,-5.75891 -0.9494,-6.51697 1.99505,-2.28161 5.06975,3.00046 8.18166,-5.51372 7.84094,-10.54647 0.51974,-5.01521 0.87554,-13.47316 0.98122,-3.50521 0.89522,19.61026 0.98361,39.6599 4.19997,58.8231 2.12584,5.18009 8.77712,2.3795 8.58737,-3.17206 1.25003,-7.22895 2.0238,-14.5415 2.52295,-21.90131 0.86951,11.02154 0.66098,22.56936 3.26939,33.13631 1.87554,4.99102 8.54749,3.95101 8.53366,-2.04125 3.16085,-16.65302 2.87572,-33.91408 4.34998,-50.86117 1.13709,4.84347 0.86817,14.14121 6.48336,14.11865 5.57661,-1.6628 3.91917,-10.36451 4.40531,-15.37741 0.65813,-11.24231 1.20437,-22.49366 1.69015,-33.74868 0.86542,28.73659 1.00754,57.70801 3.54644,86.24284 2.28817,5.94576 9.45095,1.18938 8.83837,-4.32065 1.52756,-19.47364 1.90349,-39.04187 2.4382,-58.58391 0.83555,24.88861 1.90683,49.77714 3.87893,74.57368 7.35366,-4.38569 10.21371,-14.46547 10.04719,-24.00547 0.70521,-10.1597 1.16697,-20.34375 1.53418,-30.52991 0.98194,8.59387 0.86659,17.91728 3.74046,25.88984 2.11394,4.20528 8.44817,3.44204 8.3674,-2.17734 1.41655,-13.90144 1.95189,-27.90483 2.65983,-41.87966 1.04401,8.3802 0.64698,17.81028 3.40788,25.37955 4.67831,4.05867 8.84415,-3.61901 8.59448,-8.86499 1.07537,-7.30771 1.8078,-16.27352 2.37736,-22.63829 1.05871,8.02484 0.93609,17.35116 3.76811,24.35892 9.62533,3.47162 9.48179,-15.21427 10.36227,-22.48779 0.70967,7.00594 1.70303,13.98874 3.60188,20.65067 2.97511,0.51851 6.14342,-0.99641 7.61938,-4.32067 1.78783,21.57297 1.71239,43.67593 5.0426,64.87778 2.41434,4.9252 8.19222,0.39519 7.56388,-4.45676 2.89098,-34.88988 4.46365,-69.91887 5.59673,-104.95429 0.90676,42.32395 1.35298,84.82371 3.74045,126.99981 0.49633,4.82488 6.30143,6.99306 7.95177,2.04125 3.44421,-20.33688 2.57118,-41.39104 3.8627,-62.04962 0.25553,-7.68927 0.48338,-15.37987 0.70893,-23.07054 0.86879,21.33451 1.24383,43.05447 4.37767,63.99321 1.8155,4.96306 8.97543,2.65458 7.92409,-2.95982 1.57924,-14.7827 1.89718,-32.08165 3.24162,-45.34978 2.86022,4.76483 8.27371,0.14629 7.86871,-4.89899 1.10081,-15.16842 1.53473,-30.65786 1.93946,-45.99616 0.74972,17.74232 0.66399,35.81607 3.04774,53.31064 0.79227,4.86089 6.61057,7.78058 8.78303,2.68766 3.75313,-12.11088 2.50141,-25.48485 3.62953,-38.20541 0.81746,35.00215 1.24606,70.18162 3.60188,105.02232 0.59465,5.40616 8.00806,8.34579 9.11553,1.76909 1.65238,-9.30704 0.427,-19.17887 1.49315,-28.66815 0.56565,-14.36054 1.12271,-28.72157 1.69307,-43.0818 0.91986,13.37873 1.04674,27.15469 3.5742,40.14459 2.77617,5.60899 9.721,1.03658 8.87969,-4.85847 1.39226,-16.24813 2.12247,-32.57123 2.61854,-48.89447 0.49329,4.29742 0.59765,13.36817 5.95696,11.77123 5.46986,-3.07581 3.42861,-12.32444 4.80739,-18.07946 0.77959,-8.49418 1.3105,-18.65076 1.81446,-26.14765 0.95843,12.51517 1.36698,25.65324 5.26427,37.35491 2.57942,4.43337 8.39498,1.36553 8.09035,-3.91241 0.72417,-4.28673 1.2299,-8.55775 1.60697,-12.8599 0.93192,12.10652 0.74067,24.7797 3.68504,36.33429 2.95293,4.70506 8.75333,-0.36522 8.20116,-5.40932 1.24435,-9.39653 1.92553,-18.8794 2.549,-28.37339 1.08185,9.37511 1.19295,19.59943 3.93434,28.30532 4.23368,3.98679 10.07779,-2.58684 10.52855,-7.58662 0.69208,-5.05844 1.15605,-10.10716 1.4684,-15.24135 1.09089,5.30763 1.00364,12.87887 5.4305,15.71763 4.68886,1.21863 6.18945,-6.13154 5.73923,-10.46664 0.9461,-14.31577 1.44987,-28.66841 1.99097,-43.01411 0.89024,10.37817 0.74104,21.34378 3.43564,31.16311 3.84887,5.24034 10.31512,-1.3425 9.34658,-7.30446 0.61122,-5.03898 0.99984,-10.20887 1.43126,-15.31943 1.16722,16.89445 1.20038,34.33495 3.5742,50.86117 3.44537,5.27589 9.30217,-0.79568 8.92154,-6.15778 0.78048,-5.26418 1.39783,-10.5222 1.8563,-15.81967 1.03821,13.20268 1.02032,26.95402 4.34998,39.56623 2.07575,4.73113 9.10738,3.96169 8.89379,-2.0413 1.24677,-10.79874 1.96776,-21.73513 2.85383,-32.62595 2.27877,4.74962 0.0425,12.09611 4.29449,15.24132 4.20326,2.62666 7.2322,-3.59177 6.5111,-8.23305 1.4334,-12.02572 2.05242,-24.20076 2.71526,-36.33424 1.00816,3.79192 -0.18486,10.74442 3.24165,11.97535 6.66802,0.68781 8.76788,-9.58685 9.94672,-15.78569 1.04159,8.25655 1.33489,19.0592 7.50846,24.18881 2.07777,1.18169 4.7361,0.16311 5.8738,-2.27939 1.36007,10.97312 2.11574,22.6745 6.48336,32.42186 3.62217,4.01648 8.22851,-2.00497 7.39771,-6.83818 1.31773,-12.71513 2.54545,-26.52948 4.07286,-38.54563 1.72323,5.22429 3.18479,13.00877 8.11805,14.56093 5.25239,-0.57399 4.18385,-8.91044 5.48592,-13.43823 1.21724,6.84109 1.45782,15.46715 6.0401,20.31045 3.39546,2.30464 7.0393,-1.79062 6.8158,-6.08972 1.13796,-3.87294 1.81844,-11.00553 2.65984,-12.96194 0.80115,5.27252 3.05677,14.4078 8.78297,12.17944 6.30386,-3.42933 4.27569,-13.63952 5.68747,-20.23669 0.14687,-6.43652 0.68219,-2.66598 1.79337,1.04892 1.3114,4.9408 6.68148,10.49687 10.38999,5.57943 1.50839,-1.93567 1.68439,-4.6811 2.10574,-7.14436 1.44542,8.21241 2.42227,18.84931 8.61671,23.47436 3.06583,1.2158 5.11981,-3.60067 5.98467,-5.20516 1.85812,6.07803 10.65657,6.7022 11.99699,-0.34015 0.82462,-2.61073 1.24834,-5.41417 2.18879,-7.96089 -0.0942,6.50644 5.24492,17.0573 10.88875,10.78463 3.28611,-5.40202 3.13189,-13.35241 4.68243,-19.01768 0.84638,5.75605 5.44408,9.77616 9.94667,10.17226 3.70284,-1.62357 2.48345,-7.73253 5.09804,-10.71657 1.20845,4.22478 4.44619,12.17369 8.78298,8.70932 1.50548,-1.16959 2.8361,-4.43024 3.46333,-0.64638 1.54044,4.59031 5.9007,6.61404 9.47564,4.35468 3.06938,-0.45113 4.91677,-4.90335 7.78558,-5.2052 3.05516,3.79192 8.65592,4.26606 10.97186,-0.8165 1.52433,-2.20699 2.14639,-5.56214 4.62703,-2.99386 3.81115,2.04288 8.0003,0.19206 11.52593,-1.08862 3.04075,6.22857 10.5757,7.10165 14.79538,2.65362 4.84128,5.33645 11.2182,1.20618 16.51316,-0.0358 6.01607,1.83568 12.42427,1.4905 18.53574,1.39489 3.36597,-1.60735 6.84153,-1.97604 10.05751,0 6.3382,0.71975 12.6557,-3.22561 18.8683,-0.37423 5.0424,-0.13163 10.0552,-1.46295 15.0447,-0.34015 4.6564,0.64221 8.516,-7.29326 3.0201,-9.90006 -6.827,0.12768 -13.7873,0.55608 -20.5029,0.0322 -6.5494,-2.02143 -13.425,3.5267 -19.69952,-0.37424 -5.08089,-0.064 -9.93904,2.5881 -14.93386,1.49694 -6.68648,-0.73799 -13.91148,-2.58287 -20.25361,1.19071 -3.48122,-2.14799 -7.9544,-5.27338 -11.49833,-1.4629 -2.13798,3.47613 -3.17035,-1.9755 -5.43051,-2.38146 -4.10827,-3.12411 -8.78656,-0.65158 -12.93895,0.13591 -3.51639,-6.05774 -10.70832,-3.02377 -13.24381,2.68764 -1.03868,2.76517 -3.69607,-1.50323 -5.79069,-0.34016 -3.47841,0.69687 -6.47845,3.16123 -9.28173,5.68152 -0.97035,-5.87566 -6.69421,-11.79849 -11.24892,-7.11034 -1.91279,1.00823 -1.75113,-4.86352 -2.85373,-6.60007 -1.62386,-5.92847 -7.95619,-4.20048 -10.99957,-1.22474 -1.30848,1.7731 -1.08083,6.08393 -2.35509,6.66808 -1.98368,-5.64406 -2.47978,-14.53515 -8.00718,-16.70426 -4.89049,-0.78969 -6.02269,6.30114 -6.42792,10.7506 -0.88484,2.26454 -0.88664,10.80648 -2.02262,9.18565 -1.12823,-5.7381 -8.27743,-9.33308 -11.08262,-3.60622 -1.74801,3.87926 -2.77521,8.16827 -3.93436,12.34955 -1.27144,-4.20334 -3.47681,-12.47269 -8.22891,-8.64129 -1.44044,1.25117 -2.05919,3.72721 -2.60441,5.3753 -2.41228,-7.73981 -0.86438,-18.97067 -7.20378,-23.98469 -4.55321,-2.06921 -7.90436,3.90288 -8.58899,8.60728 -0.94801,-6.87399 -2.24865,-16.96902 -8.75537,-18.60941 -6.42131,1.35365 -5.65372,11.60444 -6.82891,17.54408 -0.47509,8.68876 -1.08798,1.73787 -1.81551,-3.32337 0.78645,-6.72226 -6.66601,-7.65579 -8.58909,-2.44949 -2.70809,5.39687 -2.83939,11.97139 -4.12825,17.96301 -1.39189,-9.71611 -1.30583,-20.43633 -4.26687,-29.56413 -3.43186,-4.42704 -8.56138,1.28159 -8.56134,6.15779 -0.98388,5.74446 -1.55034,11.60669 -2.16112,17.38464 -1.37117,-6.35065 -1.05101,-14.63709 -5.04262,-19.28983 -5.5672,-2.64386 -8.04537,6.51156 -8.01105,11.62598 -0.97565,9.43909 -2.10728,18.85293 -3.15474,28.28047 -1.17831,-7.66338 -0.78694,-16.82475 -4.5993,-23.27025 -4.30628,-3.33423 -7.77382,3.40917 -8.14576,7.9609 -1.51468,-10.10901 -1.26441,-22.07953 -6.92667,-30.21054 -4.76386,-3.22969 -7.48638,4.7827 -7.64702,9.42377 -0.90648,6.75811 -1.15607,-5.58976 -1.88513,-8.01533 -1.4567,-5.01708 0,-13.1727 -4.62591,-15.49307 -5.74373,-0.94953 -7.17155,8.26162 -7.67477,13.50627 -1.36627,10.53433 -1.48783,21.26207 -1.91172,31.91157 -0.54979,-4.69687 -1.80497,-13.53199 -7.14831,-10.78462 -4.80979,4.36444 -3.14871,13.22707 -4.65667,19.4851 -0.69671,8.10752 -1.07014,10.39934 -1.35572,0.7233 -0.7092,-11.39782 -1.5812,-22.7783 -3.26939,-34.02088 -5.12595,-4.2696 -10.17548,2.9337 -10.14063,9.04958 -0.28371,7.65569 -0.69316,3.19578 -0.7976,-2.0013 -1.01332,-16.78635 -1.44659,-33.88621 -4.49431,-50.25473 -1.65106,-4.43899 -7.99957,-4.8917 -8.36743,0.88452 -0.9781,9.85157 -1.46255,19.76278 -1.93946,29.6662 -0.97482,-13.18637 -0.88273,-26.98443 -4.12832,-39.5322 -3.18863,-4.80396 -8.7602,0.94364 -8.28427,5.95363 -2.5139,19.15479 -2.9916,38.6789 -3.71268,58.07359 -0.26493,-4.714 -2.76277,-11.31273 -7.23147,-8.23304 -4.80111,5.13044 -3.11504,14.27882 -4.4885,21.19498 -0.40996,5.15201 -0.71434,15.08039 -1.24675,4.38866 -1.08867,-7.66993 -1.12244,-16.46742 -3.79586,-23.33828 -4.56268,-3.87986 -8.35658,3.39805 -8.83837,8.30108 -0.60034,2.41924 -1.51238,12.10305 -1.55281,5.81979 -1.02067,-14.26247 -0.91535,-29.16167 -4.18252,-42.80046 -3.60044,-4.89742 -8.9336,1.50392 -8.38194,6.7252 -0.99434,7.97821 -1.54493,16.04591 -1.98034,24.13174 -0.77774,-10.55417 -0.77819,-21.70044 -3.38021,-31.70744 -2.32976,-5.03301 -8.89619,-2.63789 -9.00461,3.06186 -1.53917,6.00382 -2.30405,12.2729 -2.90926,18.50734 -1.02607,-6.72706 -0.47186,-14.75036 -3.54643,-20.48055 -3.81182,-3.64188 -8.09693,2.60576 -7.29906,7.37624 -1.34756,14.71417 -1.95578,29.51232 -2.45369,44.30144 -0.85895,-13.98596 -0.56603,-28.33534 -2.60443,-42.0838 -2.00241,-5.1976 -9.57799,-3.99943 -9.36486,2.24538 -1.07919,13.21734 -1.80788,26.47454 -2.41042,39.73636 -1.00764,-38.81732 -1.37025,-77.8167 -4.21142,-116.45333 -2.00781,-5.83842 -8.97916,-1.64498 -8.58905,3.64023 -2.31469,23.99882 -2.71694,48.19178 -3.18631,72.3283 -0.80673,-22.90182 -0.93937,-46.05914 -3.65728,-68.72209 -0.59093,-4.55387 -5.68728,-7.43787 -7.95176,-2.89179 -4.74154,13.8805 -2.73875,29.48099 -4.03551,44.15618 -0.8024,21.92988 -0.72668,45.65172 -1.83832,66.47958 -2.69228,-3.91267 -7.41259,-1.36589 -7.75786,3.40209 -0.45474,-2.29401 -0.38071,-11.74065 -0.63729,-16.70423 -0.81293,-20.55131 -1.1644,-41.40257 -3.74035,-61.67978 -1.33701,-4.55043 -7.39915,-4.57862 -7.89644,0.64638 -2.74291,19.03499 -2.87786,38.49413 -3.43563,57.80141 -1.04328,-44.36191 -1.37424,-89.01154 -4.48847,-133.12354 -0.14504,-3.68631 -2.76943,-7.75044 -5.9569,-6.0217 z"
         style="fill:#000000;fill-opacity:1;stroke:none;display:inline;filter:url(#filter4544)" />
      <g
         style="font-size:958.72375488px;font-style:normal;font-variant:normal;font-weight:bold;font-stretch:condensed;line-height:125%;letter-spacing:6.39149189px;word-spacing:0px;fill:#ff0000;fill-opacity:1;stroke:none;display:inline;filter:url(#filter4068);font-family:Transformers Solid;-inkscape-font-specification:Transformers Solid Bold Condensed"
         id="g3026"
         transform="matrix(1.0886763,0,0,1.0886763,610.0107,-63.47025)">
        <path
           style="fill:#ff0000;fill-opacity:1;stroke:none"
           d="M 311.875,55.5625 C 289.11088,57.261913 267.70179,63.214095 247.65625,73.40625 227.95002,83.599613 211.98114,98.544556 199.75,118.25 c -12.2315,19.36681 -18.3439,41.96008 -18.34375,67.78125 l 0,104.46875 c -1.5e-4,33.63651 11.39222,63.55763 34.15625,89.71875 22.76364,26.16172 54.86165,39.73098 96.3125,40.75 l -286.90625,0 0,260.9375 547.84375,0 c 29.2187,0 53.50821,-5.76069 72.875,-17.3125 19.70537,-11.89154 34.13833,-27.70019 43.3125,-47.40625 3.39963,-7.16394 6.19026,-14.57746 8.375,-22.21875 -6.49181,-2.91521 -8.04642,-12.14774 -8.40625,-18.6875 -2.82391,1.24522 -6.31521,1.19543 -8.9375,-0.53125 -6.26279,-5.98044 -5.13259,-16.0328 -5.8125,-24.03125 1.25418,-4.6372 -2.34928,-2.55121 -5.0625,-3.15625 -1.67613,2.38941 -0.33425,8.27255 -1.84375,11.9375 -1.11392,5.88809 -7.26648,10.9331 -13.25,8.03125 -2.41375,6.2086 -10.06166,11.1719 -16.5625,8 -2.25906,3.99109 -6.43951,7.65576 -11.34375,7.15625 -8.62719,-1.75222 -9.4373,-12.30756 -9.84375,-19.46875 -3.03361,0.73245 -6.30534,-0.40512 -8.59375,-2.4375 -1.59312,3.18683 -4.83137,7.26308 -9.125,7.5 -0.90948,9.61694 -1.23736,19.40458 -1.8125,29.09375 1.17155,7.96575 -5.96622,17.3594 -14.46875,14.90625 -1.02485,7.8946 -0.0907,17.60959 -1.96875,26.03125 -1.73863,9.05363 -15.641,9.0391 -19.1875,1.21875 -3.93415,-20.95612 -2.99493,-42.6693 -3.96875,-63.96875 -3.20266,0.87898 -6.65192,-0.3635 -9.125,-2.4375 -2.32185,-0.86395 -2.43581,-6.05677 -5.21875,-3.625 -2.45323,11.53718 -1.52863,24.59233 -3.0625,36.6875 1.84233,7.95838 -7.43225,15.53705 -14.875,11.96875 -1.3476,2.85422 -1.11405,8.89306 -2.125,12.96875 0.26584,8.24568 -11.34723,11.88842 -16.75,6.28125 -4.46267,-5.75427 -3.33139,-13.98827 -3.96875,-20.90625 -3.60351,4.0334 -10.85788,4.75854 -14.28125,0.15625 C 481.89638,599.5689 483.23895,579.8588 481.75,561 c 0.97522,-4.13409 -4.02364,-1.68515 -6.09375,-3.84375 -2.93996,2.06506 -7.68478,4.85053 -11.78125,2.875 -1.74739,4.00024 -5.50207,8.10677 -10.34375,8.34375 -4.41393,-1.3599 -1.76586,4.99344 -2.8125,7.46875 1.16594,7.50857 -6.34464,14.70136 -13.78125,12.375 -1.12712,11.04843 -5.93385,23.69706 -17.25,27.78125 -6.24878,0.91704 -5.28295,-8.04606 -5.21875,-11.9375 -3.87019,2.24056 -9.97653,2.16539 -12.875,-1.90625 -3.90124,-9.87084 -3.01151,-21.30061 -3.75,-31.875 0.0492,-2.95907 0.56536,-5.79572 -3,-4.59375 -1.85358,3.58208 -0.82923,9.97204 -1.53125,14.53125 -1.70821,8.30621 0.21251,18.09703 -5.9375,24.8125 -5.78473,6.31318 -15.91163,0.96765 -17.28125,-6.53125 -3.3559,0.97212 -8.5947,1.19015 -11.34375,-2.15625 -5.52387,-11.73556 -4.66936,-25.44854 -5.625,-38.1875 -0.66879,10.73654 -0.82042,21.50024 -1.78125,32.21875 -1.50707,7.06348 -0.61136,14.682 -2.96875,21.46875 -2.94488,7.32461 -14.29847,8.22402 -17.90625,0.96875 -4.36348,3.63742 -13.56087,4.59367 -16.71875,-1.78125 -4.15371,-23.42889 -3.48308,-47.74306 -4.625,-71.5625 -3.0922,2.01662 -7.32714,2.9782 -10.6875,0.9375 -3.21032,1.41432 -7.83077,2.37083 -10.96875,-0.3125 -4.27299,1.98367 -10.53337,1.85699 -14.46875,-1.6875 -2.71682,3.91766 -9.90454,6.30112 -14.21875,2.0625 -2.82711,-1.09777 -3.03391,-6.64595 -6.40625,-4.65625 -2.3745,1.40816 -6.49788,-2.11082 -7,0.8125 -1.76187,7.93809 -12.56107,9.83296 -18.03125,4.5 -4.44746,1.14125 -10.9727,1.80065 -14.59375,-2.53125 -4.91321,2.07161 -10.86866,0.2389 -14.40625,-3.625 -3.95609,1.61139 -9.74346,2.35564 -13.75,-0.625 -3.29946,1.4091 -7.70086,2.30369 -11.375,0.75 -3.71325,-3.24971 -7.68948,1.48111 -12,0.59375 -4.9578,-2.42202 -9.29143,3.53793 -14.46875,1.90625 -4.96358,-3.44608 -11.40651,-0.2218 -16.8125,-2.34375 -13.58703,-1.03118 -27.5376,-1.57174 -41.28125,-1.46875 -5.321126,0.84658 -12.176152,1.11103 -14.96875,-4.5625 -4.437492,-6.56117 0.488231,-16.0648 8.34375,-16.53125 14.725917,-1.26037 29.57935,0.85882 44.375,0.3125 5.75695,0.38276 11.38666,1.83033 17.28125,1 5.48749,1.55991 9.80291,-3.58489 15.34375,-3.03125 5.58632,1.92242 11.37906,-2.7872 16.96875,-0.15625 4.39495,-3.81196 11.64276,-3.96152 16.25,-0.28125 4.68757,-3.35231 11.7674,-2.72137 15.8125,1.28125 3.57535,-0.76402 8.59364,-1.42523 12.0625,1.28125 3.42837,-1.79315 8.21079,-3.17757 12.15625,-1.09375 3.23384,-6.21757 12.32268,-8.43481 18.15625,-4.40625 4.22892,-3.62033 11.31223,-4.83083 15.75,-0.8125 4.6575,-3.85243 11.98332,-2.21452 15.59375,2.25 3.4276,-2.25238 8.62098,-2.67643 12.21875,-0.15625 1.36586,2.90702 3.97824,1.41062 6.375,2.03125 5.53673,-16.3752 2.929,-34.19777 4.84375,-51.21875 -0.97708,-6.98878 3.89402,-15.134 11.5,-15.125 8.41283,0.29256 9.882,10.40307 9.8125,17 2.05954,-0.85262 4.7422,-1.37704 7.0625,-0.65625 1.18964,-16.33626 0.98588,-33.94023 2,-50.75 -1.82686,-8.9659 10.7943,-16.24146 17.1875,-9.40625 3.65524,5.9825 3.12585,13.69397 4.1875,20.5 0.53541,12.64742 1.57823,25.34107 1.15625,37.9375 6.47597,1.11742 10.6316,8.03809 10.84375,14.59375 2.9617,-1.87349 7.04797,-2.3162 10.09375,-0.34375 5.66162,4.90649 5.132,13.78059 5.8125,20.6875 0.99667,2.63156 -1.77955,9.44697 2.71875,8.09375 2.17402,-33.12936 0.62726,-66.84155 4.375,-100.03125 -1.11351,-9.71019 13.49913,-15.89236 19.1875,-7.78125 4.37787,13.3342 2.68941,28.03129 3.625,41.96875 2.94702,-0.81361 6.27507,-0.21769 8.71875,1.625 5.11836,5.69421 4.39324,14.53526 5.15625,21.75 0.90381,2.15719 -1.62564,8.69825 2.46875,6.59375 8.18536,-1.12781 11.8159,8.25744 11.75,15 1.16832,1.17849 5.1405,-1.00757 7.5,0.28125 0.49599,-6.94669 7.26501,-15.26553 14.8125,-11.75 8.04518,4.69943 7.21192,15.47387 7.84375,23.5625 6.1193,-1.04166 11.52041,3.91559 13.40625,9.4375 1.71503,2.01048 -0.22387,6.9204 3.4375,6.59375 1.70922,-41.34858 1.95878,-83.72915 4.09375,-125.4375 -0.5064,-7.96478 0.80956,-19.46309 10.28125,-21.3125 0.26068,-0.0211 0.52485,-0.0354 0.78125,-0.0312 3.84602,0.0623 7.16623,2.899 8.8125,6.28125 4.08828,23.6409 3.2985,48.02413 4.40625,72 3.72042,-1.0839 8.05638,0.0544 10.5625,3.03125 3.45076,7.32519 2.99226,16.05174 4.1875,24.03125 0.38798,-17.77871 0.009,-35.78416 3.3125,-53.28125 1.37654,-7.04245 10.59104,-11.88973 16.3125,-6.59375 2.53603,-6.96001 14.5891,-10.14954 18.5625,-2.53125 4.07315,22.81175 3.19879,46.47205 4.28125,69.65625 2.26868,-0.54237 4.75146,-0.34734 6.84375,0.71875 1.2569,-6.45613 9.51747,-10.69413 15.21875,-6.8125 3.93072,-4.97041 13.11832,-5.91342 17.09375,-0.28125 3.16811,-1.46418 8.09358,-3.54756 11.59375,-0.78125 6.75765,7.54337 5.79855,18.86112 6.71875,28.375 3.00479,-1.0153 6.48172,-0.32722 8.9375,1.65625 2.02982,-0.27382 4.31287,-4.1078 7.46875,-4.0625 1.74795,-6.74474 0.8697,-15.46992 1.71875,-22.9375 2.07871,-9.87946 -0.73854,-21.41444 5.71875,-30 4.37891,-6.88244 15.72136,-3.55257 17.21875,4 3.4769,-0.4767 8.22266,-0.54608 10.96875,2.53125 5.67188,11.19905 5.17475,24.61886 6.15625,36.96875 0.28093,2.95022 -0.91057,7.10383 3.28125,5.375 4.83951,-0.11876 7.5424,3.28797 8.875,7.40625 l 0,-102.46875 c -1.69953,-21.06475 -8.67562,-41.09816 -20.90625,-60.125 -11.89226,-19.02614 -29.55732,-35.15526 -53,-48.40625 -23.44399,-13.25019 -50.96547,-20.5468 -82.5625,-21.90625 l 260.9375,0 0,-208.96875 -495.875,0 z m 385.5,539.40625 c 0.95862,-3.35285 1.80653,-6.74274 2.53125,-10.1875 -0.72589,3.44444 -1.57261,6.83458 -2.53125,10.1875 z m 5.78125,-36.9375 c -0.057,1.49584 -0.1541,2.98819 -0.25,4.46875 0.0954,-1.48129 0.19342,-2.97221 0.25,-4.46875 z m -0.25,4.90625 c -0.22165,3.28787 -0.55523,6.5375 -0.96875,9.75 0.41209,-3.21396 0.7483,-6.46074 0.96875,-9.75 z m -1.03125,10.25 c -0.0867,0.6598 -0.18641,1.31213 -0.28125,1.96875 0.0951,-0.65599 0.19426,-1.30958 0.28125,-1.96875 z m -0.28125,1.96875 c -0.19531,1.34763 -0.39561,2.69701 -0.625,4.03125 0.22896,-1.33532 0.4302,-2.68251 0.625,-4.03125 z m -0.625,4.03125 c -0.28443,1.65438 -0.60074,3.30369 -0.9375,4.9375 0.33633,-1.63471 0.65366,-3.28216 0.9375,-4.9375 z"
           transform="matrix(0.91854668,0,0,0.91854668,-560.3233,58.300387)"
           id="path3028"
           inkscape:connector-curvature="0" />
      </g>
    </g>
  </g>
</svg>
